%TF.GenerationSoftware,Altium Limited,Altium Designer,24.2.2 (26)*%
G04 Layer_Color=8388736*
%FSLAX45Y45*%
%MOMM*%
%TF.SameCoordinates,505FE19A-96A0-4540-A324-069B6CBC3D10*%
%TF.FilePolarity,Negative*%
%TF.FileFunction,Soldermask,Top*%
%TF.Part,Single*%
G01*
G75*
%TA.AperFunction,ComponentPad*%
G04:AMPARAMS|DCode=45|XSize=1mm|YSize=1.8mm|CornerRadius=0.5mm|HoleSize=0mm|Usage=FLASHONLY|Rotation=180.000|XOffset=0mm|YOffset=0mm|HoleType=Round|Shape=RoundedRectangle|*
%AMROUNDEDRECTD45*
21,1,1.00000,0.80000,0,0,180.0*
21,1,0.00000,1.80000,0,0,180.0*
1,1,1.00000,0.00000,0.40000*
1,1,1.00000,0.00000,0.40000*
1,1,1.00000,0.00000,-0.40000*
1,1,1.00000,0.00000,-0.40000*
%
%ADD45ROUNDEDRECTD45*%
G04:AMPARAMS|DCode=46|XSize=1mm|YSize=2.1mm|CornerRadius=0.5mm|HoleSize=0mm|Usage=FLASHONLY|Rotation=180.000|XOffset=0mm|YOffset=0mm|HoleType=Round|Shape=RoundedRectangle|*
%AMROUNDEDRECTD46*
21,1,1.00000,1.10000,0,0,180.0*
21,1,0.00000,2.10000,0,0,180.0*
1,1,1.00000,0.00000,0.55000*
1,1,1.00000,0.00000,0.55000*
1,1,1.00000,0.00000,-0.55000*
1,1,1.00000,0.00000,-0.55000*
%
%ADD46ROUNDEDRECTD46*%
%ADD47C,0.65000*%
%ADD48C,1.00000*%
%TA.AperFunction,SMDPad,CuDef*%
%ADD68R,0.98000X0.98000*%
%ADD69P,8.28729X4X360.0*%
G04:AMPARAMS|DCode=70|XSize=0.51mm|YSize=1.11mm|CornerRadius=0mm|HoleSize=0mm|Usage=FLASHONLY|Rotation=315.000|XOffset=0mm|YOffset=0mm|HoleType=Round|Shape=Round|*
%AMOVALD70*
21,1,0.60000,0.51000,0.00000,0.00000,45.0*
1,1,0.51000,-0.21213,-0.21213*
1,1,0.51000,0.21213,0.21213*
%
%ADD70OVALD70*%

G04:AMPARAMS|DCode=71|XSize=0.51mm|YSize=1.11mm|CornerRadius=0mm|HoleSize=0mm|Usage=FLASHONLY|Rotation=45.000|XOffset=0mm|YOffset=0mm|HoleType=Round|Shape=Round|*
%AMOVALD71*
21,1,0.60000,0.51000,0.00000,0.00000,135.0*
1,1,0.51000,0.21213,-0.21213*
1,1,0.51000,-0.21213,0.21213*
%
%ADD71OVALD71*%

%TA.AperFunction,BGAPad,CuDef*%
%ADD72C,1.00320*%
%TA.AperFunction,SMDPad,CuDef*%
%ADD73R,1.16000X1.26000*%
G04:AMPARAMS|DCode=74|XSize=1.16mm|YSize=1.26mm|CornerRadius=0mm|HoleSize=0mm|Usage=FLASHONLY|Rotation=0.000|XOffset=0mm|YOffset=0mm|HoleType=Round|Shape=Octagon|*
%AMOCTAGOND74*
4,1,8,-0.29000,0.63000,0.29000,0.63000,0.58000,0.34000,0.58000,-0.34000,0.29000,-0.63000,-0.29000,-0.63000,-0.58000,-0.34000,-0.58000,0.34000,-0.29000,0.63000,0.0*
%
%ADD74OCTAGOND74*%

%ADD75R,3.66360X9.25160*%
%ADD76R,1.55540X1.65700*%
%ADD77R,2.26000X1.76000*%
%ADD78R,0.98000X0.98000*%
%ADD79R,1.28000X3.43000*%
%ADD80R,1.56000X1.71000*%
%ADD81R,1.56000X2.06000*%
%ADD82R,1.71000X1.56000*%
%ADD83R,0.66000X1.11000*%
%ADD84R,0.81000X0.81000*%
%ADD85R,0.81000X0.81000*%
%ADD86R,0.86000X1.26000*%
%ADD87R,0.51000X1.21000*%
%ADD88R,2.26000X1.45000*%
%ADD89R,1.06000X1.21000*%
%ADD90C,1.26000*%
%ADD91R,4.06000X2.29000*%
%ADD92R,1.16000X0.76000*%
%ADD93R,0.51000X0.53500*%
%ADD94R,0.53500X0.51000*%
%ADD95R,0.76000X0.96000*%
%ADD96R,0.96000X0.76000*%
%ADD97R,0.76000X0.66000*%
%TA.AperFunction,ViaPad*%
%ADD98C,0.86000*%
G36*
X4540000Y9180000D02*
Y8840000D01*
Y8440000D01*
X4260000Y8540000D01*
Y9280000D01*
X4540000Y9180000D01*
D02*
G37*
%LPC*%
G36*
X4439430Y9161853D02*
X4426354D01*
Y9144553D01*
X4359968D01*
Y9161853D01*
D01*
Y9107135D01*
X4439430D01*
X4373145D01*
X4385215Y9111963D01*
X4375559Y9129465D01*
X4426354D01*
Y9109348D01*
X4439430D01*
Y9161853D01*
D02*
G37*
G36*
X4440838Y9077765D02*
D01*
Y9065795D01*
X4440737Y9067606D01*
X4440536Y9068411D01*
X4440335Y9069115D01*
X4440234Y9069718D01*
X4440033Y9070121D01*
X4439932Y9070422D01*
Y9070523D01*
X4439128Y9072032D01*
X4438725Y9072635D01*
X4438323Y9073239D01*
X4438021Y9073641D01*
X4437720Y9073943D01*
X4437518Y9074144D01*
X4437418Y9074244D01*
X4436110Y9075351D01*
X4434903Y9076156D01*
X4434400Y9076357D01*
X4433998Y9076558D01*
X4433797Y9076759D01*
X4433696D01*
X4432087Y9077363D01*
X4430679Y9077664D01*
X4430075Y9077765D01*
X4429170D01*
X4427359Y9077564D01*
X4426555Y9077463D01*
X4425951Y9077262D01*
X4425348Y9077061D01*
X4424945Y9076960D01*
X4424644Y9076759D01*
X4424543D01*
X4423034Y9075954D01*
X4422330Y9075552D01*
X4421827Y9075150D01*
X4421324Y9074848D01*
X4421023Y9074546D01*
X4420821Y9074345D01*
X4420721Y9074244D01*
X4419614Y9073037D01*
X4418810Y9071830D01*
X4418609Y9071328D01*
X4418407Y9070925D01*
X4418206Y9070623D01*
Y9070523D01*
X4417603Y9068813D01*
X4417402Y9068008D01*
X4417301Y9067304D01*
X4417200Y9066701D01*
Y9065795D01*
X4417402Y9064086D01*
X4417502Y9063281D01*
X4417703Y9062677D01*
X4417905Y9062074D01*
X4418005Y9061671D01*
X4418206Y9061370D01*
Y9061269D01*
X4419011Y9059760D01*
X4419816Y9058654D01*
X4420117Y9058151D01*
X4420419Y9057849D01*
X4420620Y9057648D01*
X4420721Y9057548D01*
X4422028Y9056542D01*
X4423236Y9055737D01*
X4423738Y9055536D01*
X4424141Y9055335D01*
X4424443Y9055134D01*
X4424543D01*
X4426152Y9054631D01*
X4427661Y9054329D01*
X4428265D01*
X4428768Y9054228D01*
X4417200D01*
X4440838D01*
Y9077765D01*
D02*
G37*
G36*
X4439430Y9025864D02*
X4426354D01*
Y9008563D01*
X4359968D01*
Y8996191D01*
X4373145Y8971146D01*
X4359968D01*
D01*
X4439430D01*
Y9025864D01*
D02*
G37*
G36*
Y8964105D02*
Y8939864D01*
X4360471Y8964105D01*
Y8948313D01*
X4407142Y8935036D01*
X4423638Y8930611D01*
X4408047Y8926285D01*
X4360471Y8913008D01*
Y8896211D01*
X4439430Y8920250D01*
Y8964105D01*
D02*
G37*
G36*
Y8825199D02*
X4412976Y8812626D01*
X4411165Y8811720D01*
X4409657Y8810815D01*
X4408349Y8810010D01*
X4407243Y8809306D01*
X4406438Y8808703D01*
X4405834Y8808200D01*
X4405432Y8807898D01*
X4405332Y8807797D01*
X4404426Y8806892D01*
X4403622Y8805987D01*
X4403119Y8805082D01*
X4402616Y8804277D01*
X4402314Y8803472D01*
X4402113Y8802969D01*
X4402012Y8802567D01*
Y8802467D01*
X4401711Y8803875D01*
X4401409Y8805082D01*
X4401107Y8806289D01*
X4400705Y8807295D01*
X4400403Y8808099D01*
X4400101Y8808803D01*
X4400001Y8809206D01*
X4399900Y8809306D01*
X4399297Y8810513D01*
X4398693Y8811519D01*
X4397989Y8812424D01*
X4397385Y8813229D01*
X4396782Y8813833D01*
X4396380Y8814335D01*
X4396078Y8814637D01*
X4395977Y8814738D01*
X4394971Y8815542D01*
X4393966Y8816247D01*
X4393060Y8816951D01*
X4392155Y8817454D01*
X4391350Y8817856D01*
X4390747Y8818158D01*
X4390244Y8818258D01*
X4390143Y8818359D01*
X4388836Y8818761D01*
X4387428Y8819163D01*
X4386120Y8819365D01*
X4384913Y8819465D01*
X4383907Y8819566D01*
X4383002Y8819666D01*
X4382499D01*
X4382298D01*
X4380085Y8819566D01*
X4378174Y8819365D01*
X4376464Y8818962D01*
X4374955Y8818661D01*
X4373748Y8818258D01*
X4372843Y8817856D01*
X4372340Y8817655D01*
X4372139Y8817554D01*
X4370630Y8816749D01*
X4369322Y8815844D01*
X4368115Y8814838D01*
X4367210Y8813933D01*
X4366406Y8813128D01*
X4365903Y8812424D01*
X4365500Y8812022D01*
X4365400Y8811821D01*
X4364494Y8810413D01*
X4363690Y8808803D01*
X4363086Y8807295D01*
X4362583Y8805886D01*
X4362181Y8804679D01*
X4361879Y8803674D01*
X4361779Y8803271D01*
X4361678Y8802969D01*
Y8802768D01*
X4361276Y8800757D01*
X4360974Y8798644D01*
X4360773Y8796633D01*
X4360572Y8794822D01*
Y8793213D01*
X4360471Y8792609D01*
Y8767966D01*
X4439430D01*
Y8782853D01*
X4406740D01*
Y8785669D01*
X4406840Y8787077D01*
X4407041Y8788284D01*
X4407343Y8789491D01*
X4407645Y8790396D01*
X4408047Y8791201D01*
X4408349Y8791805D01*
X4408550Y8792207D01*
X4408651Y8792308D01*
X4409355Y8793313D01*
X4410260Y8794219D01*
X4411165Y8794923D01*
X4412071Y8795526D01*
X4412875Y8796029D01*
X4413479Y8796331D01*
X4413881Y8796532D01*
X4414082Y8796633D01*
X4439430Y8807797D01*
Y8825199D01*
D02*
G37*
G36*
Y8755494D02*
D01*
Y8724011D01*
X4439329Y8726827D01*
X4439128Y8729443D01*
X4438826Y8731857D01*
X4438524Y8734069D01*
X4438021Y8736182D01*
X4437518Y8738093D01*
X4437016Y8739903D01*
X4436412Y8741412D01*
X4435809Y8742820D01*
X4435306Y8744027D01*
X4434803Y8745033D01*
X4434300Y8745838D01*
X4433998Y8746542D01*
X4433696Y8746944D01*
X4433495Y8747246D01*
X4433394Y8747346D01*
X4432187Y8748755D01*
X4430880Y8750062D01*
X4429472Y8751169D01*
X4428064Y8752074D01*
X4426555Y8752879D01*
X4425046Y8753482D01*
X4423537Y8754086D01*
X4422028Y8754488D01*
X4420721Y8754790D01*
X4419413Y8755091D01*
X4418307Y8755293D01*
X4417301Y8755393D01*
X4416396D01*
X4415792Y8755494D01*
X4360471D01*
X4413881D01*
X4412574Y8755293D01*
X4411467Y8755091D01*
X4410461Y8754890D01*
X4409556Y8754689D01*
X4408953Y8754488D01*
X4408550Y8754387D01*
X4408450Y8754287D01*
X4407343Y8753784D01*
X4406337Y8753281D01*
X4405432Y8752778D01*
X4404627Y8752275D01*
X4404024Y8751772D01*
X4403521Y8751370D01*
X4403219Y8751169D01*
X4403119Y8751068D01*
X4401509Y8749459D01*
X4400906Y8748654D01*
X4400403Y8747950D01*
X4400001Y8747346D01*
X4399699Y8746844D01*
X4399498Y8746441D01*
X4399397Y8746341D01*
X4398894Y8745335D01*
X4398492Y8744329D01*
X4398090Y8743424D01*
X4397888Y8742518D01*
X4397687Y8741814D01*
X4397587Y8741211D01*
X4397486Y8740809D01*
Y8740708D01*
X4397084Y8741814D01*
X4396581Y8742820D01*
X4396078Y8743625D01*
X4395575Y8744430D01*
X4395173Y8745033D01*
X4394871Y8745435D01*
X4394670Y8745737D01*
X4394569Y8745838D01*
X4393161Y8747346D01*
X4392457Y8747950D01*
X4391853Y8748453D01*
X4391250Y8748855D01*
X4390847Y8749258D01*
X4390546Y8749358D01*
X4390445Y8749459D01*
X4388635Y8750465D01*
X4387729Y8750867D01*
X4386925Y8751169D01*
X4386321Y8751370D01*
X4385818Y8751571D01*
X4385416Y8751672D01*
X4385315D01*
X4383203Y8752074D01*
X4382197Y8752175D01*
X4381292Y8752275D01*
X4380588Y8752376D01*
X4379984D01*
X4379582D01*
X4379481D01*
X4377772Y8752275D01*
X4376162Y8752074D01*
X4374653Y8751772D01*
X4373245Y8751370D01*
X4371938Y8750766D01*
X4370731Y8750263D01*
X4369725Y8749660D01*
X4368719Y8749056D01*
X4367914Y8748352D01*
X4367210Y8747749D01*
X4366607Y8747246D01*
X4366104Y8746743D01*
X4365701Y8746240D01*
X4365400Y8745938D01*
X4365299Y8745737D01*
X4365199Y8745637D01*
X4364394Y8744329D01*
X4363589Y8742820D01*
X4362483Y8739602D01*
X4361578Y8736282D01*
X4361075Y8732963D01*
X4360873Y8731454D01*
X4360672Y8730046D01*
X4360572Y8728738D01*
Y8727632D01*
X4360471Y8726727D01*
Y8699971D01*
X4439430D01*
Y8755494D01*
D02*
G37*
G36*
X4416698Y8685890D02*
X4415591D01*
X4413881Y8685789D01*
X4412272Y8685588D01*
X4410864Y8685387D01*
X4409556Y8685085D01*
X4408651Y8684683D01*
X4407846Y8684481D01*
X4407444Y8684280D01*
X4407243Y8684180D01*
X4405935Y8683476D01*
X4404829Y8682772D01*
X4403722Y8682067D01*
X4402817Y8681363D01*
X4402113Y8680659D01*
X4401610Y8680257D01*
X4401208Y8679855D01*
X4401107Y8679754D01*
X4399297Y8677642D01*
X4398592Y8676636D01*
X4397888Y8675630D01*
X4397385Y8674825D01*
X4396983Y8674121D01*
X4396782Y8673719D01*
X4396681Y8673518D01*
X4395374Y8671003D01*
X4394871Y8669796D01*
X4394368Y8668690D01*
X4393966Y8667785D01*
X4393664Y8666980D01*
X4393563Y8666578D01*
X4393463Y8666376D01*
X4392457Y8663761D01*
X4392054Y8662554D01*
X4391652Y8661448D01*
X4391350Y8660542D01*
X4391049Y8659838D01*
X4390948Y8659436D01*
X4390847Y8659235D01*
X4390345Y8658028D01*
X4389942Y8656821D01*
X4389439Y8655815D01*
X4389037Y8654910D01*
X4388735Y8654105D01*
X4388433Y8653602D01*
X4388333Y8653200D01*
X4388232Y8653099D01*
X4387629Y8652093D01*
X4387126Y8651289D01*
X4386522Y8650484D01*
X4386019Y8649881D01*
X4385617Y8649378D01*
X4385315Y8648975D01*
X4385114Y8648774D01*
X4385014Y8648674D01*
X4384309Y8648171D01*
X4383605Y8647768D01*
X4382801Y8647467D01*
X4382197Y8647265D01*
X4381594Y8647165D01*
X4381091Y8647064D01*
X4380789D01*
X4380688D01*
X4379280Y8647165D01*
X4378174Y8647467D01*
X4377772Y8647567D01*
X4377470Y8647668D01*
X4377269Y8647768D01*
X4377168D01*
X4375961Y8648472D01*
X4375156Y8649378D01*
X4374553Y8649981D01*
X4374352Y8650182D01*
Y8650283D01*
X4373648Y8651792D01*
X4373044Y8653200D01*
X4372843Y8653904D01*
X4372742Y8654407D01*
X4372642Y8654709D01*
Y8654809D01*
X4372441Y8655916D01*
X4372239Y8657022D01*
X4372139Y8658128D01*
X4372038Y8659134D01*
X4371938Y8660040D01*
Y8663158D01*
X4372038Y8663862D01*
Y8664566D01*
X4372139Y8665169D01*
Y8665672D01*
X4372239Y8665974D01*
Y8666075D01*
X4372441Y8667885D01*
X4372541Y8668790D01*
X4372642Y8669494D01*
X4372742Y8670098D01*
X4372843Y8670601D01*
X4372944Y8670903D01*
Y8671003D01*
X4373245Y8672814D01*
X4373446Y8673618D01*
X4373547Y8674323D01*
X4373748Y8674926D01*
X4373849Y8675328D01*
X4373949Y8675630D01*
Y8675731D01*
X4374452Y8677340D01*
X4374653Y8678145D01*
X4374855Y8678748D01*
X4374955Y8679251D01*
X4375156Y8679754D01*
X4375257Y8679955D01*
Y8680056D01*
X4361678D01*
X4361376Y8678547D01*
X4361075Y8677139D01*
X4360974Y8676535D01*
X4360873Y8676133D01*
X4360773Y8675831D01*
Y8675731D01*
X4360471Y8674021D01*
X4360270Y8673216D01*
X4360169Y8672411D01*
X4360069Y8671808D01*
Y8671305D01*
X4359968Y8671003D01*
Y8670903D01*
X4359767Y8669092D01*
X4359666Y8668187D01*
X4359566Y8667382D01*
Y8666779D01*
X4359465Y8666175D01*
Y8665773D01*
X4359264Y8663962D01*
Y8663158D01*
X4359163Y8662454D01*
Y8660945D01*
X4359264Y8658028D01*
X4359465Y8655413D01*
X4359767Y8653099D01*
X4360069Y8651088D01*
X4360270Y8650182D01*
X4360471Y8649378D01*
X4360672Y8648774D01*
X4360773Y8648171D01*
X4360873Y8647768D01*
X4360974Y8647467D01*
X4361075Y8647265D01*
Y8647165D01*
X4361779Y8645153D01*
X4362583Y8643343D01*
X4363388Y8641733D01*
X4364193Y8640426D01*
X4364897Y8639319D01*
X4365500Y8638615D01*
X4365903Y8638112D01*
X4366003Y8637911D01*
X4367210Y8636604D01*
X4368417Y8635598D01*
X4369725Y8634592D01*
X4370831Y8633888D01*
X4371837Y8633284D01*
X4372642Y8632882D01*
X4373145Y8632681D01*
X4373346Y8632580D01*
X4374855Y8632077D01*
X4376464Y8631675D01*
X4377973Y8631373D01*
X4379280Y8631172D01*
X4380387Y8631071D01*
X4381292Y8630971D01*
X4381895D01*
X4381996D01*
X4382097D01*
X4383907Y8631071D01*
X4385617Y8631273D01*
X4387126Y8631474D01*
X4388433Y8631775D01*
X4389439Y8632077D01*
X4390244Y8632379D01*
X4390646Y8632480D01*
X4390847Y8632580D01*
X4392155Y8633284D01*
X4393261Y8633988D01*
X4394368Y8634692D01*
X4395273Y8635396D01*
X4395977Y8636101D01*
X4396480Y8636604D01*
X4396882Y8636905D01*
X4396983Y8637006D01*
X4398794Y8639118D01*
X4399498Y8640124D01*
X4400202Y8641130D01*
X4400705Y8641934D01*
X4401107Y8642538D01*
X4401308Y8643041D01*
X4401409Y8643141D01*
X4402616Y8645757D01*
X4403119Y8646964D01*
X4403622Y8647969D01*
X4404024Y8648875D01*
X4404326Y8649579D01*
X4404426Y8649981D01*
X4404527Y8650182D01*
X4405432Y8652798D01*
X4405935Y8654005D01*
X4406237Y8655111D01*
X4406539Y8655916D01*
X4406840Y8656620D01*
X4406941Y8657123D01*
X4407041Y8657223D01*
X4407544Y8658531D01*
X4407947Y8659637D01*
X4408450Y8660744D01*
X4408852Y8661649D01*
X4409254Y8662454D01*
X4409455Y8662957D01*
X4409657Y8663359D01*
X4409757Y8663459D01*
X4410361Y8664465D01*
X4410964Y8665270D01*
X4411568Y8666075D01*
X4412071Y8666678D01*
X4412574Y8667181D01*
X4412976Y8667583D01*
X4413177Y8667785D01*
X4413278Y8667885D01*
X4413982Y8668489D01*
X4414786Y8668891D01*
X4415692Y8669193D01*
X4416396Y8669394D01*
X4417100Y8669494D01*
X4417603Y8669595D01*
X4418005D01*
X4418106D01*
X4419614Y8669494D01*
X4420821Y8669193D01*
X4421324Y8668992D01*
X4421727Y8668790D01*
X4421928Y8668690D01*
X4422028D01*
X4422632Y8668388D01*
X4423236Y8667885D01*
X4424141Y8667080D01*
X4424543Y8666578D01*
X4424845Y8666276D01*
X4424945Y8666075D01*
X4425046Y8665974D01*
X4425448Y8665169D01*
X4425851Y8664365D01*
X4426454Y8662755D01*
X4426655Y8662152D01*
X4426857Y8661548D01*
X4426957Y8661146D01*
Y8661045D01*
X4427158Y8659939D01*
X4427359Y8658732D01*
X4427460Y8657525D01*
X4427561Y8656419D01*
X4427661Y8655413D01*
Y8653904D01*
X4427561Y8651792D01*
Y8650786D01*
X4427460Y8649981D01*
Y8649177D01*
X4427359Y8648573D01*
Y8648070D01*
X4427058Y8645857D01*
X4426857Y8644851D01*
X4426655Y8643846D01*
X4426555Y8643041D01*
X4426454Y8642437D01*
X4426354Y8642035D01*
Y8641934D01*
X4425851Y8639722D01*
X4425650Y8638716D01*
X4425448Y8637811D01*
X4425247Y8637006D01*
X4425046Y8636402D01*
X4424945Y8636000D01*
Y8635899D01*
X4424241Y8633687D01*
X4423940Y8632781D01*
X4423638Y8631876D01*
X4423437Y8631172D01*
X4423236Y8630669D01*
X4423034Y8630267D01*
Y8630166D01*
X4359163D01*
D01*
X4440838D01*
D01*
X4437720D01*
X4438323Y8632278D01*
X4438826Y8634290D01*
X4439228Y8636201D01*
X4439530Y8638012D01*
X4439832Y8639420D01*
X4440033Y8640526D01*
Y8640929D01*
X4440134Y8641230D01*
Y8641532D01*
X4440335Y8643745D01*
X4440536Y8645857D01*
X4440637Y8647869D01*
X4440737Y8649780D01*
X4440838Y8651289D01*
Y8653602D01*
X4440737Y8656217D01*
X4440637Y8658631D01*
X4440335Y8660844D01*
X4440033Y8662755D01*
X4439832Y8664365D01*
X4439631Y8664968D01*
X4439530Y8665572D01*
X4439430Y8665974D01*
Y8666276D01*
X4439329Y8666477D01*
Y8666578D01*
X4438725Y8668690D01*
X4438021Y8670701D01*
X4437217Y8672411D01*
X4436513Y8673920D01*
X4435809Y8675127D01*
X4435306Y8676032D01*
X4434903Y8676535D01*
X4434803Y8676737D01*
X4433596Y8678245D01*
X4432288Y8679653D01*
X4430980Y8680760D01*
X4429673Y8681766D01*
X4428566Y8682470D01*
X4427762Y8683073D01*
X4427158Y8683375D01*
X4427058Y8683476D01*
X4426957D01*
X4425046Y8684280D01*
X4423135Y8684884D01*
X4421224Y8685286D01*
X4419413Y8685588D01*
X4417905Y8685789D01*
X4417301D01*
X4416698Y8685890D01*
D02*
G37*
G36*
X4439430Y8622321D02*
D01*
Y8617895D01*
X4360471Y8622321D01*
Y8609647D01*
X4412574Y8607736D01*
X4424845Y8607434D01*
X4414384Y8604517D01*
X4384511Y8595263D01*
Y8585909D01*
X4412674Y8577158D01*
X4424945Y8573537D01*
X4411165Y8573135D01*
X4360471Y8571224D01*
Y8558148D01*
X4439430Y8562574D01*
Y8558148D01*
Y8622321D01*
D02*
G37*
G36*
X4270001Y9170000D02*
X4270000D01*
Y8550000D01*
X4530000D01*
Y8550001D01*
X4270001D01*
Y9170000D01*
D02*
G37*
%LPD*%
G36*
X4373145Y9107135D02*
X4359968D01*
Y9132181D01*
X4373145Y9107135D01*
D02*
G37*
G36*
X4440838Y9054228D02*
X4429170D01*
X4430880Y9054329D01*
X4431685Y9054530D01*
X4432288Y9054731D01*
X4432892Y9054832D01*
X4433294Y9055033D01*
X4433596Y9055134D01*
X4433696D01*
X4435205Y9055938D01*
X4436311Y9056642D01*
X4436814Y9057045D01*
X4437116Y9057346D01*
X4437317Y9057447D01*
X4437418Y9057548D01*
X4438524Y9058855D01*
X4439228Y9060062D01*
X4439530Y9060565D01*
X4439731Y9060967D01*
X4439932Y9061169D01*
Y9061269D01*
X4440435Y9062878D01*
X4440737Y9064287D01*
Y9064890D01*
X4440838Y9065393D01*
Y9054228D01*
D02*
G37*
G36*
X4426354Y8973359D02*
X4439430D01*
Y8971146D01*
X4373145D01*
X4385215Y8975974D01*
X4375559Y8993476D01*
X4426354D01*
Y8973359D01*
D02*
G37*
G36*
X4385718Y8803875D02*
X4386522Y8803774D01*
X4387327Y8803573D01*
X4387931Y8803372D01*
X4388333Y8803171D01*
X4388635Y8803070D01*
X4388735Y8802969D01*
X4390143Y8802064D01*
X4391350Y8800958D01*
X4391753Y8800555D01*
X4392054Y8800153D01*
X4392256Y8799952D01*
X4392356Y8799851D01*
X4393261Y8798242D01*
X4393966Y8796733D01*
X4394167Y8796029D01*
X4394368Y8795526D01*
X4394468Y8795124D01*
Y8795023D01*
X4394871Y8792911D01*
X4394971Y8791905D01*
X4395072Y8790899D01*
X4395173Y8790095D01*
Y8782853D01*
X4372843D01*
Y8789290D01*
X4372944Y8791905D01*
X4373245Y8794118D01*
X4373648Y8796029D01*
X4374151Y8797538D01*
X4374653Y8798745D01*
X4375056Y8799650D01*
X4375358Y8800153D01*
X4375458Y8800354D01*
X4376565Y8801561D01*
X4377772Y8802467D01*
X4379180Y8803171D01*
X4380588Y8803573D01*
X4381795Y8803875D01*
X4382901Y8803975D01*
X4383203Y8804076D01*
X4383505D01*
X4383706D01*
X4383807D01*
X4384812D01*
X4385718Y8803875D01*
D02*
G37*
G36*
X4417301Y8739300D02*
X4418106Y8739199D01*
X4418810Y8738998D01*
X4419413Y8738797D01*
X4419816Y8738696D01*
X4420117Y8738495D01*
X4420218D01*
X4421727Y8737690D01*
X4422833Y8736785D01*
X4423336Y8736383D01*
X4423638Y8736081D01*
X4423839Y8735880D01*
X4423940Y8735779D01*
X4425046Y8734271D01*
X4425750Y8732862D01*
X4426052Y8732259D01*
X4426253Y8731756D01*
X4426454Y8731354D01*
Y8731253D01*
X4426957Y8729141D01*
X4427058Y8728135D01*
X4427158Y8727129D01*
X4427259Y8726324D01*
Y8714757D01*
X4404527D01*
Y8723910D01*
X4404627Y8726626D01*
X4404929Y8729040D01*
X4405432Y8731052D01*
X4405935Y8732661D01*
X4406539Y8733969D01*
X4406941Y8734874D01*
X4407343Y8735377D01*
X4407444Y8735578D01*
X4408651Y8736886D01*
X4409958Y8737892D01*
X4411266Y8738596D01*
X4412574Y8738998D01*
X4413680Y8739300D01*
X4414686Y8739400D01*
X4415289Y8739501D01*
X4415390D01*
X4415491D01*
X4417301Y8739300D01*
D02*
G37*
G36*
X4383706Y8736785D02*
X4384511Y8736685D01*
X4385114Y8736584D01*
X4385617Y8736383D01*
X4386019Y8736282D01*
X4386321Y8736182D01*
X4386422D01*
X4387729Y8735478D01*
X4388936Y8734773D01*
X4389339Y8734371D01*
X4389640Y8734170D01*
X4389842Y8733969D01*
X4389942Y8733868D01*
X4390948Y8732561D01*
X4391753Y8731253D01*
X4391954Y8730650D01*
X4392155Y8730147D01*
X4392356Y8729845D01*
Y8729744D01*
X4392859Y8727733D01*
X4392960Y8726727D01*
X4393060Y8725822D01*
X4393161Y8724916D01*
Y8714757D01*
X4372239D01*
Y8725017D01*
X4372340Y8726123D01*
X4372441Y8727129D01*
X4372541Y8728034D01*
X4372742Y8728738D01*
X4372843Y8729241D01*
X4372944Y8729543D01*
Y8729644D01*
X4373245Y8730549D01*
X4373547Y8731354D01*
X4373849Y8732058D01*
X4374251Y8732661D01*
X4374452Y8733164D01*
X4374754Y8733466D01*
X4374855Y8733667D01*
X4374955Y8733768D01*
X4375961Y8734773D01*
X4376967Y8735578D01*
X4377470Y8735779D01*
X4377772Y8735980D01*
X4377973Y8736081D01*
X4378073D01*
X4379481Y8736584D01*
X4380789Y8736785D01*
X4381292Y8736886D01*
X4381694D01*
X4381996D01*
X4382097D01*
X4383706Y8736785D01*
D02*
G37*
G36*
X4439430Y8579271D02*
X4415289Y8587016D01*
X4405130Y8589731D01*
X4415088Y8592548D01*
X4439430Y8600393D01*
Y8579271D01*
D02*
G37*
D45*
X4332000Y2249500D02*
D03*
X3468000D02*
D03*
D46*
X4332000Y2667500D02*
D03*
X3468000D02*
D03*
D47*
X4189000Y2617500D02*
D03*
X3611000D02*
D03*
D48*
X4580000Y6850000D02*
D03*
X4072000Y6748500D02*
D03*
Y6951500D02*
D03*
D68*
X4590000Y6090000D02*
D03*
X4490000D02*
D03*
X3450000Y8880000D02*
D03*
X3350000D02*
D03*
Y9230000D02*
D03*
X3450000D02*
D03*
X4280000Y3270000D02*
D03*
X4380000D02*
D03*
X3350000Y6230000D02*
D03*
X3250000D02*
D03*
X4120000Y6590000D02*
D03*
X4220000D02*
D03*
X3250000Y6340000D02*
D03*
X3350000D02*
D03*
D69*
X3900000Y6100000D02*
D03*
D70*
X3947730Y6536638D02*
D03*
X3983085Y6501283D02*
D03*
X4018441Y6465928D02*
D03*
X4053796Y6430572D02*
D03*
X4089151Y6395217D02*
D03*
X4124506Y6359862D02*
D03*
X4159862Y6324506D02*
D03*
X4195217Y6289151D02*
D03*
X4230572Y6253796D02*
D03*
X4265928Y6218440D02*
D03*
X4301283Y6183085D02*
D03*
X4336639Y6147730D02*
D03*
X3852270Y5663362D02*
D03*
X3816915Y5698717D02*
D03*
X3781560Y5734072D02*
D03*
X3746204Y5769428D02*
D03*
X3710849Y5804783D02*
D03*
X3675494Y5840138D02*
D03*
X3640139Y5875494D02*
D03*
X3604783Y5910849D02*
D03*
X3569428Y5946204D02*
D03*
X3534072Y5981560D02*
D03*
X3498717Y6016915D02*
D03*
X3463362Y6052270D02*
D03*
D71*
X4336639D02*
D03*
X4301283Y6016915D02*
D03*
X4265928Y5981560D02*
D03*
X4230572Y5946204D02*
D03*
X4195217Y5910849D02*
D03*
X4159862Y5875494D02*
D03*
X4124506Y5840138D02*
D03*
X4089151Y5804783D02*
D03*
X4053796Y5769428D02*
D03*
X4018440Y5734072D02*
D03*
X3983085Y5698717D02*
D03*
X3947730Y5663362D02*
D03*
X3463362Y6147730D02*
D03*
X3498717Y6183085D02*
D03*
X3534072Y6218440D02*
D03*
X3569428Y6253796D02*
D03*
X3604783Y6289151D02*
D03*
X3640139Y6324506D02*
D03*
X3675494Y6359862D02*
D03*
X3710849Y6395217D02*
D03*
X3746204Y6430572D02*
D03*
X3781560Y6465928D02*
D03*
X3816915Y6501283D02*
D03*
X3852270Y6536638D02*
D03*
D72*
X4453000Y6913500D02*
D03*
Y6786500D02*
D03*
X4326000Y6913500D02*
D03*
Y6786500D02*
D03*
X4199000Y6913500D02*
D03*
Y6786500D02*
D03*
D73*
X3677500Y6607500D02*
D03*
Y6792500D02*
D03*
X3522500Y6607500D02*
D03*
D74*
Y6792500D02*
D03*
D75*
X3900000Y8840000D02*
D03*
D76*
X3795000Y8260000D02*
D03*
X4005000D02*
D03*
D77*
X3490000Y7880000D02*
D03*
X4310000D02*
D03*
X3490000Y7470000D02*
D03*
X4310000D02*
D03*
X3490000Y3430000D02*
D03*
X4310000D02*
D03*
D78*
X4440000Y9520000D02*
D03*
Y9420000D02*
D03*
X3380000Y6690000D02*
D03*
Y6790000D02*
D03*
X4530000Y7680000D02*
D03*
Y7580000D02*
D03*
X3360000Y9520000D02*
D03*
Y9420000D02*
D03*
X3270000Y7370000D02*
D03*
Y7470000D02*
D03*
X3900000Y6860000D02*
D03*
Y6760000D02*
D03*
Y5490000D02*
D03*
Y5390000D02*
D03*
X4530000Y7470000D02*
D03*
Y7370000D02*
D03*
D79*
X4281000Y9544700D02*
D03*
X4027000D02*
D03*
X3773000D02*
D03*
X3519000D02*
D03*
D80*
X3320000Y9050000D02*
D03*
X3480000D02*
D03*
X3440000Y5140000D02*
D03*
X3600000D02*
D03*
X4380000Y7170000D02*
D03*
X4540000D02*
D03*
D81*
X3600000Y3780000D02*
D03*
X3320000D02*
D03*
D82*
Y6950000D02*
D03*
Y7110000D02*
D03*
X3690000Y4400000D02*
D03*
Y4560000D02*
D03*
X3900000Y4400000D02*
D03*
Y4560000D02*
D03*
X4110000D02*
D03*
Y4400000D02*
D03*
X3720000Y5520000D02*
D03*
Y5360000D02*
D03*
X4510000Y5910000D02*
D03*
Y5750000D02*
D03*
D83*
X3335000Y4832500D02*
D03*
X3400000D02*
D03*
X3465000D02*
D03*
Y4607500D02*
D03*
X3400000D02*
D03*
X3335000D02*
D03*
X4335000D02*
D03*
X4400000D02*
D03*
X4465000D02*
D03*
Y4832500D02*
D03*
X4400000D02*
D03*
X4335000D02*
D03*
D84*
X4575000Y8050000D02*
D03*
X4485000D02*
D03*
X4375000D02*
D03*
X4285000D02*
D03*
X3945000Y4120000D02*
D03*
X3855000D02*
D03*
X3245000Y6440000D02*
D03*
X3335000D02*
D03*
X3605000Y2880000D02*
D03*
X3695000D02*
D03*
X4195000D02*
D03*
X4105000D02*
D03*
X3335000Y8460000D02*
D03*
X3245000D02*
D03*
X3465000D02*
D03*
X3555000D02*
D03*
X4125000Y5340000D02*
D03*
X4035000D02*
D03*
X4125000Y5240000D02*
D03*
X4035000D02*
D03*
X3445000Y4960000D02*
D03*
X3355000D02*
D03*
D85*
X4200000Y3005000D02*
D03*
Y3095000D02*
D03*
X3600000Y3005000D02*
D03*
Y3095000D02*
D03*
X3950000Y3005000D02*
D03*
Y3095000D02*
D03*
X3850000Y3005000D02*
D03*
Y3095000D02*
D03*
X3260000Y6695000D02*
D03*
Y6785000D02*
D03*
X4490000Y3430000D02*
D03*
Y3520000D02*
D03*
X4530000Y7880000D02*
D03*
Y7790000D02*
D03*
X4470000Y4345000D02*
D03*
Y4435000D02*
D03*
X3620000Y4735000D02*
D03*
Y4825000D02*
D03*
D86*
X3995000Y3712500D02*
D03*
X3900000D02*
D03*
X3805000D02*
D03*
Y3987500D02*
D03*
X3900000D02*
D03*
X3995000D02*
D03*
D87*
X3787500Y4820500D02*
D03*
X3832500D02*
D03*
X3877500D02*
D03*
X3922500D02*
D03*
X3967500D02*
D03*
X4012500D02*
D03*
X3787500Y5099500D02*
D03*
X3832500D02*
D03*
X3877500D02*
D03*
X3922500D02*
D03*
X3967500D02*
D03*
X4012500D02*
D03*
D88*
X3900000Y4960000D02*
D03*
D89*
X3555000Y7150000D02*
D03*
X3685000D02*
D03*
X4215000D02*
D03*
X4085000D02*
D03*
X3555000Y7000000D02*
D03*
X3685000D02*
D03*
X4190000Y5000000D02*
D03*
X4320000D02*
D03*
D90*
X4290000Y5510000D02*
D03*
X4480000Y5000000D02*
D03*
X3620000Y4960000D02*
D03*
X4320000Y4390000D02*
D03*
X4190000Y4830000D02*
D03*
D91*
X4330000Y4100000D02*
D03*
X3470000D02*
D03*
D92*
X4522500Y8250000D02*
D03*
X4297500Y8185000D02*
D03*
Y8315000D02*
D03*
X3277500Y8250000D02*
D03*
X3502500Y8315000D02*
D03*
Y8185000D02*
D03*
X4227500Y3790000D02*
D03*
X4452500Y3855000D02*
D03*
Y3725000D02*
D03*
X3287500Y4400000D02*
D03*
X3512500Y4465000D02*
D03*
Y4335000D02*
D03*
X4512500Y5250000D02*
D03*
X4287500Y5185000D02*
D03*
Y5315000D02*
D03*
D93*
X3325000Y8623750D02*
D03*
X3375000D02*
D03*
X3425000D02*
D03*
X3475000D02*
D03*
Y8776250D02*
D03*
X3425000D02*
D03*
X3375000D02*
D03*
X3325000D02*
D03*
D94*
X3476250Y8674990D02*
D03*
Y8724990D02*
D03*
X3323750D02*
D03*
Y8674990D02*
D03*
D95*
X3855000Y4240000D02*
D03*
X3945000D02*
D03*
D96*
X3450000Y3095000D02*
D03*
Y3005000D02*
D03*
X3750000Y3095000D02*
D03*
Y3005000D02*
D03*
X4050000Y3095000D02*
D03*
Y3005000D02*
D03*
X4350000Y3095000D02*
D03*
Y3005000D02*
D03*
D97*
X3965000Y7115000D02*
D03*
X3835000D02*
D03*
X3965000Y7185000D02*
D03*
X3835000D02*
D03*
D98*
X3980000Y5910000D02*
D03*
X3820000D02*
D03*
X4160000Y6100000D02*
D03*
X3980000D02*
D03*
X3820000D02*
D03*
X3640000D02*
D03*
X3980000Y6290000D02*
D03*
X3820000D02*
D03*
%TF.MD5,740a4efa4187ad017d741cb1de3f4d25*%
M02*
