%TF.GenerationSoftware,Altium Limited,Altium Designer,24.2.2 (26)*%
G04 Layer_Physical_Order=1*
G04 Layer_Color=255*
%FSLAX45Y45*%
%MOMM*%
%TF.SameCoordinates,505FE19A-96A0-4540-A324-069B6CBC3D10*%
%TF.FilePolarity,Positive*%
%TF.FileFunction,Copper,L1,Top,Signal*%
%TF.Part,Single*%
G01*
G75*
%TA.AperFunction,SMDPad,CuDef*%
%ADD10R,0.72000X0.72000*%
%ADD11P,7.91960X4X360.0*%
G04:AMPARAMS|DCode=12|XSize=0.25mm|YSize=0.85mm|CornerRadius=0mm|HoleSize=0mm|Usage=FLASHONLY|Rotation=315.000|XOffset=0mm|YOffset=0mm|HoleType=Round|Shape=Round|*
%AMOVALD12*
21,1,0.60000,0.25000,0.00000,0.00000,45.0*
1,1,0.25000,-0.21213,-0.21213*
1,1,0.25000,0.21213,0.21213*
%
%ADD12OVALD12*%

G04:AMPARAMS|DCode=13|XSize=0.25mm|YSize=0.85mm|CornerRadius=0mm|HoleSize=0mm|Usage=FLASHONLY|Rotation=45.000|XOffset=0mm|YOffset=0mm|HoleType=Round|Shape=Round|*
%AMOVALD13*
21,1,0.60000,0.25000,0.00000,0.00000,135.0*
1,1,0.25000,0.21213,-0.21213*
1,1,0.25000,-0.21213,0.21213*
%
%ADD13OVALD13*%

%TA.AperFunction,BGAPad,CuDef*%
%ADD14C,0.80000*%
%TA.AperFunction,SMDPad,CuDef*%
%ADD15R,0.90000X1.00000*%
G04:AMPARAMS|DCode=16|XSize=0.9mm|YSize=1mm|CornerRadius=0mm|HoleSize=0mm|Usage=FLASHONLY|Rotation=0.000|XOffset=0mm|YOffset=0mm|HoleType=Round|Shape=Octagon|*
%AMOCTAGOND16*
4,1,8,-0.22500,0.50000,0.22500,0.50000,0.45000,0.27500,0.45000,-0.27500,0.22500,-0.50000,-0.22500,-0.50000,-0.45000,-0.27500,-0.45000,0.27500,-0.22500,0.50000,0.0*
%
%ADD16OCTAGOND16*%

%ADD17R,3.40360X8.99160*%
%ADD18R,1.29540X1.39700*%
%ADD19R,2.00000X1.50000*%
%ADD20R,0.72000X0.72000*%
%ADD21R,1.02000X3.17000*%
%ADD22R,1.30000X1.45000*%
%ADD23R,1.30000X1.80000*%
%ADD24R,1.45000X1.30000*%
%ADD25R,0.40000X0.85000*%
%ADD26R,0.55000X0.55000*%
%ADD27R,0.55000X0.55000*%
%ADD28R,0.60000X1.00000*%
%ADD29R,0.25000X0.95000*%
%ADD30R,2.00000X1.19000*%
%ADD31R,0.80000X0.95000*%
%ADD32C,1.00000*%
%ADD33R,3.80000X2.03000*%
%ADD34R,0.90000X0.50000*%
%ADD35R,0.25000X0.27500*%
%ADD36R,0.27500X0.25000*%
%ADD37R,0.50000X0.70000*%
%ADD38R,0.70000X0.50000*%
%ADD39R,0.50000X0.40000*%
%TA.AperFunction,Conductor*%
%ADD40C,0.40000*%
%ADD41C,0.20000*%
%ADD42C,0.25000*%
%ADD43C,0.60000*%
%ADD44C,0.80000*%
%TA.AperFunction,ComponentPad*%
G04:AMPARAMS|DCode=45|XSize=1mm|YSize=1.8mm|CornerRadius=0.5mm|HoleSize=0mm|Usage=FLASHONLY|Rotation=180.000|XOffset=0mm|YOffset=0mm|HoleType=Round|Shape=RoundedRectangle|*
%AMROUNDEDRECTD45*
21,1,1.00000,0.80000,0,0,180.0*
21,1,0.00000,1.80000,0,0,180.0*
1,1,1.00000,0.00000,0.40000*
1,1,1.00000,0.00000,0.40000*
1,1,1.00000,0.00000,-0.40000*
1,1,1.00000,0.00000,-0.40000*
%
%ADD45ROUNDEDRECTD45*%
G04:AMPARAMS|DCode=46|XSize=1mm|YSize=2.1mm|CornerRadius=0.5mm|HoleSize=0mm|Usage=FLASHONLY|Rotation=180.000|XOffset=0mm|YOffset=0mm|HoleType=Round|Shape=RoundedRectangle|*
%AMROUNDEDRECTD46*
21,1,1.00000,1.10000,0,0,180.0*
21,1,0.00000,2.10000,0,0,180.0*
1,1,1.00000,0.00000,0.55000*
1,1,1.00000,0.00000,0.55000*
1,1,1.00000,0.00000,-0.55000*
1,1,1.00000,0.00000,-0.55000*
%
%ADD46ROUNDEDRECTD46*%
%ADD47C,0.65000*%
%ADD48C,1.00000*%
%TA.AperFunction,ViaPad*%
%ADD49C,0.50000*%
%ADD50C,0.60000*%
G36*
X4024730Y10890845D02*
X4106542Y10874571D01*
X4186371Y10850355D01*
X4263440Y10818433D01*
X4337011Y10779108D01*
X4406372Y10732763D01*
X4470855Y10679842D01*
X4529843Y10620855D01*
X4582763Y10556372D01*
X4629108Y10487011D01*
X4668432Y10413442D01*
X4700355Y10336372D01*
X4724571Y10256542D01*
X4740845Y10174729D01*
X4749022Y10091709D01*
Y10050000D01*
Y8238615D01*
X4737288Y8233755D01*
X4680400Y8290644D01*
Y8300025D01*
X4672727Y8318549D01*
X4658549Y8332727D01*
X4640025Y8340400D01*
X4619975D01*
X4601451Y8332727D01*
X4587273Y8318549D01*
X4579755Y8300400D01*
X4467065D01*
X4460400Y8310375D01*
Y8330425D01*
X4452727Y8348949D01*
X4438549Y8363127D01*
X4420025Y8370800D01*
X4399975D01*
X4381451Y8363127D01*
X4380600Y8362276D01*
X4367900Y8363671D01*
Y8365400D01*
X4227100D01*
Y8296289D01*
X4095170D01*
Y8352490D01*
X4095580Y8364997D01*
X4095581Y8365020D01*
X4095580D01*
Y9291044D01*
X4108280Y9298410D01*
X4122287Y9295624D01*
X4122288Y9295624D01*
X4165433D01*
X4179975Y9289600D01*
X4200025D01*
X4209949Y9293711D01*
X4359999D01*
X4360000Y9293710D01*
X4377714Y9297234D01*
X4392732Y9307268D01*
X4444063Y9358600D01*
X4501400D01*
Y9458600D01*
Y9507300D01*
X4378600D01*
Y9458600D01*
Y9424063D01*
X4369133Y9414597D01*
X4357400Y9419457D01*
Y9532000D01*
X4281001D01*
X4204600D01*
Y9393457D01*
X4200025Y9390400D01*
X4179975D01*
X4174670Y9388203D01*
X4141461D01*
X4103400Y9426264D01*
Y9728600D01*
X3950600D01*
Y9360800D01*
X4037937D01*
X4072023Y9326713D01*
X4067163Y9314980D01*
X3732837D01*
X3727977Y9326713D01*
X3762063Y9360800D01*
X3849400D01*
Y9728600D01*
X3696600D01*
Y9426263D01*
X3546626Y9276290D01*
X3511400D01*
Y9291400D01*
X3452561D01*
X3449522Y9295949D01*
X3398604Y9346867D01*
X3403464Y9358600D01*
X3421400D01*
Y9373710D01*
X3442600D01*
Y9360800D01*
X3595400D01*
Y9728600D01*
X3442600D01*
Y9466289D01*
X3421400D01*
Y9507300D01*
X3298600D01*
Y9456093D01*
X3220000D01*
X3206188Y9453346D01*
X3194478Y9445522D01*
X3062712Y9313756D01*
X3050978Y9318616D01*
Y10050000D01*
Y10091709D01*
X3059155Y10174730D01*
X3075429Y10256542D01*
X3099644Y10336371D01*
X3131567Y10413440D01*
X3170892Y10487011D01*
X3217237Y10556372D01*
X3270157Y10620855D01*
X3329144Y10679842D01*
X3393628Y10732763D01*
X3462989Y10779108D01*
X3536558Y10818432D01*
X3613628Y10850355D01*
X3693458Y10874571D01*
X3775270Y10890845D01*
X3858291Y10899022D01*
X3941708D01*
X4024730Y10890845D01*
D02*
G37*
G36*
X3288600Y9291400D02*
X3288600D01*
Y9242700D01*
X3350000D01*
Y9230000D01*
X3362700D01*
Y9168600D01*
X3511400D01*
Y9183711D01*
X3565799D01*
X3565800Y9183710D01*
X3583514Y9187234D01*
X3598532Y9197268D01*
X3692687Y9291423D01*
X3704420Y9286563D01*
Y8365020D01*
X3704420D01*
X3704421Y8364997D01*
X3704830Y8352490D01*
Y8319284D01*
X3692130Y8310798D01*
X3681020Y8315400D01*
X3658980D01*
X3638619Y8306966D01*
X3623034Y8291381D01*
X3614600Y8271020D01*
Y8248980D01*
X3623034Y8228619D01*
X3638619Y8213034D01*
X3658980Y8204600D01*
X3681020D01*
X3692130Y8209202D01*
X3704830Y8200716D01*
Y8186289D01*
X3589174D01*
X3572900Y8202564D01*
Y8235400D01*
X3432100D01*
Y8134600D01*
X3503027D01*
X3507500Y8133710D01*
X3507501Y8133710D01*
X3510826D01*
X3537268Y8107269D01*
X3537269Y8107268D01*
X3552286Y8097234D01*
X3570000Y8093711D01*
X3884999D01*
X3885000Y8093710D01*
X3902714Y8097234D01*
X3917732Y8107268D01*
X3975213Y8164750D01*
X4095170D01*
Y8203711D01*
X4227100D01*
Y8197700D01*
X4297500D01*
X4367900D01*
Y8203711D01*
X4452100D01*
Y8199600D01*
X4579600D01*
Y8189975D01*
X4587273Y8171451D01*
X4601451Y8157273D01*
X4619975Y8149600D01*
X4629356D01*
X4683907Y8095050D01*
Y7659149D01*
X4672173Y7654289D01*
X4620940Y7705522D01*
X4609231Y7713346D01*
X4595418Y7716093D01*
X4591400D01*
Y7741400D01*
X4582900D01*
Y7777300D01*
X4530000D01*
Y7802700D01*
X4582900D01*
Y7827100D01*
Y7932900D01*
X4517036D01*
X4514510Y7945600D01*
X4518549Y7947273D01*
X4532727Y7961451D01*
X4540400Y7979975D01*
Y7997100D01*
X4562301D01*
Y8050000D01*
Y8102900D01*
X4432101D01*
Y8102900D01*
X4427899D01*
Y8102900D01*
X4232100D01*
Y8096289D01*
X4209949D01*
X4200025Y8100400D01*
X4179975D01*
X4161451Y8092727D01*
X4147273Y8078549D01*
X4139600Y8060025D01*
Y8039975D01*
X4147273Y8021451D01*
X4161451Y8007273D01*
X4179975Y7999600D01*
X4200025D01*
X4209949Y8003710D01*
X4232100D01*
Y7997100D01*
X4427899D01*
X4427900Y7997100D01*
X4428714Y7996932D01*
X4430685Y7993100D01*
X4429166Y7988003D01*
X4422936Y7980400D01*
X4184600D01*
Y7779600D01*
X4349029D01*
X4357268Y7767268D01*
X4461268Y7663269D01*
X4461268Y7663268D01*
X4468600Y7658369D01*
Y7518600D01*
Y7482700D01*
X4530000D01*
Y7457300D01*
X4468600D01*
Y7408600D01*
Y7337276D01*
X4466918D01*
X4449204Y7333753D01*
X4434187Y7323718D01*
X4434186Y7323718D01*
X4392269Y7281800D01*
X4382981Y7267900D01*
X4289600D01*
Y7265579D01*
X4279040Y7258523D01*
X4274625Y7260352D01*
X4254575D01*
X4236051Y7252679D01*
X4221873Y7238502D01*
X4215745Y7223708D01*
X4214937Y7222900D01*
X4019601D01*
X4015400Y7230400D01*
X4004221D01*
X4002766Y7237714D01*
X3992732Y7252732D01*
X3992731Y7252732D01*
X3922732Y7322732D01*
X3907715Y7332766D01*
X3890000Y7336290D01*
X3889999Y7336289D01*
X3750001D01*
X3750000Y7336290D01*
X3732286Y7332766D01*
X3717268Y7322732D01*
X3717268Y7322731D01*
X3672268Y7277732D01*
X3662234Y7262714D01*
X3658710Y7245000D01*
X3658711Y7244999D01*
Y7222900D01*
X3559609D01*
X3553127Y7238549D01*
X3538949Y7252727D01*
X3520425Y7260400D01*
X3500375D01*
X3496653Y7258858D01*
X3486093Y7265914D01*
Y7369600D01*
X3615400D01*
Y7543907D01*
X3864817D01*
X3871451Y7537273D01*
X3889975Y7529600D01*
X3910025D01*
X3928549Y7537273D01*
X3942727Y7551451D01*
X3950400Y7569975D01*
Y7590025D01*
X3942727Y7608549D01*
X3928549Y7622727D01*
X3910025Y7630400D01*
X3889975D01*
X3871451Y7622727D01*
X3864817Y7616093D01*
X3705914D01*
X3698858Y7626653D01*
X3700400Y7630375D01*
Y7650425D01*
X3692727Y7668949D01*
X3678549Y7683127D01*
X3660025Y7690800D01*
X3639975D01*
X3621451Y7683127D01*
X3614817Y7676493D01*
X3445914D01*
X3438859Y7687053D01*
X3440400Y7690775D01*
Y7710825D01*
X3432727Y7729349D01*
X3418549Y7743527D01*
X3400025Y7751200D01*
X3379975D01*
X3361451Y7743527D01*
X3354817Y7736893D01*
X3280800D01*
X3266988Y7734146D01*
X3255278Y7726322D01*
X3137827Y7608870D01*
X3126093Y7613731D01*
Y8216037D01*
X3131629Y8218718D01*
X3138793Y8219930D01*
X3151451Y8207273D01*
X3169975Y8199600D01*
X3190025D01*
X3194400Y8201412D01*
X3207100Y8199600D01*
Y8199600D01*
X3347900D01*
Y8274231D01*
X3359633Y8279091D01*
X3361451Y8277273D01*
X3379975Y8269600D01*
X3400025D01*
X3418549Y8277273D01*
X3420367Y8279091D01*
X3432100Y8274230D01*
Y8264600D01*
X3572900D01*
Y8365400D01*
X3503901D01*
X3497112Y8378100D01*
X3500846Y8383688D01*
X3503593Y8397500D01*
Y8407100D01*
X3607900D01*
Y8512900D01*
X3607900D01*
X3606730Y8514651D01*
X3607900Y8517475D01*
Y8537525D01*
X3600227Y8556049D01*
X3586049Y8570227D01*
X3567525Y8577900D01*
X3547475D01*
X3528951Y8570227D01*
X3523793Y8565069D01*
X3511093Y8570330D01*
Y8584600D01*
X3512900D01*
Y8637090D01*
X3515400D01*
Y8662290D01*
X3512905D01*
Y8662905D01*
X3476250D01*
Y8687690D01*
X3515400D01*
Y8712289D01*
X3476249D01*
Y8737689D01*
X3515400D01*
Y8762890D01*
X3512900D01*
Y8763551D01*
X3475000D01*
Y8788951D01*
X3512900D01*
Y8815400D01*
X3512900D01*
X3511400Y8818600D01*
Y8867301D01*
X3449999D01*
Y8892701D01*
X3511400D01*
Y8941400D01*
X3516228Y8952100D01*
X3570400D01*
Y9037300D01*
X3480000D01*
Y9050000D01*
X3467300D01*
Y9147900D01*
X3229600D01*
Y8952100D01*
X3283772D01*
X3288600Y8941400D01*
Y8840637D01*
X3275900Y8835376D01*
X3268549Y8842727D01*
X3250025Y8850400D01*
X3229975D01*
X3211451Y8842727D01*
X3197273Y8828549D01*
X3189600Y8810025D01*
Y8789975D01*
X3190250Y8788407D01*
X3181725Y8775800D01*
X3169975D01*
X3151451Y8768127D01*
X3138793Y8755469D01*
X3131629Y8756682D01*
X3126093Y8759363D01*
Y9095050D01*
X3170644Y9139600D01*
X3180025D01*
X3198549Y9147273D01*
X3212727Y9161451D01*
X3220400Y9179975D01*
Y9200025D01*
X3212727Y9218549D01*
X3198549Y9232727D01*
X3191588Y9235610D01*
X3189110Y9248066D01*
X3244951Y9303907D01*
X3288133D01*
X3288600Y9291400D01*
D02*
G37*
G36*
X3364600Y7369600D02*
X3413907D01*
Y7200400D01*
X3332700D01*
Y7110000D01*
X3307300D01*
Y7200400D01*
X3222100D01*
X3216093Y7210612D01*
Y7308600D01*
X3257300D01*
Y7370000D01*
X3270000D01*
Y7382700D01*
X3331400D01*
Y7423711D01*
X3364600D01*
Y7369600D01*
D02*
G37*
G36*
X4643907Y7316437D02*
Y7030000D01*
X4491276D01*
X4478549Y7042727D01*
X4460025Y7050400D01*
X4439975D01*
X4421451Y7042727D01*
X4408724Y7030000D01*
X4341044D01*
X4310677Y7060367D01*
X4315538Y7072100D01*
X4527300D01*
Y7170000D01*
X4540000D01*
Y7182700D01*
X4630400D01*
Y7267900D01*
X4567309D01*
X4560253Y7278460D01*
X4562082Y7282875D01*
Y7302925D01*
X4565874Y7308600D01*
X4591400D01*
Y7314138D01*
X4599575Y7319600D01*
X4619625D01*
X4631206Y7324397D01*
X4643907Y7316437D01*
D02*
G37*
G36*
X3392700Y6628600D02*
X3441400D01*
X3452100Y6623772D01*
Y6620200D01*
X3522500D01*
Y6607500D01*
X3535200D01*
Y6532100D01*
X3561407D01*
Y6406231D01*
X3549673Y6401370D01*
X3488022Y6463022D01*
X3476312Y6470846D01*
X3462500Y6473594D01*
X3387900D01*
Y6492900D01*
X3291290D01*
Y6530013D01*
X3292727Y6531451D01*
X3300400Y6549975D01*
Y6551451D01*
X3302766Y6554992D01*
X3306290Y6572706D01*
X3306290Y6572707D01*
Y6627660D01*
X3318600Y6628600D01*
Y6628600D01*
X3367300D01*
Y6690001D01*
X3392700D01*
Y6628600D01*
D02*
G37*
G36*
X4510000Y6203907D02*
X4714419D01*
X4721052Y6197273D01*
X4739576Y6189600D01*
X4749022D01*
Y5629557D01*
X4739576D01*
X4721052Y5621884D01*
X4714419Y5615250D01*
X4515867D01*
X4483251Y5647867D01*
X4488111Y5659600D01*
X4497300D01*
Y5750000D01*
X4510000D01*
Y5762700D01*
X4607900D01*
Y5819600D01*
Y6000400D01*
X4560400D01*
Y6010025D01*
X4557966Y6015900D01*
X4566452Y6028600D01*
X4577300D01*
Y6090000D01*
Y6151400D01*
X4480637D01*
X4475376Y6164100D01*
X4482727Y6171451D01*
X4490400Y6189975D01*
Y6195842D01*
X4490886Y6196749D01*
X4503100Y6205279D01*
X4510000Y6203907D01*
D02*
G37*
G36*
X4721052Y5536430D02*
X4739576Y5528757D01*
X4749022D01*
Y2850000D01*
Y2808291D01*
X4740845Y2725270D01*
X4724571Y2643458D01*
X4700356Y2563628D01*
X4668433Y2486560D01*
X4629108Y2412989D01*
X4582763Y2343627D01*
X4529843Y2279144D01*
X4470855Y2220157D01*
X4411645Y2171565D01*
X4401130Y2179364D01*
X4405459Y2189817D01*
X4408051Y2209500D01*
Y2289500D01*
X4405459Y2309183D01*
X4397964Y2327278D01*
Y2574722D01*
X4405459Y2592816D01*
X4408051Y2612499D01*
Y2722500D01*
X4405459Y2742183D01*
X4397862Y2760525D01*
X4385776Y2776276D01*
X4370025Y2788361D01*
X4351683Y2795959D01*
X4332000Y2798550D01*
X4312316Y2795959D01*
X4293975Y2788361D01*
X4278224Y2776276D01*
X4266138Y2760525D01*
X4258541Y2742183D01*
X4255949Y2722500D01*
Y2667500D01*
X4010875D01*
X4006226Y2669425D01*
X3986176D01*
X3981527Y2667500D01*
X3905257D01*
X3903951Y2668806D01*
X3885426Y2676479D01*
X3865376D01*
X3846852Y2668806D01*
X3845545Y2667500D01*
X3544051D01*
Y2722500D01*
X3541460Y2742183D01*
X3533862Y2760525D01*
X3521776Y2776276D01*
X3506025Y2788361D01*
X3487930Y2795857D01*
X3285964Y2997823D01*
Y3627677D01*
X3322888Y3664600D01*
X3410400D01*
Y3895400D01*
X3229600D01*
Y3757888D01*
X3173356Y3701644D01*
X3162873Y3687982D01*
X3156283Y3672073D01*
X3154036Y3655000D01*
Y2970500D01*
X3156283Y2953427D01*
X3162873Y2937518D01*
X3173356Y2923856D01*
X3391950Y2705263D01*
Y2612499D01*
X3394541Y2592816D01*
X3402036Y2574722D01*
Y2327278D01*
X3394541Y2309183D01*
X3391950Y2289500D01*
Y2209500D01*
X3394541Y2189817D01*
X3398871Y2179363D01*
X3388355Y2171564D01*
X3329144Y2220157D01*
X3270157Y2279144D01*
X3217237Y2343628D01*
X3170892Y2412989D01*
X3131568Y2486558D01*
X3099645Y2563628D01*
X3075429Y2643458D01*
X3059155Y2725270D01*
X3050978Y2808291D01*
Y2850000D01*
Y5283856D01*
X3059575Y5289600D01*
X3079625D01*
X3089549Y5293711D01*
X3440053D01*
X3484130Y5249633D01*
X3479270Y5237900D01*
X3452700D01*
Y5140000D01*
X3440000D01*
Y5127300D01*
X3349600D01*
Y5066093D01*
X3335183D01*
X3328549Y5072727D01*
X3310025Y5080400D01*
X3289975D01*
X3271451Y5072727D01*
X3257273Y5058549D01*
X3249600Y5040025D01*
Y5019975D01*
X3257273Y5001451D01*
X3271451Y4987273D01*
X3289975Y4979600D01*
X3291637D01*
X3298372Y4966900D01*
X3292234Y4957714D01*
X3288710Y4940000D01*
X3288710Y4939999D01*
Y4832500D01*
X3289600Y4828028D01*
Y4764601D01*
X3289599Y4764600D01*
X3289600D01*
X3290624Y4751900D01*
X3287273Y4748549D01*
X3279600Y4730025D01*
Y4709975D01*
X3287273Y4691451D01*
X3290624Y4688100D01*
X3289600Y4675400D01*
X3289600D01*
Y4539600D01*
X3387796D01*
X3392656Y4527867D01*
X3315883Y4451093D01*
X3302500D01*
X3299014Y4450400D01*
X3217100D01*
Y4349600D01*
X3230363D01*
X3233887Y4343965D01*
X3236590Y4336900D01*
X3229600Y4320025D01*
Y4299975D01*
X3237273Y4281451D01*
X3251451Y4267273D01*
X3269975Y4259600D01*
X3290025D01*
X3308549Y4267273D01*
X3322727Y4281451D01*
X3330400Y4299975D01*
Y4320025D01*
X3323410Y4336900D01*
X3326113Y4343965D01*
X3329637Y4349600D01*
X3357900D01*
Y4391023D01*
X3430367Y4463490D01*
X3442100Y4458629D01*
Y4414600D01*
X3582900D01*
X3591952Y4406287D01*
Y4394207D01*
X3582695Y4385400D01*
X3442100D01*
Y4284600D01*
X3517437D01*
X3548750Y4253287D01*
X3552860Y4243364D01*
X3556624Y4239600D01*
X3551363Y4226900D01*
X3482700D01*
Y4100000D01*
Y3973100D01*
X3685400D01*
Y4081565D01*
X3695960Y4088621D01*
X3700375Y4086792D01*
X3719600D01*
Y4069975D01*
X3727273Y4051451D01*
X3741451Y4037273D01*
X3748907Y4034185D01*
Y4007500D01*
X3749600Y4004014D01*
Y3912100D01*
X3887300D01*
Y3987500D01*
X3912700D01*
Y3912100D01*
X4050400D01*
Y4004014D01*
X4051093Y4007500D01*
Y4034185D01*
X4058549Y4037273D01*
X4072727Y4051451D01*
X4080400Y4069975D01*
Y4090025D01*
X4072727Y4108549D01*
X4058549Y4122727D01*
X4040025Y4130400D01*
X4019975D01*
X4010600Y4126517D01*
X3997900Y4135002D01*
Y4167935D01*
X3997900Y4172899D01*
X3997900D01*
X3995400Y4179600D01*
X3997663Y4187567D01*
X4009975Y4194200D01*
X4030025D01*
X4048549Y4201873D01*
X4062727Y4216051D01*
X4070400Y4234575D01*
Y4254625D01*
X4068859Y4258347D01*
X4075914Y4268907D01*
X4190050D01*
X4220323Y4238633D01*
X4215463Y4226900D01*
X4114600D01*
Y3973100D01*
X4133210D01*
X4134600Y3971019D01*
Y3948980D01*
X4143034Y3928619D01*
X4158619Y3913034D01*
X4178980Y3904600D01*
X4201020D01*
X4221381Y3913034D01*
X4236966Y3928619D01*
X4245400Y3948980D01*
Y3971019D01*
X4246790Y3973100D01*
X4413210D01*
X4414600Y3971019D01*
Y3948980D01*
X4423034Y3928619D01*
X4433553Y3918100D01*
X4428292Y3905400D01*
X4382100D01*
Y3826093D01*
X4297900D01*
Y3840400D01*
X4157100D01*
Y3739600D01*
X4297900D01*
Y3753907D01*
X4382100D01*
Y3740063D01*
X4277268Y3635232D01*
X4267234Y3620215D01*
X4263710Y3602500D01*
X4263711Y3602499D01*
Y3530400D01*
X4184600D01*
Y3329600D01*
X4218600D01*
Y3316290D01*
X4159949D01*
X4150025Y3320400D01*
X4129975D01*
X4120051Y3316290D01*
X3694174D01*
X3615400Y3395063D01*
Y3530400D01*
X3364600D01*
Y3329600D01*
X3549937D01*
X3642268Y3237269D01*
X3642268Y3237268D01*
X3657286Y3227234D01*
X3675000Y3223710D01*
X3675001Y3223711D01*
X3775841D01*
X3778184Y3219123D01*
X3779734Y3211011D01*
X3767273Y3198549D01*
X3759600Y3180025D01*
Y3159975D01*
X3761263Y3155960D01*
X3754207Y3145400D01*
X3689600D01*
Y3107700D01*
X3750000D01*
Y3082300D01*
X3689600D01*
Y3044600D01*
Y2954600D01*
X3738292D01*
X3743553Y2941900D01*
X3734553Y2932900D01*
X3617700D01*
Y2880000D01*
Y2827100D01*
X3674600D01*
Y2808740D01*
X3682273Y2790215D01*
X3696451Y2776038D01*
X3714975Y2768365D01*
X3735025D01*
X3753549Y2776038D01*
X3767727Y2790215D01*
X3775400Y2808740D01*
Y2828790D01*
X3774112Y2831900D01*
X3782597Y2844600D01*
X3791020D01*
X3811382Y2853034D01*
X3826966Y2868619D01*
X3835400Y2888980D01*
Y2911020D01*
X3826966Y2931381D01*
X3818947Y2939400D01*
X3824208Y2952100D01*
X3945792D01*
X3951053Y2939400D01*
X3943034Y2931381D01*
X3934600Y2911020D01*
Y2888980D01*
X3943034Y2868619D01*
X3958618Y2853034D01*
X3968441Y2848966D01*
X3973301Y2837232D01*
X3971085Y2831881D01*
Y2811831D01*
X3978758Y2793306D01*
X3992935Y2779129D01*
X4011459Y2771456D01*
X4031510D01*
X4050034Y2779129D01*
X4064211Y2793306D01*
X4071884Y2811831D01*
Y2821212D01*
X4077773Y2827100D01*
X4182300D01*
Y2880000D01*
Y2932900D01*
X4052100D01*
Y2928031D01*
X4039400Y2925505D01*
X4036966Y2931381D01*
X4026447Y2941900D01*
X4031708Y2954600D01*
X4110400D01*
Y3044600D01*
Y3082300D01*
X4050000D01*
Y3107700D01*
X4110400D01*
Y3145400D01*
X4045793D01*
X4038737Y3155960D01*
X4040400Y3159975D01*
Y3180025D01*
X4032727Y3198549D01*
X4020266Y3211011D01*
X4021816Y3219123D01*
X4024159Y3223711D01*
X4120051D01*
X4129975Y3219600D01*
X4150025D01*
X4159949Y3223711D01*
X4190848D01*
X4193374Y3211011D01*
X4178262Y3204751D01*
X4164085Y3190574D01*
X4156412Y3172049D01*
Y3151999D01*
X4153672Y3147900D01*
X4147100D01*
Y3042100D01*
Y2952100D01*
X4252900D01*
Y2968907D01*
X4289600D01*
Y2954600D01*
X4410400D01*
Y3044600D01*
Y3082300D01*
X4350000D01*
X4289600D01*
Y3041093D01*
X4252900D01*
Y3141590D01*
X4257211Y3151999D01*
Y3172049D01*
X4249538Y3190574D01*
X4244212Y3195900D01*
X4249472Y3208600D01*
X4441400D01*
Y3331400D01*
X4436485D01*
Y3365000D01*
X4447467Y3373515D01*
X4490000D01*
X4508025Y3377100D01*
X4542900D01*
Y3411975D01*
X4546485Y3430000D01*
X4542900Y3448025D01*
Y3572900D01*
X4526093D01*
Y3605672D01*
X4532234D01*
X4550758Y3613346D01*
X4564936Y3627523D01*
X4572609Y3646047D01*
Y3666098D01*
X4564936Y3684622D01*
X4550758Y3698799D01*
X4532234Y3706472D01*
X4522900D01*
Y3753907D01*
X4530000D01*
X4543812Y3756654D01*
X4555522Y3764478D01*
X4615522Y3824478D01*
X4623346Y3836188D01*
X4626094Y3850000D01*
X4626093Y3850001D01*
Y4180000D01*
Y4350000D01*
Y4490000D01*
Y5172500D01*
X4623346Y5186312D01*
X4615522Y5198022D01*
X4582900Y5230644D01*
Y5300400D01*
X4442100D01*
Y5199600D01*
X4511856D01*
X4553907Y5157550D01*
Y5048190D01*
X4541207Y5044787D01*
X4540335Y5046296D01*
X4526297Y5060335D01*
X4509103Y5070262D01*
X4489927Y5075400D01*
X4470073D01*
X4450897Y5070262D01*
X4433703Y5060335D01*
X4419665Y5046296D01*
X4419661Y5046289D01*
X4385400D01*
Y5072900D01*
X4246485D01*
Y5090000D01*
X4245400Y5095456D01*
Y5101020D01*
X4243271Y5106160D01*
X4242186Y5111616D01*
X4239095Y5116241D01*
X4236966Y5121381D01*
X4236447Y5121900D01*
X4240750Y5133216D01*
X4242103Y5134600D01*
X4357900D01*
Y5235400D01*
X4217100D01*
Y5153058D01*
X4216723Y5152310D01*
X4209175Y5145851D01*
X4204400Y5144000D01*
X4201020Y5145400D01*
X4195456D01*
X4190000Y5146485D01*
X4184544Y5145400D01*
X4178980D01*
X4173840Y5143271D01*
X4168384Y5142186D01*
X4163758Y5139095D01*
X4158619Y5136966D01*
X4154685Y5133032D01*
X4150059Y5129941D01*
X4146968Y5125315D01*
X4143034Y5121381D01*
X4140905Y5116241D01*
X4137814Y5111616D01*
X4136729Y5106160D01*
X4134600Y5101020D01*
Y5095456D01*
X4133515Y5090000D01*
Y5072900D01*
X4124600D01*
Y4965053D01*
X4114040Y4957997D01*
X4111790Y4958929D01*
X4091740D01*
X4073215Y4951256D01*
X4059038Y4937079D01*
X4051365Y4918554D01*
Y4905700D01*
X4050780Y4898248D01*
X4039733Y4893400D01*
X4025400D01*
Y4947300D01*
X3900000D01*
Y4972700D01*
X4025400D01*
Y5026600D01*
X4050400D01*
Y5086800D01*
X4012500D01*
Y5112200D01*
X4050400D01*
Y5172400D01*
X4050400D01*
X4044963Y5185100D01*
X4046300Y5187100D01*
X4112300D01*
Y5240000D01*
X4125000D01*
Y5252700D01*
X4177900D01*
Y5287100D01*
Y5327300D01*
X4125000D01*
Y5340000D01*
X4112300D01*
Y5392900D01*
X4026553D01*
X4021293Y5405600D01*
X4027144Y5411451D01*
X4033368Y5426479D01*
X4049975Y5419600D01*
X4070025D01*
X4088549Y5427273D01*
X4102727Y5441451D01*
X4110400Y5459975D01*
Y5463202D01*
X4119975Y5469600D01*
X4139600D01*
Y5459975D01*
X4147273Y5441451D01*
X4161451Y5427273D01*
X4179975Y5419600D01*
X4200025D01*
X4218549Y5427273D01*
X4232727Y5441451D01*
X4233600Y5443558D01*
X4248685Y5446789D01*
X4260897Y5439738D01*
X4280073Y5434600D01*
X4299927D01*
X4319103Y5439738D01*
X4336297Y5449665D01*
X4350335Y5463703D01*
X4351618Y5465926D01*
X4361851Y5467273D01*
X4380375Y5459600D01*
X4390595D01*
X4395856Y5446900D01*
X4315050Y5366093D01*
X4302500D01*
X4299014Y5365400D01*
X4217100D01*
Y5264600D01*
X4357900D01*
Y5306856D01*
X4485522Y5434478D01*
X4493346Y5446188D01*
X4496093Y5460000D01*
Y5539105D01*
X4500917Y5543064D01*
X4714419D01*
X4721052Y5536430D01*
D02*
G37*
G36*
X3414479Y5614478D02*
X3426188Y5606654D01*
X3440000Y5603906D01*
X3614817D01*
X3621451Y5597273D01*
X3622100Y5597004D01*
Y5429600D01*
Y5372700D01*
X3720000D01*
X3817900D01*
Y5429600D01*
Y5596113D01*
X3827717Y5604170D01*
X3831057Y5603506D01*
X3841010Y5605486D01*
X3846792Y5601892D01*
X3853034Y5591381D01*
X3844600Y5571020D01*
Y5551400D01*
X3838600D01*
Y5428600D01*
Y5402700D01*
X3900000D01*
Y5390000D01*
X3912700D01*
Y5328600D01*
X3950029D01*
X3955290Y5315900D01*
X3895176Y5255786D01*
X3886799Y5243250D01*
X3883858Y5228462D01*
Y5218206D01*
X3872125Y5213345D01*
X3869948Y5215522D01*
X3858238Y5223346D01*
X3844426Y5226093D01*
X3765183D01*
X3758549Y5232727D01*
X3740025Y5240400D01*
X3719975D01*
X3703100Y5233410D01*
X3690400Y5237900D01*
Y5237900D01*
X3601289D01*
Y5244227D01*
X3597766Y5261941D01*
X3587731Y5276958D01*
X3587731Y5276959D01*
X3491958Y5372732D01*
X3476941Y5382766D01*
X3459227Y5386290D01*
X3459225Y5386289D01*
X3089549D01*
X3079625Y5390400D01*
X3059575D01*
X3050978Y5396144D01*
Y5961385D01*
X3062712Y5966245D01*
X3414479Y5614478D01*
D02*
G37*
G36*
X4553907Y4951810D02*
Y4593731D01*
X4542173Y4588871D01*
X4530485Y4600559D01*
X4518776Y4608383D01*
X4510400Y4610049D01*
Y4675400D01*
X4412701D01*
Y4607500D01*
Y4539600D01*
X4471699D01*
X4475000Y4538943D01*
X4490013D01*
X4553907Y4475050D01*
Y4453731D01*
X4542173Y4448871D01*
X4541306Y4449738D01*
X4529596Y4457562D01*
X4522900Y4458894D01*
Y4487900D01*
X4417100D01*
Y4382100D01*
Y4357700D01*
X4469999D01*
Y4345000D01*
X4482699D01*
Y4292100D01*
X4522900D01*
Y4349463D01*
X4534633Y4354324D01*
X4553907Y4335050D01*
Y4277478D01*
X4541206Y4267055D01*
X4538500Y4267593D01*
X4375914D01*
X4368858Y4278153D01*
X4370400Y4281875D01*
Y4301925D01*
X4362727Y4320449D01*
X4363746Y4328193D01*
X4366297Y4329665D01*
X4380335Y4343704D01*
X4390262Y4360897D01*
X4395400Y4380074D01*
Y4399927D01*
X4390262Y4419103D01*
X4380335Y4436297D01*
X4366297Y4450335D01*
X4366289Y4450339D01*
Y4539600D01*
X4387301D01*
Y4607500D01*
Y4675400D01*
X4289600D01*
Y4611972D01*
X4288710Y4607500D01*
Y4606289D01*
X4207900D01*
Y4646606D01*
X4208145Y4646851D01*
X4215818Y4665375D01*
Y4685425D01*
X4208145Y4703949D01*
X4193967Y4718127D01*
X4175443Y4725800D01*
X4166062D01*
X4130540Y4761322D01*
X4118830Y4769146D01*
X4105018Y4771893D01*
X4050400D01*
Y4789213D01*
X4057855D01*
X4072643Y4792154D01*
X4085180Y4800531D01*
X4102469Y4817820D01*
X4116308Y4813699D01*
X4119738Y4800897D01*
X4129665Y4783703D01*
X4143703Y4769665D01*
X4160897Y4759738D01*
X4180073Y4754600D01*
X4199927D01*
X4219103Y4759738D01*
X4236297Y4769665D01*
X4250335Y4783703D01*
X4260262Y4800897D01*
X4265400Y4820073D01*
Y4839927D01*
X4260262Y4859103D01*
X4250335Y4876297D01*
X4236297Y4890335D01*
X4236289Y4890339D01*
Y4927100D01*
X4288710D01*
Y4832500D01*
X4289600Y4828028D01*
Y4764600D01*
X4510400D01*
Y4900400D01*
X4381289D01*
Y4927100D01*
X4385400D01*
Y4953710D01*
X4419661D01*
X4419665Y4953703D01*
X4433703Y4939665D01*
X4450897Y4929738D01*
X4470073Y4924600D01*
X4489927D01*
X4509103Y4929738D01*
X4526297Y4939665D01*
X4540335Y4953703D01*
X4541207Y4955213D01*
X4553907Y4951810D01*
D02*
G37*
G36*
X3711451Y4967273D02*
X3729975Y4959600D01*
X3750025D01*
X3761900Y4964519D01*
X3774600Y4956730D01*
Y4893400D01*
X3749600D01*
Y4824232D01*
X3748858Y4820500D01*
Y4670285D01*
X3742700Y4665549D01*
X3731238Y4669747D01*
X3729646Y4671055D01*
X3721566Y4690562D01*
X3705981Y4706147D01*
X3685620Y4714581D01*
X3672900D01*
Y4722300D01*
X3620000D01*
X3567100D01*
Y4682100D01*
X3612699D01*
X3619755Y4671541D01*
X3619200Y4670200D01*
Y4650400D01*
X3592100D01*
Y4523849D01*
X3582900Y4515400D01*
X3499474D01*
X3492685Y4528100D01*
X3495895Y4532904D01*
X3497227Y4539600D01*
X3510400D01*
Y4675400D01*
X3412700D01*
Y4607500D01*
X3387300D01*
Y4675400D01*
X3370483D01*
X3369376Y4688100D01*
X3372727Y4691451D01*
X3380400Y4709975D01*
Y4730025D01*
X3372727Y4748549D01*
X3369376Y4751900D01*
X3374637Y4764600D01*
X3510400D01*
Y4900400D01*
X3510400D01*
X3510595Y4913020D01*
X3510806Y4913711D01*
X3559661D01*
X3559665Y4913703D01*
X3573704Y4899665D01*
X3573711Y4899661D01*
Y4877900D01*
X3567100D01*
Y4772100D01*
Y4747700D01*
X3620000D01*
X3672900D01*
Y4772100D01*
Y4877900D01*
X3666290D01*
Y4899661D01*
X3666297Y4899665D01*
X3680335Y4913703D01*
X3690262Y4930897D01*
X3695400Y4950073D01*
Y4965363D01*
X3707607Y4971116D01*
X3711451Y4967273D01*
D02*
G37*
G36*
X4266036Y2327278D02*
X4261142Y2315464D01*
X3538858D01*
X3533964Y2327278D01*
Y2536449D01*
X4266036D01*
Y2327278D01*
D02*
G37*
G36*
X4266138Y2171475D02*
X4278224Y2155724D01*
X4293975Y2143638D01*
X4312316Y2136041D01*
X4332000Y2133449D01*
X4333178Y2133604D01*
X4337771Y2121400D01*
X4337011Y2120892D01*
X4263442Y2081568D01*
X4186372Y2049644D01*
X4106542Y2025429D01*
X4024729Y2009155D01*
X3941709Y2000978D01*
X3858291Y2000978D01*
X3775270Y2009155D01*
X3693458Y2025429D01*
X3613629Y2049644D01*
X3536560Y2081567D01*
X3462989Y2120892D01*
X3462229Y2121400D01*
X3466822Y2133605D01*
X3468000Y2133449D01*
X3487684Y2136041D01*
X3506025Y2143638D01*
X3521776Y2155724D01*
X3533862Y2171475D01*
X3538858Y2183536D01*
X4261142D01*
X4266138Y2171475D01*
D02*
G37*
%LPC*%
G36*
X4357400Y9728600D02*
X4293701D01*
Y9557400D01*
X4357400D01*
Y9728600D01*
D02*
G37*
G36*
X4268301D02*
X4204600D01*
Y9557400D01*
X4268301D01*
Y9728600D01*
D02*
G37*
G36*
X4501400Y9581400D02*
X4452700D01*
Y9532700D01*
X4501400D01*
Y9581400D01*
D02*
G37*
G36*
X4427300D02*
X4378600D01*
Y9532700D01*
X4427300D01*
Y9581400D01*
D02*
G37*
G36*
X3421400Y9581400D02*
X3372700D01*
Y9532700D01*
X3421400D01*
Y9581400D01*
D02*
G37*
G36*
X3347300D02*
X3298600D01*
Y9532700D01*
X3347300D01*
Y9581400D01*
D02*
G37*
G36*
X3337300Y9217300D02*
X3288600D01*
Y9168600D01*
X3337300D01*
Y9217300D01*
D02*
G37*
G36*
X3570400Y9147900D02*
X3492700D01*
Y9062700D01*
X3570400D01*
Y9147900D01*
D02*
G37*
G36*
X4367900Y8172300D02*
X4310200D01*
Y8134600D01*
X4367900D01*
Y8172300D01*
D02*
G37*
G36*
X4284800D02*
X4227100D01*
Y8134600D01*
X4284800D01*
Y8172300D01*
D02*
G37*
G36*
X4627900Y8102900D02*
X4587701D01*
Y8062700D01*
X4627900D01*
Y8102900D01*
D02*
G37*
G36*
Y8037300D02*
X4587701D01*
Y7997100D01*
X4627900D01*
Y8037300D01*
D02*
G37*
G36*
X3615400Y7980400D02*
X3364600D01*
Y7779600D01*
X3615400D01*
Y7821891D01*
X3628100Y7830377D01*
X3629975Y7829600D01*
X3650025D01*
X3668549Y7837273D01*
X3682727Y7851451D01*
X3690400Y7869975D01*
Y7890025D01*
X3682727Y7908549D01*
X3668549Y7922727D01*
X3650025Y7930400D01*
X3629975D01*
X3628100Y7929623D01*
X3615400Y7938109D01*
Y7980400D01*
D02*
G37*
G36*
X4435400Y7570400D02*
X4322700D01*
Y7482700D01*
X4435400D01*
Y7570400D01*
D02*
G37*
G36*
X4297300D02*
X4184600D01*
Y7482700D01*
X4297300D01*
Y7570400D01*
D02*
G37*
G36*
X4435400Y7457300D02*
X4322700D01*
Y7369600D01*
X4435400D01*
Y7457300D01*
D02*
G37*
G36*
X4297300D02*
X4184600D01*
Y7369600D01*
X4297300D01*
Y7457300D01*
D02*
G37*
G36*
X3331400Y7357300D02*
X3282700D01*
Y7308600D01*
X3331400D01*
Y7357300D01*
D02*
G37*
G36*
X4630400Y7157300D02*
X4552700D01*
Y7072100D01*
X4630400D01*
Y7157300D01*
D02*
G37*
G36*
X3509800Y6594800D02*
X3452100D01*
Y6532100D01*
X3509800D01*
Y6594800D01*
D02*
G37*
G36*
X4651400Y6151400D02*
X4602700D01*
Y6102700D01*
X4651400D01*
Y6151400D01*
D02*
G37*
G36*
Y6077300D02*
X4602700D01*
Y6028600D01*
X4651400D01*
Y6077300D01*
D02*
G37*
G36*
X4607900Y5737300D02*
X4522700D01*
Y5659600D01*
X4607900D01*
Y5737300D01*
D02*
G37*
G36*
X4177900Y5392900D02*
X4137700D01*
Y5352700D01*
X4177900D01*
Y5392900D01*
D02*
G37*
G36*
Y5227300D02*
X4137700D01*
Y5187100D01*
X4177900D01*
Y5227300D01*
D02*
G37*
G36*
X3427300Y5237900D02*
X3349600D01*
Y5152700D01*
X3427300D01*
Y5237900D01*
D02*
G37*
G36*
X3457300Y4226900D02*
X3254600D01*
Y4112700D01*
X3457300D01*
Y4226900D01*
D02*
G37*
G36*
Y4087300D02*
X3254600D01*
Y3973100D01*
X3457300D01*
Y4087300D01*
D02*
G37*
G36*
X3690400Y3895400D02*
X3612700D01*
Y3792700D01*
X3690400D01*
Y3895400D01*
D02*
G37*
G36*
X3587300D02*
X3509600D01*
Y3792700D01*
X3587300D01*
Y3895400D01*
D02*
G37*
G36*
X3690400Y3767300D02*
X3612700D01*
Y3664600D01*
X3690400D01*
Y3767300D01*
D02*
G37*
G36*
X3587300D02*
X3509600D01*
Y3664600D01*
X3587300D01*
Y3767300D01*
D02*
G37*
G36*
X4050400Y3787900D02*
X3749600D01*
Y3637100D01*
X3772017D01*
X3773124Y3624400D01*
X3767273Y3618549D01*
X3759600Y3600025D01*
Y3579975D01*
X3767273Y3561451D01*
X3781451Y3547273D01*
X3799975Y3539600D01*
X3820025D01*
X3838549Y3547273D01*
X3852727Y3561451D01*
X3853471Y3563248D01*
X3865927Y3565725D01*
X3868619Y3563034D01*
X3888980Y3554600D01*
X3911020D01*
X3931382Y3563034D01*
X3934073Y3565725D01*
X3946529Y3563247D01*
X3947273Y3561451D01*
X3961451Y3547273D01*
X3979975Y3539600D01*
X4000025D01*
X4018549Y3547273D01*
X4032727Y3561451D01*
X4040400Y3579975D01*
Y3600025D01*
X4032727Y3618549D01*
X4026876Y3624400D01*
X4027983Y3637100D01*
X4050400D01*
Y3787900D01*
D02*
G37*
G36*
X3510400Y3145400D02*
X3462700D01*
Y3107700D01*
X3510400D01*
Y3145400D01*
D02*
G37*
G36*
X4410400D02*
X4362700D01*
Y3107700D01*
X4410400D01*
Y3145400D01*
D02*
G37*
G36*
X4337300D02*
X4289600D01*
Y3107700D01*
X4337300D01*
Y3145400D01*
D02*
G37*
G36*
X3437300D02*
X3389600D01*
Y3107700D01*
X3437300D01*
Y3145400D01*
D02*
G37*
G36*
X3610025Y3220400D02*
X3589975D01*
X3571451Y3212727D01*
X3557273Y3198549D01*
X3549600Y3180025D01*
Y3159975D01*
X3551731Y3154831D01*
X3547100Y3147900D01*
X3547100D01*
Y3041093D01*
X3510400D01*
Y3082300D01*
X3450000D01*
X3389600D01*
Y3044600D01*
Y2954600D01*
X3510400D01*
Y2968907D01*
X3547100D01*
Y2952100D01*
X3652900D01*
Y3042100D01*
Y3147900D01*
X3652900D01*
X3648269Y3154831D01*
X3650400Y3159975D01*
Y3180025D01*
X3642727Y3198549D01*
X3628549Y3212727D01*
X3610025Y3220400D01*
D02*
G37*
G36*
X4247900Y2932900D02*
X4207700D01*
Y2892700D01*
X4247900D01*
Y2932900D01*
D02*
G37*
G36*
X3592300D02*
X3552100D01*
Y2892700D01*
X3592300D01*
Y2932900D01*
D02*
G37*
G36*
X4247900Y2867300D02*
X4207700D01*
Y2827100D01*
X4247900D01*
Y2867300D01*
D02*
G37*
G36*
X3592300D02*
X3552100D01*
Y2827100D01*
X3592300D01*
Y2867300D01*
D02*
G37*
G36*
X3887300Y5377300D02*
X3838600D01*
Y5328600D01*
X3887300D01*
Y5377300D01*
D02*
G37*
G36*
X3817900Y5347300D02*
X3732700D01*
Y5269600D01*
X3817900D01*
Y5347300D01*
D02*
G37*
G36*
X3707300D02*
X3622100D01*
Y5269600D01*
X3707300D01*
Y5347300D01*
D02*
G37*
G36*
X4457299Y4332300D02*
X4417100D01*
Y4292100D01*
X4457299D01*
Y4332300D01*
D02*
G37*
%LPD*%
D10*
X4590000Y6090000D02*
D03*
X4490000D02*
D03*
X3450000Y8880000D02*
D03*
X3350000D02*
D03*
Y9230000D02*
D03*
X3450000D02*
D03*
X4280000Y3270000D02*
D03*
X4380000D02*
D03*
X3350000Y6230000D02*
D03*
X3250000D02*
D03*
X4120000Y6590000D02*
D03*
X4220000D02*
D03*
X3250000Y6340000D02*
D03*
X3350000D02*
D03*
D11*
X3900000Y6100000D02*
D03*
D12*
X3947730Y6536638D02*
D03*
X3983085Y6501283D02*
D03*
X4018441Y6465928D02*
D03*
X4053796Y6430572D02*
D03*
X4089151Y6395217D02*
D03*
X4124506Y6359862D02*
D03*
X4159862Y6324506D02*
D03*
X4195217Y6289151D02*
D03*
X4230572Y6253796D02*
D03*
X4265928Y6218440D02*
D03*
X4301283Y6183085D02*
D03*
X4336639Y6147730D02*
D03*
X3852270Y5663362D02*
D03*
X3816915Y5698717D02*
D03*
X3781560Y5734072D02*
D03*
X3746204Y5769428D02*
D03*
X3710849Y5804783D02*
D03*
X3675494Y5840138D02*
D03*
X3640139Y5875494D02*
D03*
X3604783Y5910849D02*
D03*
X3569428Y5946204D02*
D03*
X3534072Y5981560D02*
D03*
X3498717Y6016915D02*
D03*
X3463362Y6052270D02*
D03*
D13*
X4336639D02*
D03*
X4301283Y6016915D02*
D03*
X4265928Y5981560D02*
D03*
X4230572Y5946204D02*
D03*
X4195217Y5910849D02*
D03*
X4159862Y5875494D02*
D03*
X4124506Y5840138D02*
D03*
X4089151Y5804783D02*
D03*
X4053796Y5769428D02*
D03*
X4018440Y5734072D02*
D03*
X3983085Y5698717D02*
D03*
X3947730Y5663362D02*
D03*
X3463362Y6147730D02*
D03*
X3498717Y6183085D02*
D03*
X3534072Y6218440D02*
D03*
X3569428Y6253796D02*
D03*
X3604783Y6289151D02*
D03*
X3640139Y6324506D02*
D03*
X3675494Y6359862D02*
D03*
X3710849Y6395217D02*
D03*
X3746204Y6430572D02*
D03*
X3781560Y6465928D02*
D03*
X3816915Y6501283D02*
D03*
X3852270Y6536638D02*
D03*
D14*
X4453000Y6913500D02*
D03*
Y6786500D02*
D03*
X4326000Y6913500D02*
D03*
Y6786500D02*
D03*
X4199000Y6913500D02*
D03*
Y6786500D02*
D03*
D15*
X3677500Y6607500D02*
D03*
Y6792500D02*
D03*
X3522500Y6607500D02*
D03*
D16*
Y6792500D02*
D03*
D17*
X3900000Y8840000D02*
D03*
D18*
X3795000Y8260000D02*
D03*
X4005000D02*
D03*
D19*
X3490000Y7880000D02*
D03*
X4310000D02*
D03*
X3490000Y7470000D02*
D03*
X4310000D02*
D03*
X3490000Y3430000D02*
D03*
X4310000D02*
D03*
D20*
X4440000Y9520000D02*
D03*
Y9420000D02*
D03*
X3380000Y6690000D02*
D03*
Y6790000D02*
D03*
X4530000Y7680000D02*
D03*
Y7580000D02*
D03*
X3360000Y9520000D02*
D03*
Y9420000D02*
D03*
X3270000Y7370000D02*
D03*
Y7470000D02*
D03*
X3900000Y6860000D02*
D03*
Y6760000D02*
D03*
Y5490000D02*
D03*
Y5390000D02*
D03*
X4530000Y7470000D02*
D03*
Y7370000D02*
D03*
D21*
X4281000Y9544700D02*
D03*
X4027000D02*
D03*
X3773000D02*
D03*
X3519000D02*
D03*
D22*
X3320000Y9050000D02*
D03*
X3480000D02*
D03*
X3440000Y5140000D02*
D03*
X3600000D02*
D03*
X4380000Y7170000D02*
D03*
X4540000D02*
D03*
D23*
X3600000Y3780000D02*
D03*
X3320000D02*
D03*
D24*
Y6950000D02*
D03*
Y7110000D02*
D03*
X3690000Y4400000D02*
D03*
Y4560000D02*
D03*
X3900000Y4400000D02*
D03*
Y4560000D02*
D03*
X4110000D02*
D03*
Y4400000D02*
D03*
X3720000Y5520000D02*
D03*
Y5360000D02*
D03*
X4510000Y5910000D02*
D03*
Y5750000D02*
D03*
D25*
X3335000Y4832500D02*
D03*
X3400000D02*
D03*
X3465000D02*
D03*
Y4607500D02*
D03*
X3400000D02*
D03*
X3335000D02*
D03*
X4335000D02*
D03*
X4400000D02*
D03*
X4465000D02*
D03*
Y4832500D02*
D03*
X4400000D02*
D03*
X4335000D02*
D03*
D26*
X4575000Y8050000D02*
D03*
X4485000D02*
D03*
X4375000D02*
D03*
X4285000D02*
D03*
X3945000Y4120000D02*
D03*
X3855000D02*
D03*
X3245000Y6440000D02*
D03*
X3335000D02*
D03*
X3605000Y2880000D02*
D03*
X3695000D02*
D03*
X4195000D02*
D03*
X4105000D02*
D03*
X3335000Y8460000D02*
D03*
X3245000D02*
D03*
X3465000D02*
D03*
X3555000D02*
D03*
X4125000Y5340000D02*
D03*
X4035000D02*
D03*
X4125000Y5240000D02*
D03*
X4035000D02*
D03*
X3445000Y4960000D02*
D03*
X3355000D02*
D03*
D27*
X4200000Y3005000D02*
D03*
Y3095000D02*
D03*
X3600000Y3005000D02*
D03*
Y3095000D02*
D03*
X3950000Y3005000D02*
D03*
Y3095000D02*
D03*
X3850000Y3005000D02*
D03*
Y3095000D02*
D03*
X3260000Y6695000D02*
D03*
Y6785000D02*
D03*
X4490000Y3430000D02*
D03*
Y3520000D02*
D03*
X4530000Y7880000D02*
D03*
Y7790000D02*
D03*
X4470000Y4345000D02*
D03*
Y4435000D02*
D03*
X3620000Y4735000D02*
D03*
Y4825000D02*
D03*
D28*
X3995000Y3712500D02*
D03*
X3900000D02*
D03*
X3805000D02*
D03*
Y3987500D02*
D03*
X3900000D02*
D03*
X3995000D02*
D03*
D29*
X3787500Y4820500D02*
D03*
X3832500D02*
D03*
X3877500D02*
D03*
X3922500D02*
D03*
X3967500D02*
D03*
X4012500D02*
D03*
X3787500Y5099500D02*
D03*
X3832500D02*
D03*
X3877500D02*
D03*
X3922500D02*
D03*
X3967500D02*
D03*
X4012500D02*
D03*
D30*
X3900000Y4960000D02*
D03*
D31*
X3555000Y7150000D02*
D03*
X3685000D02*
D03*
X4215000D02*
D03*
X4085000D02*
D03*
X3555000Y7000000D02*
D03*
X3685000D02*
D03*
X4190000Y5000000D02*
D03*
X4320000D02*
D03*
D32*
X4290000Y5510000D02*
D03*
X4480000Y5000000D02*
D03*
X3620000Y4960000D02*
D03*
X4320000Y4390000D02*
D03*
X4190000Y4830000D02*
D03*
D33*
X4330000Y4100000D02*
D03*
X3470000D02*
D03*
D34*
X4522500Y8250000D02*
D03*
X4297500Y8185000D02*
D03*
Y8315000D02*
D03*
X3277500Y8250000D02*
D03*
X3502500Y8315000D02*
D03*
Y8185000D02*
D03*
X4227500Y3790000D02*
D03*
X4452500Y3855000D02*
D03*
Y3725000D02*
D03*
X3287500Y4400000D02*
D03*
X3512500Y4465000D02*
D03*
Y4335000D02*
D03*
X4512500Y5250000D02*
D03*
X4287500Y5185000D02*
D03*
Y5315000D02*
D03*
D35*
X3325000Y8623750D02*
D03*
X3375000D02*
D03*
X3425000D02*
D03*
X3475000D02*
D03*
Y8776250D02*
D03*
X3425000D02*
D03*
X3375000D02*
D03*
X3325000D02*
D03*
D36*
X3476250Y8674990D02*
D03*
Y8724990D02*
D03*
X3323750D02*
D03*
Y8674990D02*
D03*
D37*
X3855000Y4240000D02*
D03*
X3945000D02*
D03*
D38*
X3450000Y3095000D02*
D03*
Y3005000D02*
D03*
X3750000Y3095000D02*
D03*
Y3005000D02*
D03*
X4050000Y3095000D02*
D03*
Y3005000D02*
D03*
X4350000Y3095000D02*
D03*
Y3005000D02*
D03*
D39*
X3965000Y7115000D02*
D03*
X3835000D02*
D03*
X3965000Y7185000D02*
D03*
X3835000D02*
D03*
D40*
X4490000Y6022706D02*
Y6090000D01*
X4650000Y6150000D02*
X4650000D01*
X4590000Y6090000D02*
X4650000Y6150000D01*
X3490000Y7880000D02*
X3640000D01*
X4310000D02*
X4322500Y7867500D01*
X4347500D01*
X4440000Y9520000D02*
X4520000D01*
X3250000Y6170000D02*
Y6340000D01*
X3069600Y5340000D02*
X3459227D01*
X3440000Y6600000D02*
X3441913Y6601913D01*
X3516913D01*
X3522500Y6607500D01*
Y6612500D01*
X3781593Y7217687D02*
X3814280Y7185000D01*
X3835000D01*
X4451500Y6915000D02*
X4453000Y6913500D01*
X4450000Y7000000D02*
X4451500Y6998500D01*
Y6915000D02*
Y6998500D01*
X4540000Y7040000D02*
Y7170000D01*
X4530000Y7580000D02*
X4610000D01*
X4530000Y7470000D02*
X4610000D01*
X4530000Y7370000D02*
X4609600D01*
X4530000Y7790000D02*
X4590000D01*
X4530000Y7370000D02*
X4530000Y7370000D01*
X3512313Y7200187D02*
Y7208087D01*
X3535000Y7170000D02*
Y7177500D01*
X3510400Y7210000D02*
X3512313Y7208087D01*
Y7200187D02*
X3535000Y7177500D01*
X3685000Y7007500D02*
X3705000Y7027500D01*
X3742500D01*
X3830000Y7115000D01*
X3535000Y7170000D02*
X3555000Y7150000D01*
X4215000Y7157500D02*
X4264600Y7207100D01*
X4199500Y6914000D02*
Y6999500D01*
X4199000Y6913500D02*
X4199500Y6914000D01*
Y6999500D02*
X4200000Y7000000D01*
X4310000Y7470000D02*
X4315014Y7475014D01*
Y7598698D01*
X3263513Y7301913D02*
Y7363513D01*
X3261600Y7300000D02*
X3263513Y7301913D01*
X4390000Y7800000D02*
X4494000Y7696000D01*
X4514000D01*
X4347500Y7867500D02*
X4390000Y7825000D01*
Y7800000D02*
Y7825000D01*
X4514000Y7696000D02*
X4530000Y7680000D01*
X4487500Y8047500D02*
X4488087Y8046913D01*
Y7991913D02*
Y8046913D01*
Y7991913D02*
X4490000Y7990000D01*
X3885000Y8140000D02*
X3955150Y8210150D01*
X3530000Y8180000D02*
X3570000Y8140000D01*
X3885000D01*
X3955150Y8210150D02*
X3960230D01*
X4005000Y8254920D01*
Y8260000D01*
X3502500Y8185000D02*
X3507500Y8180000D01*
X3530000D01*
X4407294Y8320400D02*
X4410000D01*
X4401894Y8315000D02*
X4407294Y8320400D01*
X4297500Y8315000D02*
X4401894D01*
X3180000Y8460000D02*
X3245000D01*
X3557500Y8462500D02*
Y8527500D01*
X3245000Y6552294D02*
X3250000Y6557294D01*
X3245000Y6440000D02*
Y6552294D01*
X3250000Y6557294D02*
Y6560000D01*
X3255000Y6690000D02*
X3260000Y6695000D01*
X3250000Y6560000D02*
Y6562706D01*
X3260000Y6572706D01*
X3263513Y7363513D02*
X3270000Y7370000D01*
X3180000Y8250000D02*
X3277500D01*
X3283936Y9215213D02*
X3285849Y9217126D01*
X3334000D01*
X3346874Y9230000D02*
X3350000D01*
X3334000Y9217126D02*
X3346874Y9230000D01*
X4122287Y9341913D02*
X4188087D01*
X4190000Y9340000D02*
X4360000D01*
X4440000Y9420000D01*
X4027000Y9437200D02*
X4122287Y9341913D01*
X4188087D02*
X4190000Y9340000D01*
X4628087Y8108087D02*
X4630000Y8110000D01*
X4628087Y8103087D02*
Y8108087D01*
X4575000Y8050000D02*
X4628087Y8103087D01*
X4490000Y6022706D02*
X4510000Y6002706D01*
Y5910000D02*
Y6002706D01*
X4466918Y7290987D02*
X4509769D01*
X4511682Y7292900D01*
X3910000Y6850000D02*
X4027294D01*
X3900000Y6860000D02*
X3910000Y6850000D01*
X4125000Y5405000D02*
X4130000Y5410000D01*
X4125000Y5340000D02*
Y5405000D01*
X3900000Y5490000D02*
Y5560000D01*
X3830000Y7115000D02*
X3835000D01*
X3870000Y5660000D02*
X3900000Y5630000D01*
X3260000Y6572706D02*
Y6695000D01*
X3320000Y7110000D02*
Y7199600D01*
X3960000Y7185000D02*
Y7220000D01*
X3750000Y7290000D02*
X3890000D01*
X3960000Y7185000D02*
X3965000D01*
X3890000Y7290000D02*
X3960000Y7220000D01*
X3705000Y7245000D02*
X3750000Y7290000D01*
X3705000Y7170000D02*
Y7245000D01*
X3685000Y7150000D02*
X3705000Y7170000D01*
X4297500Y8185000D02*
X4401894D01*
X4407294Y8179600D02*
X4410000D01*
X4401894Y8185000D02*
X4407294Y8179600D01*
X4380000Y7170000D02*
X4425000Y7215000D01*
Y7249069D01*
X4466918Y7290987D01*
X4057500Y7115000D02*
X4085000Y7142500D01*
X3965000Y7115000D02*
X4057500D01*
X4085000Y7142500D02*
Y7150000D01*
X3685000Y7000000D02*
Y7007500D01*
X3270000Y7470000D02*
X3490000D01*
X4335000Y7880000D02*
X4530000D01*
X4375000Y8050000D02*
X4485000D01*
X4190000D02*
X4285000D01*
X4015000Y8250000D02*
X4522500D01*
X4005000Y8260000D02*
X4015000Y8250000D01*
X3670000Y8260000D02*
X3795000D01*
X3450000Y8880000D02*
X3540000D01*
X3480000Y9050000D02*
X3590000D01*
X3280000Y9520000D02*
X3360000D01*
X3280000Y9520000D02*
X3280000Y9520000D01*
X4305700Y9520000D02*
X4440000D01*
X4281000Y9544700D02*
X4305700Y9520000D01*
X4027000Y9437200D02*
Y9544700D01*
X3565800Y9230000D02*
X3773000Y9437200D01*
X3450000Y9230000D02*
X3565800D01*
X3773000Y9437200D02*
Y9544700D01*
X3488000Y9420000D02*
X3519000Y9451000D01*
X3360000Y9420000D02*
X3488000D01*
X3519000Y9451000D02*
Y9544700D01*
X3555000Y5185000D02*
Y5244227D01*
X3459227Y5340000D02*
X3555000Y5244227D01*
Y5185000D02*
X3600000Y5140000D01*
X3337500Y6342500D02*
Y6437500D01*
Y6342500D02*
X3340000Y6340000D01*
X3396000Y6674000D02*
X3461000D01*
X3522500Y6612500D01*
X3380000Y6690000D02*
X3396000Y6674000D01*
X3263750Y6788750D02*
X3673750D01*
X3321569Y6848431D02*
Y6948431D01*
Y6848431D02*
X3380000Y6790000D01*
X3320000Y6950000D02*
X3321569Y6948431D01*
X3673750Y6788750D02*
X3677500Y6792500D01*
X3260000Y6785000D02*
X3263750Y6788750D01*
X4220000Y6590000D02*
Y6670000D01*
X4515000Y5750000D02*
X4560000Y5705000D01*
Y5650000D02*
Y5705000D01*
X4510000Y5750000D02*
X4515000D01*
X3900000Y5560000D02*
Y5630000D01*
X3720000Y5360000D02*
X3750000Y5390000D01*
X3900000D01*
X3560000Y5360000D02*
X3720000D01*
X4125000Y5240000D02*
Y5340000D01*
X3674600Y4575400D02*
Y4659181D01*
Y4575400D02*
X3690000Y4560000D01*
X4400000Y4512674D02*
X4402674Y4510000D01*
X4400000Y4512674D02*
Y4607500D01*
X4310000Y4560000D02*
X4320000Y4570000D01*
X4110000Y4560000D02*
X4310000D01*
X4190000Y4830000D02*
Y5000000D01*
X4320000D02*
X4480000D01*
X4320000D02*
X4335000Y4985000D01*
Y4832500D02*
Y4985000D01*
X3571913Y4681913D02*
Y4686913D01*
X3570000Y4680000D02*
X3571913Y4681913D01*
Y4686913D02*
X3620000Y4735000D01*
X3335000Y4832500D02*
Y4940000D01*
X3355000Y4960000D01*
X3445000D02*
X3620000D01*
Y4825000D02*
Y4960000D01*
X3281913Y4491913D02*
X3338481D01*
X3280000Y4490000D02*
X3281913Y4491913D01*
X3400000Y4553432D02*
Y4607500D01*
X3338481Y4491913D02*
X3400000Y4553432D01*
X3532500Y4335000D02*
X3595587Y4271913D01*
X4190000Y4018500D02*
X4271500Y4100000D01*
X4330000D01*
X4190000Y3960000D02*
Y4018500D01*
X4470000Y3960000D02*
Y4018500D01*
X4388500Y4100000D02*
X4470000Y4018500D01*
X4330000Y4100000D02*
X4388500D01*
X3512500Y4335000D02*
X3532500D01*
X4320000Y4570000D02*
X4335000Y4585000D01*
X4320000Y4390000D02*
Y4570000D01*
X4335000Y4585000D02*
Y4607500D01*
X3675000Y3270000D02*
X4140000D01*
X4280000D01*
X3470000Y3930000D02*
Y4100000D01*
X3600000Y3780000D02*
Y4018500D01*
X3470000Y4100000D02*
X3518500D01*
X3600000Y4018500D01*
X3900000Y3850000D02*
Y3987500D01*
Y3610000D02*
Y3712500D01*
X4310000Y3602500D02*
X4432500Y3725000D01*
X4452500D01*
X4310000Y3430000D02*
Y3602500D01*
X3515000Y3430000D02*
X3675000Y3270000D01*
X4202500Y2830206D02*
X4210000Y2822706D01*
Y2820000D02*
Y2822706D01*
X4202500Y2830206D02*
Y2872500D01*
X3597500Y2836006D02*
Y2872500D01*
X3584200Y2822706D02*
X3597500Y2836006D01*
X3584200Y2820000D02*
Y2822706D01*
X3597500Y2872500D02*
X3605000Y2880000D01*
X4195000D02*
X4202500Y2872500D01*
D41*
X3514304Y7048195D02*
X3555000Y7007500D01*
Y7000000D02*
Y7007500D01*
X3514304Y7048195D02*
Y7052105D01*
X4060000Y5470000D02*
Y5621802D01*
X4053796Y5769428D02*
X4190400Y5632823D01*
X3983085Y5698717D02*
X4060000Y5621802D01*
X4190400Y5470400D02*
Y5632823D01*
X4130000Y5520000D02*
Y5622512D01*
X4190000Y5470000D02*
X4190400Y5470400D01*
X4500917Y5579157D02*
X4749601D01*
X4407500Y5672574D02*
X4500917Y5579157D01*
X4195217Y5909496D02*
X4270298Y5834415D01*
X4295316Y5890697D02*
X4341415Y5844598D01*
X4199600Y5815577D02*
X4460000Y5555177D01*
X4270298Y5830297D02*
Y5834415D01*
X4341415Y5835740D02*
Y5844598D01*
X4460000Y5460000D02*
Y5555177D01*
X4286079Y5890697D02*
X4295316D01*
X4199600Y5815577D02*
Y5834402D01*
X4341415Y5835740D02*
X4347155Y5830000D01*
X4230572Y5946204D02*
X4286079Y5890697D01*
X4124506Y5840138D02*
X4146676Y5817969D01*
Y5807362D02*
Y5817969D01*
X4390400Y5510000D02*
Y5563638D01*
X4146676Y5807362D02*
X4390400Y5563638D01*
X4492283Y6320400D02*
X4699600D01*
X4306400Y6590000D02*
X4530000D01*
X4579015Y6539331D02*
X4585837D01*
X4147223Y6524000D02*
X4563684D01*
X4579015Y6539331D01*
X4320541Y6271700D02*
X4379600D01*
X4308876Y6332100D02*
X4417901D01*
X4267281Y6218440D02*
X4320541Y6271700D01*
X4230572Y6253796D02*
X4308876Y6332100D01*
X4417901D02*
X4510000Y6240000D01*
X4447324Y6365359D02*
X4492283Y6320400D01*
X4271426Y6365359D02*
X4447324D01*
X4640942Y6403100D02*
X4760000Y6522157D01*
X4159862Y6324506D02*
X4238455Y6403100D01*
X4640942D01*
X4124506Y6359862D02*
X4205007Y6440362D01*
X4637192D01*
X4720000Y6523170D01*
X4089151Y6395217D02*
X4172479Y6478544D01*
X4634363D02*
X4680000Y6524182D01*
X4172479Y6478544D02*
X4634363D01*
X4195217Y6289151D02*
X4271426Y6365359D01*
X4420582Y6211300D02*
X4431882Y6200000D01*
X4375456Y6211300D02*
X4420582D01*
X4340248Y6211443D02*
X4375313D01*
X4431882Y6200000D02*
X4440000D01*
X4375313Y6211443D02*
X4375456Y6211300D01*
X4510000Y6240000D02*
X4749601D01*
X4334059Y6205255D02*
X4340248Y6211443D01*
X4301283Y6183085D02*
X4323453Y6205255D01*
X4334059D01*
X4053796Y6430572D02*
X4147223Y6524000D01*
X3462500Y6437500D02*
X3540000Y6360000D01*
Y6284576D02*
Y6360000D01*
Y6284576D02*
X3569428Y6255149D01*
Y6253796D02*
Y6255149D01*
X3502085Y6251780D02*
X3534072Y6219793D01*
X3502085Y6251780D02*
Y6277915D01*
X3460000Y6320000D02*
X3502085Y6277915D01*
X3438686Y6314260D02*
X3454260D01*
X3380427Y6256000D02*
X3438686Y6314260D01*
X3454260D02*
X3460000Y6320000D01*
X3350000Y6230000D02*
X3376000Y6256000D01*
X3380427D01*
X3337500Y6437500D02*
X3462500D01*
X3677500Y6602500D02*
Y6607500D01*
X3634646Y6559646D02*
X3677500Y6602500D01*
X3634646Y6471420D02*
Y6559646D01*
Y6471420D02*
X3710849Y6395217D01*
X3695046Y6507100D02*
X3700786Y6501360D01*
X3597500Y6368498D02*
X3640139Y6325859D01*
X3597500Y6368498D02*
Y6664927D01*
X3180000Y6150000D02*
X3260000Y6070000D01*
X3180000Y6150000D02*
Y7500000D01*
X3260000Y6070000D02*
X3385632D01*
X3744774Y6501360D02*
X3780207Y6465928D01*
X3700786Y6501360D02*
X3744774D01*
X3597500Y6664927D02*
X3632573Y6700000D01*
X3780000Y6757574D02*
Y6850000D01*
X3722426Y6700000D02*
X3780000Y6757574D01*
X3740000Y6890000D02*
X3780000Y6850000D01*
X3450000Y6960000D02*
Y7430000D01*
Y6960000D02*
X3520000Y6890000D01*
X3740000D01*
X4474660Y6685740D02*
X4480400Y6680000D01*
X4426760Y6685740D02*
X4474660D01*
X4464480Y6775020D02*
X4494980D01*
X4590000Y6680000D01*
X4326000Y6786500D02*
X4426760Y6685740D01*
X4595418Y7680000D02*
X4680000Y7595418D01*
X4530000Y7680000D02*
X4595418D01*
X4630000Y8200000D02*
X4720000Y8110000D01*
X4680000Y6524182D02*
Y7595418D01*
X4720000Y6523170D02*
Y8110000D01*
X3450000Y7430000D02*
X3490000Y7470000D01*
X4264600Y7207100D02*
Y7209952D01*
X4215000Y7150000D02*
Y7157500D01*
X3740000Y6890000D02*
X3910400Y7060400D01*
X4259600D02*
X4324999Y6995001D01*
X3910400Y7060400D02*
X4259600D01*
X4760000Y6522157D02*
Y8160000D01*
X4630000Y8290000D02*
X4760000Y8160000D01*
X3467500Y8397500D02*
Y8457500D01*
X3390000Y8320000D02*
X3467500Y8397500D01*
X3332500Y8392500D02*
Y8452500D01*
X3330000Y8390000D02*
X3332500Y8392500D01*
Y8452500D02*
X3337500Y8457500D01*
X3465000Y8460000D02*
X3467500Y8457500D01*
X3465000Y8460000D02*
X3475000Y8470000D01*
X3325000Y8470000D02*
X3337500Y8457500D01*
X3555000Y8460000D02*
X3557500Y8462500D01*
X3375000Y8576716D02*
Y8623750D01*
Y8576716D02*
X3400000Y8551715D01*
Y8550000D02*
Y8551715D01*
X3475000Y8776250D02*
X3476875Y8778125D01*
X3548125D01*
X3550000Y8780000D01*
X3400000Y8702282D02*
Y8710400D01*
Y8702282D02*
X3425000Y8677282D01*
Y8623750D02*
Y8677282D01*
X3294990Y8674990D02*
X3323750D01*
X3185740Y8655740D02*
X3275740D01*
X3294990Y8674990D01*
X3180000Y8725400D02*
X3180205Y8725195D01*
X3323545D01*
X3180000Y8650000D02*
X3185740Y8655740D01*
X3323545Y8725195D02*
X3323750Y8724990D01*
X3248118Y8800000D02*
X3271868Y8776250D01*
X3240000Y8800000D02*
X3248118D01*
X3271868Y8776250D02*
X3375000D01*
X3030000Y6050000D02*
Y9230000D01*
X3220000Y9420000D02*
X3360000D01*
X3030000Y9230000D02*
X3220000Y9420000D01*
X3230000Y9340000D02*
X3354427D01*
X3060000Y9170000D02*
X3230000Y9340000D01*
X3060000Y6070000D02*
Y9170000D01*
X3150000Y7518988D02*
X3271412Y7640400D01*
X3150000Y6128988D02*
Y7518988D01*
X3090000Y6090000D02*
X3430000Y5750000D01*
X3090000Y9110000D02*
X3170000Y9190000D01*
X3120000Y6110000D02*
Y7540000D01*
X3090000Y6090000D02*
Y9110000D01*
X3150000Y6128988D02*
X3248988Y6030000D01*
X3120000Y6110000D02*
X3241443Y5988557D01*
X3120000Y7540000D02*
X3280800Y7700800D01*
X3180000Y7500000D02*
X3260000Y7580000D01*
X3170000Y9190000D02*
X3170000D01*
X3354427Y9340000D02*
X3424000Y9270427D01*
X4265928Y6218440D02*
X4267281D01*
X4336639Y6147730D02*
X4340563Y6151654D01*
X4395482Y6100000D02*
X4403600D01*
X4343828Y6151654D02*
X4395482Y6100000D01*
X4340563Y6151654D02*
X4343828D01*
X4453000Y6786500D02*
X4464480Y6775020D01*
X4199000Y6783750D02*
X4310000Y6672750D01*
X4199000Y6783750D02*
Y6786500D01*
X4310000Y6670000D02*
Y6672750D01*
X4407501Y5832574D02*
Y5882499D01*
X4321329Y5926158D02*
X4363842D01*
X4407501Y5882499D01*
X4265928Y5981560D02*
X4321329Y5926158D01*
X4407501Y5832574D02*
X4407555Y5832520D01*
X4407500Y5672574D02*
Y5827426D01*
X4407555Y5827481D01*
Y5832520D01*
X4195217Y5909496D02*
Y5910849D01*
X4159862Y5874141D02*
X4199600Y5834402D01*
X4159862Y5874141D02*
Y5875494D01*
X4033600Y6570036D02*
Y6578154D01*
X4018440Y5734072D02*
X4130000Y5622512D01*
X4290000Y5510000D02*
Y5603218D01*
X4089151Y5804067D02*
X4290000Y5603218D01*
X3772900Y6546651D02*
Y6610000D01*
Y6546651D02*
X3816915Y6502636D01*
Y6501283D02*
Y6502636D01*
X3780207Y6465928D02*
X3781560D01*
X3984417Y5440000D02*
Y5626129D01*
X3947730Y5662816D02*
X3984417Y5626129D01*
X3947730Y5662816D02*
Y5663362D01*
X3632573Y6700000D02*
X3722426D01*
X3640139Y6324506D02*
Y6325859D01*
X3280800Y7700800D02*
X3390000D01*
X3271412Y7640400D02*
X3650000D01*
X3260000Y7580000D02*
X3900000D01*
X3440000Y5640000D02*
X3650000D01*
X3420000Y5710000D02*
X3686777D01*
X3060000Y6070000D02*
X3420000Y5710000D01*
X3686777D02*
X3746204Y5769428D01*
X3441192Y6030101D02*
X3463362Y6052270D01*
X3437657Y6030101D02*
X3441192D01*
X3437556Y6030000D02*
X3437657Y6030101D01*
X3248988Y6030000D02*
X3437556D01*
X3385632Y6070000D02*
X3463362Y6147730D01*
X3030000Y6050000D02*
X3440000Y5640000D01*
X3430000Y5750000D02*
X3656066D01*
X3241443Y5988557D02*
X3469006D01*
X3400000Y5030000D02*
X3427500Y5002501D01*
X3300000Y5030000D02*
X3400000D01*
X3427500Y4977500D02*
X3445000Y4960000D01*
X3427500Y4977500D02*
Y5002501D01*
X3441686Y6231841D02*
X3448608D01*
X3497364Y6183085D01*
X3534072Y6218440D02*
Y6219793D01*
X3497364Y6183085D02*
X3498717D01*
X3469006Y5988557D02*
X3497364Y6016915D01*
X3498717D01*
X3530000Y5840000D02*
Y5905424D01*
X3475340Y5895740D02*
Y5922827D01*
X3530000Y5905424D02*
X3569428Y5944851D01*
X3469600Y5890000D02*
X3475340Y5895740D01*
X4324999Y6914501D02*
Y6995001D01*
Y6914501D02*
X4326000Y6913500D01*
X3656066Y5750000D02*
X3710849Y5804783D01*
X3424000Y9256000D02*
X3450000Y9230000D01*
X3424000Y9256000D02*
Y9270427D01*
X3475340Y5922827D02*
X3534072Y5981560D01*
X3569428Y5944851D02*
Y5946204D01*
X4485000Y8050000D02*
X4487500Y8047500D01*
X3475000Y8470000D02*
Y8623750D01*
X3325000Y8470000D02*
Y8623750D01*
X3375000Y8776250D02*
Y8880000D01*
X3320000Y9050000D02*
X3350000Y9020000D01*
X3475625Y8675615D02*
Y8775625D01*
X3425000Y8776250D02*
X3475000D01*
X3475625Y8775625D01*
Y8675615D02*
X3476250Y8674990D01*
X3335000Y6440000D02*
X3337500Y6437500D01*
X4089151Y5804067D02*
Y5804783D01*
X4330000Y5330000D02*
X4460000Y5460000D01*
X4302500Y5330000D02*
X4330000D01*
X4287500Y5315000D02*
X4302500Y5330000D01*
X3730000Y5190000D02*
X3844426D01*
X4105018Y4735800D02*
X4165418Y4675400D01*
X3844426Y5190000D02*
X3875000Y5159426D01*
Y5102000D02*
Y5159426D01*
X3984630Y4735800D02*
X4105018D01*
X4047282Y4700000D02*
X4071882Y4675400D01*
X4080000D01*
X3945000Y4240000D02*
X3949600Y4244600D01*
X4020000D01*
X4320000Y4291900D02*
Y4390000D01*
X4205000Y4305000D02*
X4278500Y4231500D01*
X3817574Y4305000D02*
X4205000D01*
X4278500Y4231500D02*
X4538500D01*
X4465000Y4585037D02*
Y4607500D01*
X3950000Y4700000D02*
X4047282D01*
X3967500Y4752930D02*
X3984630Y4735800D01*
X3922500Y4727500D02*
X3950000Y4700000D01*
X4538500Y4231500D02*
X4590000Y4180000D01*
X3875000Y5102000D02*
X3877500Y5099500D01*
X3332500Y4610000D02*
Y4717500D01*
Y4610000D02*
X3335000Y4607500D01*
X3330000Y4720000D02*
X3332500Y4717500D01*
X3922500Y4727500D02*
Y4810500D01*
X3967500Y4752930D02*
Y4810500D01*
X4030000Y4071882D02*
Y4080000D01*
X4015000Y4007500D02*
Y4056882D01*
X4030000Y4071882D01*
X3710400Y4137192D02*
X3713608Y4140400D01*
X3795018D01*
X3730000Y4210000D02*
Y4217426D01*
X3795018Y4140400D02*
X3797918Y4137500D01*
X3730000Y4217426D02*
X3817574Y4305000D01*
X3770000Y4071882D02*
Y4080000D01*
X3797918Y4137500D02*
X3837500D01*
X3855000Y4120000D01*
X3770000Y4071882D02*
X3785000Y4056882D01*
Y4007500D02*
Y4056882D01*
X4435600Y4327500D02*
X4452500D01*
X4470000Y4345000D01*
X4400000Y4291900D02*
X4435600Y4327500D01*
X3280000Y4392500D02*
X3302500Y4415000D01*
X3330833D01*
X3462549Y4605049D02*
X3465000Y4607500D01*
X3330833Y4415000D02*
X3462549Y4546716D01*
Y4605049D01*
X4590000Y4350000D02*
Y4490000D01*
X4504964Y4575037D02*
X4590000Y4490000D01*
X4475000Y4575037D02*
X4504964D01*
X4590000Y4490000D02*
Y5172500D01*
X4515784Y4424216D02*
X4590000Y4350000D01*
X4470000Y4435000D02*
X4480784Y4424216D01*
X4515784D01*
X4590000Y4180000D02*
Y4350000D01*
Y3850000D02*
Y4180000D01*
X3280000Y4310000D02*
Y4392500D01*
X4465000Y4585037D02*
X4475000Y4575037D01*
X4512500Y5250000D02*
X4590000Y5172500D01*
X4530000Y3790000D02*
X4590000Y3850000D01*
X4227500Y3790000D02*
X4530000D01*
X3785000Y4007500D02*
X3805000Y3987500D01*
X3995000D02*
X4015000Y4007500D01*
X4200000Y3095000D02*
X4203406Y3098406D01*
Y3158618D02*
X4206811Y3162024D01*
X4203406Y3098406D02*
Y3158618D01*
X4018441Y6467281D02*
X4054000Y6502840D01*
Y6549636D01*
X4033600Y6570036D02*
X4054000Y6549636D01*
X4018441Y6465928D02*
Y6467281D01*
X3810000Y3590000D02*
Y3707500D01*
X3990000Y3590000D02*
Y3707500D01*
X3995000Y3712500D01*
X4490000Y3623863D02*
X4522209Y3656072D01*
X4490000Y3520000D02*
Y3623863D01*
X4310000Y3430000D02*
X4315000D01*
X4380000Y3365000D01*
X3490000Y3430000D02*
X3515000D01*
X3967500Y3112500D02*
Y3139382D01*
X3990000Y3161882D01*
Y3170000D01*
X3950000Y3095000D02*
X3967500Y3112500D01*
X3600000Y3095000D02*
Y3170000D01*
X3810000Y3161882D02*
X3832500Y3139382D01*
Y3112500D02*
X3850000Y3095000D01*
X3832500Y3112500D02*
Y3139382D01*
X3810000Y3161882D02*
Y3170000D01*
X4052500Y3097500D02*
X4119600D01*
X4050000Y3095000D02*
X4052500Y3097500D01*
X4119600D02*
X4122100Y3100000D01*
X4427500Y3097500D02*
X4430000Y3100000D01*
X4350000Y3095000D02*
X4352500Y3097500D01*
X4427500D01*
X3370000Y3100000D02*
X3372500Y3097500D01*
X3447500D01*
X3747500D02*
X3750000Y3095000D01*
X3680400Y3097500D02*
X3747500D01*
X3677900Y3100000D02*
X3680400Y3097500D01*
X3447500D02*
X3450000Y3095000D01*
X4200000Y3005000D02*
X4350000D01*
X3950000D02*
X4050000D01*
X3750000D02*
X3850000D01*
X3450000D02*
X3600000D01*
X3878928Y2622553D02*
X3992674D01*
X3996201Y2619025D01*
X3875401Y2626079D02*
X3878928Y2622553D01*
X3805000Y3712500D02*
X3810000Y3707500D01*
X4021484Y2821856D02*
X4063601Y2863972D01*
X4088972D02*
X4105000Y2880000D01*
X4063601Y2863972D02*
X4088972D01*
X3712500Y2839382D02*
X3725000Y2826883D01*
Y2818765D02*
Y2826883D01*
X3695000Y2880000D02*
X3712500Y2862500D01*
Y2839382D02*
Y2862500D01*
D42*
X4476353Y6076353D02*
X4490000Y6090000D01*
X4476353Y6036353D02*
Y6076353D01*
X4471057Y6031057D02*
X4476353Y6036353D01*
X4357852Y6031057D02*
X4471057D01*
X3900000Y6760000D02*
X3968943Y6691057D01*
Y6618943D02*
Y6691057D01*
X3869454Y6519455D02*
X3886638Y6536638D01*
X3886638D01*
X3968943Y6618943D01*
X3852270Y6536638D02*
X3869454Y6519455D01*
X3998676Y6648676D02*
X4025043D01*
X3968943Y6557852D02*
Y6618943D01*
X4025043Y6648676D02*
X4029827Y6653459D01*
X3968943Y6618943D02*
X3998676Y6648676D01*
X4030000Y6650000D02*
X4031324Y6648676D01*
X4061324D02*
X4120000Y6590000D01*
X4031324Y6648676D02*
X4061324D01*
X3720000Y5520000D02*
Y5672512D01*
X3781560Y5734072D01*
X3947730Y6536638D02*
X3968943Y6557852D01*
X4336639Y6052270D02*
X4357852Y6031057D01*
X3604783Y6289151D02*
X3666655Y6227279D01*
Y6177782D02*
Y6227279D01*
X3930052Y6381075D02*
Y6448250D01*
X3983085Y6501283D01*
X3930052Y6381075D02*
X3977782Y6333345D01*
X4248250Y6069948D02*
X4301283Y6016915D01*
X4181075Y6069948D02*
X4248250D01*
X4133345Y6022218D02*
X4181075Y6069948D01*
X3816915Y5698717D02*
X3977782Y5859583D01*
Y5866655D01*
X4012500Y4827855D02*
X4057855D01*
X4096981Y4866981D01*
Y4903746D02*
X4101765Y4908529D01*
X4012500Y4820500D02*
Y4827855D01*
X4096981Y4866981D02*
Y4903746D01*
X3940500Y4960000D02*
X4012500Y5032000D01*
X4005000Y4657500D02*
X4102500Y4560000D01*
X3922500Y4657500D02*
X4005000D01*
X4102500Y4560000D02*
X4110000D01*
X3787500Y5099500D02*
X3832500D01*
X3922500Y5228462D02*
X3994038Y5300000D01*
X3995000D02*
X4035000Y5340000D01*
X3922500Y5099500D02*
Y5228462D01*
X3994038Y5300000D02*
X3995000D01*
X3967500Y5099500D02*
Y5172500D01*
X4035000Y5240000D01*
X4012500Y5032000D02*
Y5099500D01*
X3900000Y4960000D02*
X3940500D01*
X3887500Y4188462D02*
X3915000Y4160962D01*
X3855000Y4230000D02*
X3887500Y4197500D01*
Y4188462D02*
Y4197500D01*
X3915000Y4150000D02*
X3945000Y4120000D01*
X3855000Y4230000D02*
Y4240000D01*
X3877500Y4702500D02*
Y4820500D01*
Y4702500D02*
X3922500Y4657500D01*
X3832500Y4620000D02*
X3892500Y4560000D01*
X3900000D01*
X3832500Y4620000D02*
Y4820500D01*
X3787500Y4650000D02*
Y4820500D01*
X3697500Y4560000D02*
X3787500Y4650000D01*
X3690000Y4560000D02*
X3697500D01*
D43*
X3350000Y8880000D02*
Y9020000D01*
X3440000Y5140000D02*
Y5252595D01*
X3940500Y4960000D02*
X4033865D01*
X4190000Y5000000D02*
Y5090000D01*
X3600000Y5134500D02*
Y5140000D01*
Y5134500D02*
X3635000Y5099500D01*
X3787500D01*
X3900000Y4400000D02*
X4005000D01*
X4110000D01*
X3700001Y4284593D02*
Y4389999D01*
X3690000Y4400000D02*
X3795000D01*
X3690000D02*
X3700001Y4389999D01*
X3795000Y4400000D02*
X3900000D01*
X4315000Y3430000D02*
X4490000D01*
X4380000Y3270000D02*
Y3365000D01*
D44*
X3220000Y3655000D02*
X3320000Y3755000D01*
Y3780000D01*
X3220000Y2970500D02*
Y3655000D01*
X3468000Y2667500D02*
Y2722500D01*
X3220000Y2970500D02*
X3468000Y2722500D01*
Y2249500D02*
Y2667500D01*
Y2249500D02*
X4332000D01*
Y2667500D01*
D45*
Y2249500D02*
D03*
X3468000D02*
D03*
D46*
X4332000Y2667500D02*
D03*
X3468000D02*
D03*
D47*
X4189000Y2617500D02*
D03*
X3611000D02*
D03*
D48*
X4580000Y6850000D02*
D03*
X4072000Y6748500D02*
D03*
Y6951500D02*
D03*
D49*
X4650000Y6150000D02*
D03*
X3640000Y7880000D02*
D03*
X4520000Y9520000D02*
D03*
X4499999Y10499997D02*
D03*
X4649999Y10199997D02*
D03*
X4499999Y9899997D02*
D03*
X4649999Y9599997D02*
D03*
Y8999997D02*
D03*
Y8399997D02*
D03*
X4499999Y5099998D02*
D03*
Y3299999D02*
D03*
X4649999Y2999999D02*
D03*
X4499999Y2699999D02*
D03*
X4199999Y10499997D02*
D03*
Y2099999D02*
D03*
X3899999Y10499997D02*
D03*
X4049999Y10199997D02*
D03*
Y7799998D02*
D03*
Y2399999D02*
D03*
X3599999Y10499997D02*
D03*
Y9899997D02*
D03*
X3749999Y7799998D02*
D03*
Y2399999D02*
D03*
X3599999Y2099999D02*
D03*
X3299999Y10499997D02*
D03*
X3449999Y10199997D02*
D03*
X3299999Y9899997D02*
D03*
Y8099998D02*
D03*
X3449999Y3599999D02*
D03*
X3299999Y2699999D02*
D03*
X4060000Y5470000D02*
D03*
X4130000Y5520000D02*
D03*
X4190000Y5470000D02*
D03*
X4749601Y5579157D02*
D03*
X4270298Y5830297D02*
D03*
X4699600Y6320400D02*
D03*
X4585837Y6539331D02*
D03*
X4530000Y6590000D02*
D03*
X4379600Y6271700D02*
D03*
X4306400Y6590000D02*
D03*
X3460000Y6320000D02*
D03*
X3695046Y6507100D02*
D03*
X3250000Y6170000D02*
D03*
X3069600Y5340000D02*
D03*
X3440000Y6600000D02*
D03*
X3779680Y7219600D02*
D03*
X4450000Y7000000D02*
D03*
X4540000Y7040000D02*
D03*
X4480400Y6680000D02*
D03*
X4590000D02*
D03*
X4610000Y7470000D02*
D03*
Y7580000D02*
D03*
X4609600Y7370000D02*
D03*
X4590000Y7790000D02*
D03*
X3510400Y7210000D02*
D03*
X3514304Y7052105D02*
D03*
X4264600Y7209952D02*
D03*
X4200000Y7000000D02*
D03*
X4749601Y6240000D02*
D03*
X4315014Y7598698D02*
D03*
X4160000Y7600000D02*
D03*
X3261600Y7300000D02*
D03*
X4490000Y7990000D02*
D03*
X4630000Y8290000D02*
D03*
Y8200000D02*
D03*
X3390000Y8320000D02*
D03*
X3330000Y8390000D02*
D03*
X4410000Y8320400D02*
D03*
X3180000Y8460000D02*
D03*
X3557500Y8527500D02*
D03*
X3400000Y8550000D02*
D03*
X3550000Y8780000D02*
D03*
X3400000Y8710400D02*
D03*
X3180000Y8725400D02*
D03*
Y8650000D02*
D03*
X3240000Y8800000D02*
D03*
X3250000Y6560000D02*
D03*
X3180000Y8250000D02*
D03*
X3170000Y9190000D02*
D03*
X3283936Y9215213D02*
D03*
X4190000Y9340000D02*
D03*
X3900000Y2130000D02*
D03*
X3595587Y4271913D02*
D03*
X4630000Y8110000D02*
D03*
X4440000Y6200000D02*
D03*
X4403600Y6100000D02*
D03*
X4511682Y7292900D02*
D03*
X4310000Y6670000D02*
D03*
X4347155Y5830000D02*
D03*
X4390400Y5510000D02*
D03*
X4030000Y6850000D02*
D03*
X4033600Y6578154D02*
D03*
X4029827Y6653459D02*
D03*
X4130000Y5410000D02*
D03*
X3772900Y6610000D02*
D03*
X3984417Y5440000D02*
D03*
X3390000Y7700800D02*
D03*
X3650000Y7640400D02*
D03*
X3900000Y7580000D02*
D03*
X3650000Y5640000D02*
D03*
X3300000Y5030000D02*
D03*
X3441686Y6231841D02*
D03*
X3469600Y5890000D02*
D03*
X3320000Y7199600D02*
D03*
X3530000Y5840000D02*
D03*
X4410000Y8179600D02*
D03*
X4190000Y8050000D02*
D03*
X3540000Y8880000D02*
D03*
X3590000Y9050000D02*
D03*
X3280000Y9520000D02*
D03*
X4220000Y6670000D02*
D03*
X4560000Y5650000D02*
D03*
X4510000Y6000000D02*
D03*
X3740000Y5010000D02*
D03*
X4101765Y4908529D02*
D03*
X3730000Y5190000D02*
D03*
X4165418Y4675400D02*
D03*
X4080000D02*
D03*
X4020000Y4244600D02*
D03*
X4320000Y4291900D02*
D03*
X3330000Y4720000D02*
D03*
X4030000Y4080000D02*
D03*
X3570000Y4680000D02*
D03*
X3730000Y4210000D02*
D03*
X3770000Y4080000D02*
D03*
X3710400Y4137192D02*
D03*
X4400000Y4291900D02*
D03*
X3280000Y4310000D02*
D03*
X4206811Y3162024D02*
D03*
X4140000Y3270000D02*
D03*
X3810000Y3590000D02*
D03*
X3990000D02*
D03*
X4522209Y3656072D02*
D03*
X3990000Y3170000D02*
D03*
X3600000D02*
D03*
X3810000D02*
D03*
X4122100Y3100000D02*
D03*
X4430000D02*
D03*
X3370000D02*
D03*
X3677900D02*
D03*
X3996201Y2619025D02*
D03*
X3875401Y2626079D02*
D03*
X4021484Y2821856D02*
D03*
X4210000Y2820000D02*
D03*
X3725000Y2818765D02*
D03*
X3584200Y2820000D02*
D03*
D50*
X3980000Y5910000D02*
D03*
X3820000D02*
D03*
X4160000Y6100000D02*
D03*
X3980000D02*
D03*
X3820000D02*
D03*
X3640000D02*
D03*
X3980000Y6290000D02*
D03*
X3820000D02*
D03*
X3900000Y5560000D02*
D03*
X3670000Y8260000D02*
D03*
X3440000Y5252595D02*
D03*
X3560000Y5360000D02*
D03*
X4033865Y4960000D02*
D03*
X4190000Y5090000D02*
D03*
X3674600Y4659181D02*
D03*
X4402674Y4510000D02*
D03*
X4005000Y4400000D02*
D03*
X3280000Y4490000D02*
D03*
X3700001Y4284593D02*
D03*
X3795000Y4400000D02*
D03*
X4190000Y3960000D02*
D03*
X4470000D02*
D03*
X3470000Y3930000D02*
D03*
X3600000D02*
D03*
X3900000Y3850000D02*
D03*
Y3610000D02*
D03*
X3990000Y2900000D02*
D03*
X3780000D02*
D03*
%TF.MD5,e3abf678eb5e5cafd644796a40f2a2e4*%
M02*
