%TF.GenerationSoftware,Altium Limited,Altium Designer,24.2.2 (26)*%
G04 Layer_Physical_Order=2*
G04 Layer_Color=32768*
%FSLAX45Y45*%
%MOMM*%
%TF.SameCoordinates,505FE19A-96A0-4540-A324-069B6CBC3D10*%
%TF.FilePolarity,Negative*%
%TF.FileFunction,Copper,L2,Inr,Plane*%
%TF.Part,Single*%
G01*
G75*
%TA.AperFunction,NonConductor*%
%ADD51C,1.01600*%
%TA.AperFunction,ComponentPad*%
%ADD52O,1.60000X2.40000*%
%ADD53O,1.60000X2.70000*%
%ADD54C,1.65000*%
%ADD55C,2.00000*%
%TA.AperFunction,ViaPad*%
%ADD56C,1.30000*%
%ADD57C,1.40000*%
D51*
X3000000Y2850000D02*
G03*
X4800000Y2850000I900000J0D01*
G01*
Y10050000D02*
G03*
X3000000Y10050000I-900000J0D01*
G01*
X4800000Y2850000D02*
Y10050000D01*
X3000000Y2850000D02*
Y10050000D01*
D52*
X4332000Y2249500D02*
D03*
X3468000D02*
D03*
D53*
X4332000Y2667500D02*
D03*
X3468000D02*
D03*
D54*
X4189000Y2617500D02*
D03*
X3611000D02*
D03*
D55*
X4580000Y6850000D02*
D03*
X4072000Y6748500D02*
D03*
Y6951500D02*
D03*
D56*
X3640000Y7880000D02*
D03*
X4060000Y5470000D02*
D03*
X4130000Y5520000D02*
D03*
X4190000Y5470000D02*
D03*
X4749601Y5579157D02*
D03*
X4270298Y5830297D02*
D03*
X4699600Y6320400D02*
D03*
X4585837Y6539331D02*
D03*
X4530000Y6590000D02*
D03*
X4379600Y6271700D02*
D03*
X4306400Y6590000D02*
D03*
X3460000Y6320000D02*
D03*
X3695046Y6507100D02*
D03*
X3069600Y5340000D02*
D03*
X3779680Y7219600D02*
D03*
X4450000Y7000000D02*
D03*
X4480400Y6680000D02*
D03*
X4590000D02*
D03*
X4610000Y7580000D02*
D03*
X4609600Y7370000D02*
D03*
X3510400Y7210000D02*
D03*
X3514304Y7052105D02*
D03*
X4264600Y7209952D02*
D03*
X4749601Y6240000D02*
D03*
X4490000Y7990000D02*
D03*
X4630000Y8290000D02*
D03*
Y8200000D02*
D03*
X3390000Y8320000D02*
D03*
X3330000Y8390000D02*
D03*
X4410000Y8320400D02*
D03*
X3180000Y8460000D02*
D03*
X3557500Y8527500D02*
D03*
X3400000Y8550000D02*
D03*
X3180000Y8725400D02*
D03*
Y8650000D02*
D03*
X3240000Y8800000D02*
D03*
X3250000Y6560000D02*
D03*
X3180000Y8250000D02*
D03*
X3170000Y9190000D02*
D03*
X4190000Y9340000D02*
D03*
X3595587Y4271913D02*
D03*
X4440000Y6200000D02*
D03*
X4403600Y6100000D02*
D03*
X4511682Y7292900D02*
D03*
X4310000Y6670000D02*
D03*
X4347155Y5830000D02*
D03*
X4390400Y5510000D02*
D03*
X4033600Y6578154D02*
D03*
X4029827Y6653459D02*
D03*
X3772900Y6610000D02*
D03*
X3984417Y5440000D02*
D03*
X3390000Y7700800D02*
D03*
X3650000Y7640400D02*
D03*
X3900000Y7580000D02*
D03*
X3650000Y5640000D02*
D03*
X3300000Y5030000D02*
D03*
X3441686Y6231841D02*
D03*
X3469600Y5890000D02*
D03*
X3530000Y5840000D02*
D03*
X4190000Y8050000D02*
D03*
X4510000Y6000000D02*
D03*
X3740000Y5010000D02*
D03*
X4101765Y4908529D02*
D03*
X3730000Y5190000D02*
D03*
X4165418Y4675400D02*
D03*
X4080000D02*
D03*
X4020000Y4244600D02*
D03*
X4320000Y4291900D02*
D03*
X3330000Y4720000D02*
D03*
X4030000Y4080000D02*
D03*
X3730000Y4210000D02*
D03*
X3770000Y4080000D02*
D03*
X3710400Y4137192D02*
D03*
X3280000Y4310000D02*
D03*
X4206811Y3162024D02*
D03*
X4140000Y3270000D02*
D03*
X3810000Y3590000D02*
D03*
X3990000D02*
D03*
X4522209Y3656072D02*
D03*
X3990000Y3170000D02*
D03*
X3600000D02*
D03*
X3810000D02*
D03*
X3996201Y2619025D02*
D03*
X3875401Y2626079D02*
D03*
X4021484Y2821856D02*
D03*
X3725000Y2818765D02*
D03*
D57*
X3900000Y5560000D02*
D03*
X3670000Y8260000D02*
D03*
X4190000Y5090000D02*
D03*
X3674600Y4659181D02*
D03*
X4190000Y3960000D02*
D03*
X4470000D02*
D03*
X3900000Y3610000D02*
D03*
X3990000Y2900000D02*
D03*
X3780000D02*
D03*
%TF.MD5,2565f3df665863fd768559f78b10526c*%
M02*
