%TF.GenerationSoftware,Altium Limited,Altium Designer,24.2.2 (26)*%
G04 Layer_Color=0*
%FSLAX45Y45*%
%MOMM*%
%TF.SameCoordinates,505FE19A-96A0-4540-A324-069B6CBC3D10*%
%TF.FilePolarity,Positive*%
%TF.FileFunction,Plated,1,4,PTH,Drill*%
%TF.Part,Single*%
G01*
G75*
%TA.AperFunction,ComponentDrill*%
%ADD103O,0.60000X1.40000*%
%ADD104O,0.60000X1.70000*%
%TA.AperFunction,ViaDrill,NotFilled*%
%ADD105C,0.30000*%
%ADD106C,0.40000*%
D103*
X4332000Y2249500D02*
D03*
X3468000D02*
D03*
D104*
X4332000Y2667500D02*
D03*
X3468000D02*
D03*
D105*
X4650000Y6150000D02*
D03*
X3640000Y7880000D02*
D03*
X4520000Y9520000D02*
D03*
X4499999Y10499997D02*
D03*
X4649999Y10199997D02*
D03*
X4499999Y9899997D02*
D03*
X4649999Y9599997D02*
D03*
Y8999997D02*
D03*
Y8399997D02*
D03*
X4499999Y5099998D02*
D03*
Y3299999D02*
D03*
X4649999Y2999999D02*
D03*
X4499999Y2699999D02*
D03*
X4199999Y10499997D02*
D03*
Y2099999D02*
D03*
X3899999Y10499997D02*
D03*
X4049999Y10199997D02*
D03*
Y7799998D02*
D03*
Y2399999D02*
D03*
X3599999Y10499997D02*
D03*
Y9899997D02*
D03*
X3749999Y7799998D02*
D03*
Y2399999D02*
D03*
X3599999Y2099999D02*
D03*
X3299999Y10499997D02*
D03*
X3449999Y10199997D02*
D03*
X3299999Y9899997D02*
D03*
Y8099998D02*
D03*
X3449999Y3599999D02*
D03*
X3299999Y2699999D02*
D03*
X4060000Y5470000D02*
D03*
X4130000Y5520000D02*
D03*
X4190000Y5470000D02*
D03*
X4749601Y5579157D02*
D03*
X4270298Y5830297D02*
D03*
X4699600Y6320400D02*
D03*
X4585837Y6539331D02*
D03*
X4530000Y6590000D02*
D03*
X4379600Y6271700D02*
D03*
X4306400Y6590000D02*
D03*
X3460000Y6320000D02*
D03*
X3695046Y6507100D02*
D03*
X3250000Y6170000D02*
D03*
X3069600Y5340000D02*
D03*
X3440000Y6600000D02*
D03*
X3779680Y7219600D02*
D03*
X4450000Y7000000D02*
D03*
X4540000Y7040000D02*
D03*
X4480400Y6680000D02*
D03*
X4590000D02*
D03*
X4610000Y7470000D02*
D03*
Y7580000D02*
D03*
X4609600Y7370000D02*
D03*
X4590000Y7790000D02*
D03*
X3510400Y7210000D02*
D03*
X3514304Y7052105D02*
D03*
X4264600Y7209952D02*
D03*
X4200000Y7000000D02*
D03*
X4749601Y6240000D02*
D03*
X4315014Y7598698D02*
D03*
X4160000Y7600000D02*
D03*
X3261600Y7300000D02*
D03*
X4490000Y7990000D02*
D03*
X4630000Y8290000D02*
D03*
Y8200000D02*
D03*
X3390000Y8320000D02*
D03*
X3330000Y8390000D02*
D03*
X4410000Y8320400D02*
D03*
X3180000Y8460000D02*
D03*
X3557500Y8527500D02*
D03*
X3400000Y8550000D02*
D03*
X3550000Y8780000D02*
D03*
X3400000Y8710400D02*
D03*
X3180000Y8725400D02*
D03*
Y8650000D02*
D03*
X3240000Y8800000D02*
D03*
X3250000Y6560000D02*
D03*
X3180000Y8250000D02*
D03*
X3170000Y9190000D02*
D03*
X3283936Y9215213D02*
D03*
X4190000Y9340000D02*
D03*
X3900000Y2130000D02*
D03*
X3595587Y4271913D02*
D03*
X4630000Y8110000D02*
D03*
X4440000Y6200000D02*
D03*
X4403600Y6100000D02*
D03*
X4511682Y7292900D02*
D03*
X4310000Y6670000D02*
D03*
X4347155Y5830000D02*
D03*
X4390400Y5510000D02*
D03*
X4030000Y6850000D02*
D03*
X4033600Y6578154D02*
D03*
X4029827Y6653459D02*
D03*
X4130000Y5410000D02*
D03*
X3772900Y6610000D02*
D03*
X3984417Y5440000D02*
D03*
X3390000Y7700800D02*
D03*
X3650000Y7640400D02*
D03*
X3900000Y7580000D02*
D03*
X3650000Y5640000D02*
D03*
X3300000Y5030000D02*
D03*
X3441686Y6231841D02*
D03*
X3469600Y5890000D02*
D03*
X3320000Y7199600D02*
D03*
X3530000Y5840000D02*
D03*
X4410000Y8179600D02*
D03*
X4190000Y8050000D02*
D03*
X3540000Y8880000D02*
D03*
X3590000Y9050000D02*
D03*
X3280000Y9520000D02*
D03*
X4220000Y6670000D02*
D03*
X4560000Y5650000D02*
D03*
X4510000Y6000000D02*
D03*
X3740000Y5010000D02*
D03*
X4101765Y4908529D02*
D03*
X3730000Y5190000D02*
D03*
X4165418Y4675400D02*
D03*
X4080000D02*
D03*
X4020000Y4244600D02*
D03*
X4320000Y4291900D02*
D03*
X3330000Y4720000D02*
D03*
X4030000Y4080000D02*
D03*
X3570000Y4680000D02*
D03*
X3730000Y4210000D02*
D03*
X3770000Y4080000D02*
D03*
X3710400Y4137192D02*
D03*
X4400000Y4291900D02*
D03*
X3280000Y4310000D02*
D03*
X4206811Y3162024D02*
D03*
X4140000Y3270000D02*
D03*
X3810000Y3590000D02*
D03*
X3990000D02*
D03*
X4522209Y3656072D02*
D03*
X3990000Y3170000D02*
D03*
X3600000D02*
D03*
X3810000D02*
D03*
X4122100Y3100000D02*
D03*
X4430000D02*
D03*
X3370000D02*
D03*
X3677900D02*
D03*
X3996201Y2619025D02*
D03*
X3875401Y2626079D02*
D03*
X4021484Y2821856D02*
D03*
X4210000Y2820000D02*
D03*
X3725000Y2818765D02*
D03*
X3584200Y2820000D02*
D03*
D106*
X3980000Y5910000D02*
D03*
X3820000D02*
D03*
X4160000Y6100000D02*
D03*
X3980000D02*
D03*
X3820000D02*
D03*
X3640000D02*
D03*
X3980000Y6290000D02*
D03*
X3820000D02*
D03*
X3900000Y5560000D02*
D03*
X3670000Y8260000D02*
D03*
X3440000Y5252595D02*
D03*
X3560000Y5360000D02*
D03*
X4033865Y4960000D02*
D03*
X4190000Y5090000D02*
D03*
X3674600Y4659181D02*
D03*
X4402674Y4510000D02*
D03*
X4005000Y4400000D02*
D03*
X3280000Y4490000D02*
D03*
X3700001Y4284593D02*
D03*
X3795000Y4400000D02*
D03*
X4190000Y3960000D02*
D03*
X4470000D02*
D03*
X3470000Y3930000D02*
D03*
X3600000D02*
D03*
X3900000Y3850000D02*
D03*
Y3610000D02*
D03*
X3990000Y2900000D02*
D03*
X3780000D02*
D03*
%TF.MD5,c02a11a5253840363c28c84dc43551a0*%
M02*
