%TF.GenerationSoftware,Altium Limited,Altium Designer,24.2.2 (26)*%
G04 Layer_Physical_Order=4*
G04 Layer_Color=16711680*
%FSLAX45Y45*%
%MOMM*%
%TF.SameCoordinates,505FE19A-96A0-4540-A324-069B6CBC3D10*%
%TF.FilePolarity,Positive*%
%TF.FileFunction,Copper,L4,Bot,Signal*%
%TF.Part,Single*%
G01*
G75*
%TA.AperFunction,Conductor*%
%ADD40C,0.40000*%
%ADD41C,0.20000*%
%TA.AperFunction,ComponentPad*%
G04:AMPARAMS|DCode=45|XSize=1mm|YSize=1.8mm|CornerRadius=0.5mm|HoleSize=0mm|Usage=FLASHONLY|Rotation=180.000|XOffset=0mm|YOffset=0mm|HoleType=Round|Shape=RoundedRectangle|*
%AMROUNDEDRECTD45*
21,1,1.00000,0.80000,0,0,180.0*
21,1,0.00000,1.80000,0,0,180.0*
1,1,1.00000,0.00000,0.40000*
1,1,1.00000,0.00000,0.40000*
1,1,1.00000,0.00000,-0.40000*
1,1,1.00000,0.00000,-0.40000*
%
%ADD45ROUNDEDRECTD45*%
G04:AMPARAMS|DCode=46|XSize=1mm|YSize=2.1mm|CornerRadius=0.5mm|HoleSize=0mm|Usage=FLASHONLY|Rotation=180.000|XOffset=0mm|YOffset=0mm|HoleType=Round|Shape=RoundedRectangle|*
%AMROUNDEDRECTD46*
21,1,1.00000,1.10000,0,0,180.0*
21,1,0.00000,2.10000,0,0,180.0*
1,1,1.00000,0.00000,0.55000*
1,1,1.00000,0.00000,0.55000*
1,1,1.00000,0.00000,-0.55000*
1,1,1.00000,0.00000,-0.55000*
%
%ADD46ROUNDEDRECTD46*%
%ADD47C,0.65000*%
%ADD48C,1.00000*%
%TA.AperFunction,ViaPad*%
%ADD49C,0.50000*%
%ADD50C,0.60000*%
%TA.AperFunction,SMDPad,CuDef*%
%ADD59R,0.30000X1.15000*%
%ADD60R,0.60000X1.15000*%
%ADD61R,1.60000X3.00000*%
G04:AMPARAMS|DCode=62|XSize=3.5mm|YSize=2mm|CornerRadius=0.5mm|HoleSize=0mm|Usage=FLASHONLY|Rotation=270.000|XOffset=0mm|YOffset=0mm|HoleType=Round|Shape=RoundedRectangle|*
%AMROUNDEDRECTD62*
21,1,3.50000,1.00000,0,0,270.0*
21,1,2.50001,2.00000,0,0,270.0*
1,1,1.00000,-0.50000,-1.25000*
1,1,1.00000,-0.50000,1.25000*
1,1,1.00000,0.50000,1.25000*
1,1,1.00000,0.50000,-1.25000*
%
%ADD62ROUNDEDRECTD62*%
G36*
X4024730Y10890845D02*
X4106542Y10874571D01*
X4186371Y10850355D01*
X4263440Y10818433D01*
X4337011Y10779108D01*
X4406372Y10732763D01*
X4470855Y10679842D01*
X4529843Y10620855D01*
X4582763Y10556372D01*
X4629108Y10487011D01*
X4668432Y10413442D01*
X4700355Y10336372D01*
X4724571Y10256542D01*
X4740845Y10174729D01*
X4749022Y10091709D01*
Y10050000D01*
Y8618616D01*
X4737288Y8613755D01*
X4635522Y8715522D01*
X4623812Y8723346D01*
X4610000Y8726093D01*
X3534951D01*
X3464722Y8796322D01*
X3453013Y8804146D01*
X3439200Y8806893D01*
X3360801D01*
X3360800Y8806893D01*
X3346987Y8804146D01*
X3335278Y8796322D01*
X3301088Y8762132D01*
X3289558Y8763295D01*
X3283887Y8774252D01*
X3290400Y8789975D01*
Y8810025D01*
X3282727Y8828549D01*
X3268549Y8842727D01*
X3250025Y8850400D01*
X3229975D01*
X3211451Y8842727D01*
X3197273Y8828549D01*
X3189600Y8810025D01*
Y8789975D01*
X3190250Y8788407D01*
X3181725Y8775800D01*
X3169975D01*
X3151451Y8768127D01*
X3137273Y8753949D01*
X3129600Y8735425D01*
Y8715375D01*
X3137273Y8696851D01*
X3146424Y8687700D01*
X3137273Y8678549D01*
X3129600Y8660025D01*
Y8639975D01*
X3137273Y8621451D01*
X3151451Y8607273D01*
X3169975Y8599600D01*
X3190025D01*
X3208549Y8607273D01*
X3215183Y8613907D01*
X4565449D01*
X4683907Y8495449D01*
Y8323963D01*
X4678371Y8321282D01*
X4671207Y8320069D01*
X4658549Y8332727D01*
X4640025Y8340400D01*
X4630644D01*
X4515522Y8455522D01*
X4503812Y8463346D01*
X4490000Y8466093D01*
X3574139D01*
X3571613Y8478793D01*
X3586049Y8484773D01*
X3600227Y8498951D01*
X3607900Y8517475D01*
Y8537525D01*
X3600227Y8556049D01*
X3586049Y8570227D01*
X3567525Y8577900D01*
X3547475D01*
X3528951Y8570227D01*
X3514773Y8556049D01*
X3507100Y8537525D01*
Y8517475D01*
X3514773Y8498951D01*
X3528951Y8484773D01*
X3543387Y8478793D01*
X3540861Y8466093D01*
X3370000D01*
X3356187Y8463346D01*
X3344478Y8455522D01*
X3329356Y8440400D01*
X3319975D01*
X3301451Y8432727D01*
X3287273Y8418549D01*
X3279600Y8400025D01*
Y8379975D01*
X3287273Y8361451D01*
X3301451Y8347273D01*
X3319975Y8339600D01*
X3329820D01*
X3339600Y8330025D01*
Y8309975D01*
X3347273Y8291451D01*
X3361451Y8277273D01*
X3379975Y8269600D01*
X3400025D01*
X3418549Y8277273D01*
X3432727Y8291451D01*
X3440400Y8309975D01*
Y8319356D01*
X3465750Y8344706D01*
X4350883D01*
X4356143Y8332006D01*
X4159181Y8135045D01*
X4149147Y8120027D01*
X4145623Y8102313D01*
X4145624Y8102312D01*
Y8074567D01*
X4139600Y8060025D01*
Y8039975D01*
X4147273Y8021451D01*
X4161451Y8007273D01*
X4179975Y7999600D01*
X4200025D01*
X4218549Y8007273D01*
X4232727Y8021451D01*
X4240400Y8039975D01*
Y8060025D01*
X4238203Y8065330D01*
Y8083139D01*
X4428626Y8273563D01*
X4438549Y8277673D01*
X4452727Y8291851D01*
X4457536Y8303460D01*
X4472133Y8306823D01*
X4579600Y8199356D01*
Y8189975D01*
X4587273Y8171451D01*
X4601451Y8157273D01*
X4619975Y8149600D01*
X4640025D01*
X4658549Y8157273D01*
X4671207Y8169931D01*
X4678371Y8168718D01*
X4683907Y8166037D01*
Y7863731D01*
X4672173Y7858870D01*
X4540400Y7990644D01*
Y8000025D01*
X4532727Y8018549D01*
X4518549Y8032727D01*
X4500025Y8040400D01*
X4479975D01*
X4461451Y8032727D01*
X4447273Y8018549D01*
X4439600Y8000025D01*
Y7979975D01*
X4447273Y7961451D01*
X4461451Y7947273D01*
X4479975Y7939600D01*
X4489356D01*
X4643907Y7785049D01*
Y7633963D01*
X4631206Y7625768D01*
X4620025Y7630400D01*
X4599975D01*
X4581451Y7622727D01*
X4567273Y7608549D01*
X4559600Y7590025D01*
Y7569975D01*
X4567273Y7551451D01*
X4581451Y7537273D01*
X4599975Y7529600D01*
X4620025D01*
X4631206Y7534232D01*
X4643907Y7526037D01*
Y7423563D01*
X4631206Y7415603D01*
X4619625Y7420400D01*
X4599575D01*
X4581051Y7412727D01*
X4566873Y7398549D01*
X4559200Y7380025D01*
Y7359975D01*
X4552535Y7350000D01*
X4513400D01*
Y7575400D01*
X4302600D01*
Y7259822D01*
X4289900Y7254025D01*
X4274625Y7260352D01*
X4259400D01*
Y7387300D01*
X4154000D01*
X4048600D01*
Y7224600D01*
X4116963D01*
X4121823Y7212867D01*
X3988956Y7080000D01*
X3940000D01*
Y7039996D01*
X3928058Y7029214D01*
X3921020Y7030024D01*
X3793577Y7157467D01*
X3796846Y7172158D01*
X3808229Y7176873D01*
X3822407Y7191051D01*
X3830080Y7209575D01*
Y7224600D01*
X4005400D01*
Y7575400D01*
X3950400D01*
Y7590025D01*
X3942727Y7608549D01*
X3928549Y7622727D01*
X3910025Y7630400D01*
X3889975D01*
X3871451Y7622727D01*
X3857273Y7608549D01*
X3849600Y7590025D01*
Y7575400D01*
X3794600D01*
Y7273271D01*
X3789705Y7270000D01*
X3769655D01*
X3761960Y7266812D01*
X3751400Y7273868D01*
Y7575400D01*
X3696290D01*
Y7620451D01*
X3700400Y7630375D01*
Y7650425D01*
X3692727Y7668949D01*
X3678549Y7683127D01*
X3660025Y7690800D01*
X3639975D01*
X3621451Y7683127D01*
X3607273Y7668949D01*
X3599600Y7650425D01*
Y7630375D01*
X3603711Y7620451D01*
Y7575400D01*
X3540600D01*
Y7265790D01*
X3527900Y7257304D01*
X3520425Y7260400D01*
X3500375D01*
X3497400Y7262388D01*
Y7575400D01*
X3436290D01*
Y7680851D01*
X3440400Y7690775D01*
Y7710825D01*
X3432727Y7729349D01*
X3418549Y7743527D01*
X3400025Y7751200D01*
X3379975D01*
X3361451Y7743527D01*
X3347273Y7729349D01*
X3339600Y7710825D01*
Y7690775D01*
X3343711Y7680851D01*
Y7575400D01*
X3286600D01*
Y7224600D01*
X3456943D01*
X3460000Y7220025D01*
Y7199975D01*
X3467673Y7181451D01*
X3481851Y7167273D01*
X3500375Y7159600D01*
X3520425D01*
X3538949Y7167273D01*
X3545583Y7173907D01*
X3675050D01*
X3746129Y7102827D01*
X3741269Y7091094D01*
X3546592D01*
X3542854Y7094831D01*
X3524330Y7102504D01*
X3504279D01*
X3485755Y7094831D01*
X3471578Y7080654D01*
X3463904Y7062130D01*
Y7058851D01*
X3454356Y7050477D01*
X3450000Y7051051D01*
X3350000D01*
X3330316Y7048460D01*
X3311975Y7040862D01*
X3296224Y7028776D01*
X3284138Y7013026D01*
X3276541Y6994684D01*
X3273949Y6975000D01*
Y6806689D01*
X3150841D01*
X3150840Y6806690D01*
X3133125Y6803166D01*
X3118108Y6793132D01*
X3118107Y6793131D01*
X3062712Y6737736D01*
X3050978Y6742596D01*
Y10050000D01*
Y10091709D01*
X3059155Y10174730D01*
X3075429Y10256542D01*
X3099644Y10336371D01*
X3131567Y10413440D01*
X3170892Y10487011D01*
X3217237Y10556372D01*
X3270157Y10620855D01*
X3329144Y10679842D01*
X3393628Y10732763D01*
X3462989Y10779108D01*
X3536558Y10818432D01*
X3613628Y10850355D01*
X3693458Y10874571D01*
X3775270Y10890845D01*
X3858291Y10899022D01*
X3941708D01*
X4024730Y10890845D01*
D02*
G37*
G36*
X3672700Y6648949D02*
X3710000D01*
X3724524Y6650861D01*
X3730456Y6638833D01*
X3730173Y6638549D01*
X3722500Y6620025D01*
Y6599975D01*
X3730173Y6581451D01*
X3736807Y6574817D01*
Y6553209D01*
X3725073Y6548349D01*
X3723595Y6549827D01*
X3705071Y6557500D01*
X3685021D01*
X3666497Y6549827D01*
X3652319Y6535649D01*
X3644646Y6517125D01*
Y6507744D01*
X3622996Y6486093D01*
X3240000D01*
X3226188Y6483346D01*
X3214478Y6475522D01*
X3128023Y6389066D01*
X3116289Y6393927D01*
Y6660386D01*
X3170013Y6714111D01*
X3275383D01*
X3276541Y6705316D01*
X3284138Y6686974D01*
X3296224Y6671224D01*
X3311975Y6659138D01*
X3330316Y6651540D01*
X3350000Y6648949D01*
X3450000D01*
X3469684Y6651540D01*
X3488026Y6659138D01*
X3503776Y6671224D01*
X3515862Y6686974D01*
X3523460Y6705316D01*
X3523595Y6706347D01*
X3536405D01*
X3536541Y6705316D01*
X3544138Y6686974D01*
X3556224Y6671224D01*
X3571975Y6659138D01*
X3590316Y6651540D01*
X3610000Y6648949D01*
X3647300D01*
Y6850000D01*
X3672700D01*
Y6648949D01*
D02*
G37*
G36*
X4277851Y6547273D02*
X4296375Y6539600D01*
X4316425D01*
X4330806Y6545557D01*
X4343507Y6539237D01*
Y6306882D01*
X4336873Y6300249D01*
X4329200Y6281725D01*
Y6261675D01*
X4336873Y6243150D01*
X4351051Y6228973D01*
X4369575Y6221300D01*
X4380524D01*
X4389600Y6210025D01*
Y6189975D01*
X4397273Y6171451D01*
X4407510Y6161214D01*
X4400363Y6150400D01*
X4393575D01*
X4375051Y6142727D01*
X4360873Y6128549D01*
X4353200Y6110025D01*
Y6089975D01*
X4360873Y6071451D01*
X4375051Y6057273D01*
X4393575Y6049600D01*
X4413625D01*
X4432149Y6057273D01*
X4446327Y6071451D01*
X4454000Y6089975D01*
Y6099356D01*
X4458151Y6103507D01*
X4465018D01*
X4478831Y6106254D01*
X4490540Y6114078D01*
X4492573Y6116111D01*
X4504306Y6111251D01*
Y6099600D01*
X4507054Y6085788D01*
X4514878Y6074079D01*
X4528194Y6060763D01*
X4521000Y6049996D01*
X4520025Y6050400D01*
X4499975D01*
X4481451Y6042727D01*
X4467273Y6028549D01*
X4459600Y6010025D01*
Y5989975D01*
X4467273Y5971451D01*
X4481451Y5957273D01*
X4499975Y5949600D01*
X4520025D01*
X4538549Y5957273D01*
X4552727Y5971451D01*
X4560400Y5989975D01*
Y6010025D01*
X4559996Y6010999D01*
X4570763Y6018193D01*
X4593906Y5995050D01*
Y5424131D01*
X4582173Y5419271D01*
X4470922Y5530522D01*
X4459212Y5538346D01*
X4445400Y5541093D01*
X4430583D01*
X4418950Y5552727D01*
X4400425Y5560400D01*
X4380375D01*
X4368794Y5555603D01*
X4356093Y5563563D01*
Y5779600D01*
X4357180D01*
X4375704Y5787273D01*
X4389882Y5801451D01*
X4397555Y5819975D01*
Y5840025D01*
X4389882Y5858549D01*
X4375704Y5872727D01*
X4357180Y5880400D01*
X4337130D01*
X4318606Y5872727D01*
X4308875Y5862996D01*
X4298847Y5873024D01*
X4280323Y5880697D01*
X4260272D01*
X4241748Y5873024D01*
X4227571Y5858847D01*
X4219898Y5840323D01*
Y5820272D01*
X4227571Y5801748D01*
X4241748Y5787571D01*
X4243907Y5786677D01*
Y5512608D01*
X4231207Y5506843D01*
X4226493Y5510964D01*
Y5589600D01*
X4223746Y5603412D01*
X4215922Y5615122D01*
X4096093Y5734950D01*
Y6400000D01*
X4093346Y6413812D01*
X4085522Y6425522D01*
X3976093Y6534950D01*
Y6552099D01*
X3988793Y6554625D01*
X3990873Y6549605D01*
X4005051Y6535427D01*
X4023575Y6527754D01*
X4043625D01*
X4062149Y6535427D01*
X4076327Y6549605D01*
X4078450Y6554730D01*
X4270394D01*
X4277851Y6547273D01*
D02*
G37*
G36*
X3863907Y6466269D02*
Y5765098D01*
X3851207Y5759837D01*
X3776093Y5834950D01*
Y6395049D01*
X3852173Y6471130D01*
X3863907Y6466269D01*
D02*
G37*
G36*
X4023907Y6385049D02*
Y5720000D01*
X4026654Y5706188D01*
X4034478Y5694478D01*
X4145083Y5583873D01*
X4138858Y5572137D01*
X4129370Y5571674D01*
X3936093Y5764950D01*
Y6456269D01*
X3947827Y6461129D01*
X4023907Y6385049D01*
D02*
G37*
G36*
X3703906Y6362521D02*
Y5820000D01*
X3706654Y5806188D01*
X3714478Y5794478D01*
X3882496Y5626460D01*
X3879516Y5611480D01*
X3868619Y5606966D01*
X3853034Y5591382D01*
X3844600Y5571020D01*
Y5548980D01*
X3853034Y5528619D01*
X3868619Y5513034D01*
X3888980Y5504600D01*
X3911020D01*
X3931382Y5513034D01*
X3946966Y5528619D01*
X3951480Y5539516D01*
X3966460Y5542496D01*
X4012141Y5496815D01*
X4004947Y5486049D01*
X3994442Y5490400D01*
X3974392D01*
X3955867Y5482727D01*
X3949234Y5476093D01*
X3864950D01*
X3700400Y5640644D01*
Y5650025D01*
X3692727Y5668549D01*
X3678549Y5682727D01*
X3660025Y5690400D01*
X3639975D01*
X3621451Y5682727D01*
X3607273Y5668549D01*
X3599600Y5650025D01*
Y5629975D01*
X3607273Y5611451D01*
X3598094Y5602949D01*
X3566093Y5634950D01*
Y5804817D01*
X3572727Y5811451D01*
X3580400Y5829975D01*
Y5850025D01*
X3572727Y5868549D01*
X3558549Y5882727D01*
X3540025Y5890400D01*
X3520000D01*
Y5900025D01*
X3512327Y5918549D01*
X3498149Y5932727D01*
X3479625Y5940400D01*
X3459575D01*
X3441051Y5932727D01*
X3426873Y5918549D01*
X3419200Y5900025D01*
Y5879975D01*
X3426873Y5861451D01*
X3433507Y5854817D01*
Y5664131D01*
X3421773Y5659270D01*
X3396093Y5684951D01*
Y6135205D01*
X3442329Y6181441D01*
X3451711D01*
X3470235Y6189114D01*
X3484412Y6203292D01*
X3492085Y6221816D01*
Y6241866D01*
X3484412Y6260390D01*
X3481768Y6263034D01*
X3484246Y6275491D01*
X3488549Y6277273D01*
X3502727Y6291451D01*
X3510400Y6309975D01*
Y6330025D01*
X3502727Y6348549D01*
X3502423Y6348853D01*
X3507283Y6360586D01*
X3670044D01*
X3683856Y6363334D01*
X3691206Y6368245D01*
X3703906Y6362521D01*
D02*
G37*
G36*
X4533907Y5365450D02*
Y3983670D01*
X4521207Y3981143D01*
X4516966Y3991381D01*
X4501381Y4006966D01*
X4481020Y4015400D01*
X4458980D01*
X4438619Y4006966D01*
X4423034Y3991381D01*
X4414600Y3971020D01*
Y3948980D01*
X4423034Y3928619D01*
X4438619Y3913034D01*
X4458980Y3904600D01*
X4481020D01*
X4501381Y3913034D01*
X4516966Y3928619D01*
X4521207Y3938856D01*
X4533907Y3936330D01*
Y3718814D01*
X4521565Y3706472D01*
X4512184D01*
X4493660Y3698799D01*
X4479482Y3684622D01*
X4471809Y3666098D01*
Y3646047D01*
X4479482Y3627523D01*
X4493660Y3613346D01*
X4501213Y3610217D01*
X4504192Y3595236D01*
X4368793Y3459837D01*
X4356093Y3465098D01*
Y4256717D01*
X4362727Y4263351D01*
X4370400Y4281875D01*
Y4301925D01*
X4362727Y4320449D01*
X4348549Y4334627D01*
X4330025Y4342300D01*
X4329937D01*
X4325077Y4354033D01*
X4345522Y4374478D01*
X4353346Y4386188D01*
X4356093Y4400000D01*
Y5456437D01*
X4368794Y5464397D01*
X4380375Y5459600D01*
X4400425D01*
X4418950Y5467273D01*
X4420583Y5468907D01*
X4430450D01*
X4533907Y5365450D01*
D02*
G37*
G36*
X3639975Y5589600D02*
X3649356D01*
X3824478Y5414478D01*
X3836188Y5406654D01*
X3850000Y5403907D01*
X3949234D01*
X3955867Y5397273D01*
X3974392Y5389600D01*
X3994442D01*
X4012966Y5397273D01*
X4027144Y5411451D01*
X4033368Y5426479D01*
X4049975Y5419600D01*
X4070025D01*
X4088549Y5427273D01*
X4102727Y5441451D01*
X4110400Y5459975D01*
Y5463202D01*
X4119975Y5469600D01*
X4139600D01*
Y5459975D01*
X4147273Y5441451D01*
X4161451Y5427273D01*
X4179975Y5419600D01*
X4200025D01*
X4218549Y5427273D01*
X4231207Y5439930D01*
X4238371Y5438718D01*
X4243907Y5436037D01*
Y5132401D01*
X4231207Y5127141D01*
X4221381Y5136966D01*
X4201020Y5145400D01*
X4178980D01*
X4158619Y5136966D01*
X4143034Y5121381D01*
X4134600Y5101020D01*
Y5084404D01*
X4121900Y5079144D01*
X3612950Y5588094D01*
X3621451Y5597273D01*
X3639975Y5589600D01*
D02*
G37*
G36*
X3408272Y6359501D02*
X3409949Y6347886D01*
X3400588Y6341631D01*
X3284878Y6225922D01*
X3277054Y6214212D01*
X3274307Y6200400D01*
Y5073910D01*
X3271451Y5072727D01*
X3257273Y5058549D01*
X3249600Y5040025D01*
Y5019975D01*
X3257273Y5001451D01*
X3271451Y4987273D01*
X3289975Y4979600D01*
X3310025D01*
X3328549Y4987273D01*
X3342727Y5001451D01*
X3350400Y5019975D01*
Y5040025D01*
X3345518Y5051812D01*
X3346493Y5056716D01*
Y5615869D01*
X3358227Y5620729D01*
X3726823Y5252133D01*
X3721963Y5240400D01*
X3719975D01*
X3701451Y5232727D01*
X3687273Y5218549D01*
X3679600Y5200025D01*
Y5190644D01*
X3304478Y4815522D01*
X3296654Y4803812D01*
X3293907Y4790000D01*
Y4755183D01*
X3287273Y4748549D01*
X3279600Y4730025D01*
Y4709975D01*
X3287273Y4691451D01*
X3301451Y4677273D01*
X3319975Y4669600D01*
X3340025D01*
X3358549Y4677273D01*
X3372727Y4691451D01*
X3380400Y4709975D01*
Y4730025D01*
X3372727Y4748549D01*
X3366093Y4755183D01*
Y4775050D01*
X3730644Y5139600D01*
X3740025D01*
X3758549Y5147273D01*
X3771207Y5159930D01*
X3778371Y5158718D01*
X3783907Y5156037D01*
Y5055330D01*
X3771207Y5050069D01*
X3768549Y5052727D01*
X3750025Y5060400D01*
X3729975D01*
X3711451Y5052727D01*
X3697273Y5038549D01*
X3689600Y5020025D01*
Y4999975D01*
X3697273Y4981451D01*
X3703906Y4974817D01*
Y4718436D01*
X3693347Y4711380D01*
X3685620Y4714581D01*
X3663580D01*
X3643219Y4706147D01*
X3627634Y4690562D01*
X3619200Y4670200D01*
Y4648161D01*
X3627634Y4627799D01*
X3643219Y4612215D01*
X3663580Y4603781D01*
X3678761D01*
X3683907Y4597510D01*
Y4382511D01*
X3686654Y4368699D01*
X3694478Y4356989D01*
X3754306Y4297161D01*
Y4265914D01*
X3743747Y4258858D01*
X3740025Y4260400D01*
X3719975D01*
X3701451Y4252727D01*
X3694817Y4246093D01*
X3650874D01*
X3643818Y4256653D01*
X3645987Y4261888D01*
Y4281938D01*
X3638314Y4300463D01*
X3624136Y4314640D01*
X3605612Y4322313D01*
X3585562D01*
X3567038Y4314640D01*
X3552860Y4300463D01*
X3545187Y4281938D01*
Y4261888D01*
X3547355Y4256653D01*
X3540299Y4246093D01*
X3394951D01*
X3330400Y4310644D01*
Y4320025D01*
X3322727Y4338549D01*
X3308549Y4352727D01*
X3290025Y4360400D01*
X3269975D01*
X3251451Y4352727D01*
X3237273Y4338549D01*
X3229600Y4320025D01*
Y4299975D01*
X3237273Y4281451D01*
X3251451Y4267273D01*
X3269975Y4259600D01*
X3279356D01*
X3354478Y4184478D01*
X3366188Y4176654D01*
X3380000Y4173907D01*
X3659245D01*
X3665795Y4161206D01*
X3660000Y4147217D01*
Y4127167D01*
X3667673Y4108643D01*
X3681851Y4094465D01*
X3700375Y4086792D01*
X3719600D01*
Y4069975D01*
X3727273Y4051451D01*
X3741451Y4037273D01*
X3759975Y4029600D01*
X3780025D01*
X3798549Y4037273D01*
X3805183Y4043907D01*
X3940000D01*
X3953812Y4046654D01*
X3965522Y4054478D01*
X3971934Y4060890D01*
X3984390Y4058412D01*
X3987273Y4051451D01*
X4001451Y4037273D01*
X4019975Y4029600D01*
X4040025D01*
X4058549Y4037273D01*
X4072727Y4051451D01*
X4080400Y4069975D01*
Y4090025D01*
X4074738Y4103694D01*
X4257867Y4286823D01*
X4269600Y4281963D01*
Y4281875D01*
X4277273Y4263351D01*
X4283907Y4256717D01*
Y3464950D01*
X4139356Y3320400D01*
X4129975D01*
X4111451Y3312727D01*
X4097273Y3298549D01*
X4089600Y3280025D01*
Y3259975D01*
X4091142Y3256253D01*
X4084086Y3245694D01*
X4029600D01*
X4015787Y3242946D01*
X4004078Y3235122D01*
X3989356Y3220400D01*
X3979975D01*
X3973394Y3217674D01*
X3960693Y3226160D01*
Y3517934D01*
X3961503Y3518743D01*
X3962004Y3519078D01*
X3982526Y3539600D01*
X4000025D01*
X4018549Y3547273D01*
X4032727Y3561451D01*
X4040400Y3579975D01*
Y3600025D01*
X4032727Y3618549D01*
X4018549Y3632727D01*
X4000025Y3640400D01*
X3979975D01*
X3963880Y3633733D01*
X3952232Y3634561D01*
X3949572Y3635090D01*
X3946966Y3641381D01*
X3931382Y3656966D01*
X3911020Y3665400D01*
X3888980D01*
X3868619Y3656966D01*
X3853034Y3641381D01*
X3850428Y3635090D01*
X3847764Y3634560D01*
X3836120Y3633733D01*
X3820025Y3640400D01*
X3799975D01*
X3781451Y3632727D01*
X3767273Y3618549D01*
X3759600Y3600025D01*
Y3579975D01*
X3767273Y3561451D01*
X3781451Y3547273D01*
X3799975Y3539600D01*
X3817474D01*
X3837596Y3519478D01*
X3838097Y3519143D01*
X3838907Y3518334D01*
Y3226325D01*
X3826206Y3217839D01*
X3820025Y3220400D01*
X3803928D01*
X3768806Y3255522D01*
X3757097Y3263346D01*
X3743284Y3266093D01*
X3624951D01*
X3215694Y3675350D01*
Y6293638D01*
X3282642Y6360586D01*
X3407837D01*
X3408272Y6359501D01*
D02*
G37*
G36*
X4124798Y4974158D02*
X4124247Y4967151D01*
X4111790Y4958929D01*
X4091740D01*
X4073215Y4951256D01*
X4059038Y4937079D01*
X4051365Y4918554D01*
Y4909173D01*
X4048285Y4906093D01*
X3964951D01*
X3906093Y4964951D01*
Y5176269D01*
X3917827Y5181130D01*
X4124798Y4974158D01*
D02*
G37*
G36*
X3794478Y4909878D02*
X4029600Y4674756D01*
Y4665375D01*
X4037273Y4646851D01*
X4051451Y4632673D01*
X4069975Y4625000D01*
X4090025D01*
X4108549Y4632673D01*
X4117000Y4641124D01*
X4129325Y4635488D01*
Y4404969D01*
X4019356Y4295000D01*
X4009975D01*
X3991451Y4287327D01*
X3977273Y4273149D01*
X3969600Y4254625D01*
Y4234575D01*
X3977273Y4216051D01*
X3991451Y4201873D01*
X3994594Y4200571D01*
X3997072Y4188115D01*
X3925050Y4116093D01*
X3805183D01*
X3798549Y4122727D01*
X3795419Y4124024D01*
X3792942Y4136480D01*
X3815922Y4159460D01*
X3823746Y4171169D01*
X3826493Y4184982D01*
Y4312110D01*
X3826493Y4312111D01*
X3823746Y4325923D01*
X3815922Y4337633D01*
X3756093Y4397461D01*
Y4582560D01*
X3765522Y4591989D01*
X3773346Y4603698D01*
X3776093Y4617511D01*
Y4914538D01*
X3788793Y4918386D01*
X3794478Y4909878D01*
D02*
G37*
G36*
X4739576Y5528757D02*
X4749022D01*
Y2850000D01*
Y2808291D01*
X4740845Y2725270D01*
X4724571Y2643458D01*
X4700356Y2563628D01*
X4668433Y2486560D01*
X4629108Y2412989D01*
X4582763Y2343627D01*
X4529843Y2279144D01*
X4470855Y2220157D01*
X4411645Y2171565D01*
X4401130Y2179364D01*
X4405459Y2189817D01*
X4408051Y2209500D01*
Y2289500D01*
X4405459Y2309183D01*
X4397862Y2327525D01*
X4385776Y2343276D01*
X4370025Y2355362D01*
X4351683Y2362959D01*
X4332000Y2365551D01*
X4312316Y2362959D01*
X4293975Y2355362D01*
X4278224Y2343276D01*
X4266138Y2327525D01*
X4258541Y2309183D01*
X4255949Y2289500D01*
Y2209500D01*
X4258541Y2189817D01*
X4266138Y2171475D01*
X4278224Y2155724D01*
X4293975Y2143638D01*
X4312316Y2136041D01*
X4332000Y2133449D01*
X4333178Y2133604D01*
X4337771Y2121400D01*
X4337011Y2120892D01*
X4263442Y2081568D01*
X4186372Y2049644D01*
X4106542Y2025429D01*
X4024729Y2009155D01*
X3941709Y2000978D01*
X3858291Y2000978D01*
X3775270Y2009155D01*
X3693458Y2025429D01*
X3613629Y2049644D01*
X3536560Y2081567D01*
X3462989Y2120892D01*
X3462229Y2121400D01*
X3466822Y2133605D01*
X3468000Y2133449D01*
X3487684Y2136041D01*
X3506025Y2143638D01*
X3521776Y2155724D01*
X3533862Y2171475D01*
X3541460Y2189817D01*
X3544051Y2209500D01*
Y2289500D01*
X3541460Y2309183D01*
X3533862Y2327525D01*
X3521776Y2343276D01*
X3506025Y2355362D01*
X3487684Y2362959D01*
X3468000Y2365551D01*
X3448317Y2362959D01*
X3429975Y2355362D01*
X3414224Y2343276D01*
X3402138Y2327525D01*
X3394541Y2309183D01*
X3391950Y2289500D01*
Y2209500D01*
X3394541Y2189817D01*
X3398871Y2179363D01*
X3388355Y2171564D01*
X3329144Y2220157D01*
X3270157Y2279144D01*
X3217237Y2343628D01*
X3170892Y2412989D01*
X3131568Y2486558D01*
X3099645Y2563628D01*
X3075429Y2643458D01*
X3059155Y2725270D01*
X3050978Y2808291D01*
Y2850000D01*
Y5283856D01*
X3059575Y5289600D01*
X3079625D01*
X3083347Y5291142D01*
X3093907Y5284086D01*
Y3640000D01*
X3096654Y3626188D01*
X3104478Y3614478D01*
X3549600Y3169356D01*
Y3159975D01*
X3557273Y3141451D01*
X3571451Y3127273D01*
X3589975Y3119600D01*
X3610025D01*
X3628549Y3127273D01*
X3642727Y3141451D01*
X3650400Y3159975D01*
Y3180025D01*
X3649024Y3183347D01*
X3656080Y3193906D01*
X3728334D01*
X3759600Y3162640D01*
Y3159975D01*
X3767273Y3141451D01*
X3781451Y3127273D01*
X3799975Y3119600D01*
X3820025D01*
X3826206Y3122161D01*
X3838907Y3113675D01*
Y2935741D01*
X3829901Y2932453D01*
X3826207Y2932141D01*
X3811382Y2946966D01*
X3791020Y2955400D01*
X3768980D01*
X3748619Y2946966D01*
X3744115Y2942463D01*
X3702849D01*
X3702848Y2942463D01*
X3685134Y2938939D01*
X3670116Y2928905D01*
X3670116Y2928904D01*
X3621868Y2880657D01*
X3611834Y2865639D01*
X3608310Y2847925D01*
X3608311Y2847924D01*
Y2807900D01*
X3592700D01*
Y2725000D01*
X3567300D01*
Y2807900D01*
X3524600D01*
Y2790117D01*
X3511900Y2783854D01*
X3506025Y2788361D01*
X3487684Y2795959D01*
X3468000Y2798550D01*
X3448317Y2795959D01*
X3429975Y2788361D01*
X3414224Y2776276D01*
X3402138Y2760525D01*
X3394541Y2742183D01*
X3391950Y2722500D01*
Y2612499D01*
X3394541Y2592816D01*
X3402138Y2574474D01*
X3414224Y2558724D01*
X3429975Y2546638D01*
X3448317Y2539040D01*
X3468000Y2536449D01*
X3830411D01*
X3836571Y2532334D01*
X3850383Y2529586D01*
X3900419D01*
X3914232Y2532334D01*
X3920391Y2536449D01*
X4332000D01*
X4351683Y2539040D01*
X4370025Y2546638D01*
X4385776Y2558724D01*
X4397862Y2574474D01*
X4405459Y2592816D01*
X4408051Y2612499D01*
Y2722500D01*
X4405459Y2742183D01*
X4397862Y2760525D01*
X4385776Y2776276D01*
X4370025Y2788361D01*
X4351683Y2795959D01*
X4332000Y2798550D01*
X4312316Y2795959D01*
X4293975Y2788361D01*
X4288100Y2783854D01*
X4275400Y2790117D01*
Y2807900D01*
X4232700D01*
Y2725000D01*
X4207300D01*
Y2807900D01*
X4176290D01*
Y2812900D01*
X4172766Y2830615D01*
X4162732Y2845632D01*
X4162731Y2845633D01*
X4079459Y2928905D01*
X4064441Y2938939D01*
X4046727Y2942463D01*
X4046726Y2942463D01*
X4025885D01*
X4021381Y2946966D01*
X4001020Y2955400D01*
X3978980D01*
X3971253Y2952199D01*
X3960693Y2959255D01*
Y3113840D01*
X3973394Y3122326D01*
X3979975Y3119600D01*
X4000025D01*
X4018549Y3127273D01*
X4032727Y3141451D01*
X4040400Y3159975D01*
Y3169356D01*
X4044550Y3173507D01*
X4155437D01*
X4156412Y3172049D01*
Y3151999D01*
X4164085Y3133475D01*
X4178262Y3119297D01*
X4196786Y3111624D01*
X4216837D01*
X4235361Y3119297D01*
X4249538Y3133475D01*
X4257211Y3151999D01*
Y3161380D01*
X4714723Y3618892D01*
X4722547Y3630602D01*
X4725295Y3644414D01*
Y5523243D01*
X4735855Y5530299D01*
X4739576Y5528757D01*
D02*
G37*
%LPC*%
G36*
X4427400Y10215400D02*
X4334700D01*
Y10052700D01*
X4427400D01*
Y10215400D01*
D02*
G37*
G36*
X4309300D02*
X4216600D01*
Y10052700D01*
X4309300D01*
Y10215400D01*
D02*
G37*
G36*
X3919400D02*
X3826700D01*
Y10052700D01*
X3919400D01*
Y10215400D01*
D02*
G37*
G36*
X3801300D02*
X3708600D01*
Y10052700D01*
X3801300D01*
Y10215400D01*
D02*
G37*
G36*
X4427400Y10027300D02*
X4334700D01*
Y9864600D01*
X4427400D01*
Y10027300D01*
D02*
G37*
G36*
X4309300D02*
X4216600D01*
Y9864600D01*
X4309300D01*
Y10027300D01*
D02*
G37*
G36*
X3919400D02*
X3826700D01*
Y9864600D01*
X3919400D01*
Y10027300D01*
D02*
G37*
G36*
X3801300D02*
X3708600D01*
Y9864600D01*
X3801300D01*
Y10027300D01*
D02*
G37*
G36*
X4200025Y9390400D02*
X4179975D01*
X4161451Y9382727D01*
X4154817Y9376094D01*
X3320000D01*
X3306187Y9373346D01*
X3294478Y9365522D01*
X3169356Y9240400D01*
X3159975D01*
X3141451Y9232727D01*
X3127273Y9218549D01*
X3119600Y9200025D01*
Y9179975D01*
X3127273Y9161451D01*
X3141451Y9147273D01*
X3159975Y9139600D01*
X3180025D01*
X3198549Y9147273D01*
X3212727Y9161451D01*
X3220400Y9179975D01*
Y9189356D01*
X3334950Y9303907D01*
X4154817D01*
X4161451Y9297273D01*
X4179975Y9289600D01*
X4200025D01*
X4218549Y9297273D01*
X4232727Y9311451D01*
X4240400Y9329975D01*
Y9350025D01*
X4232727Y9368549D01*
X4218549Y9382727D01*
X4200025Y9390400D01*
D02*
G37*
G36*
X3410025Y8600400D02*
X3389975D01*
X3371451Y8592727D01*
X3357273Y8578549D01*
X3349600Y8560025D01*
Y8539975D01*
X3357273Y8521451D01*
X3371451Y8507273D01*
X3389975Y8499600D01*
X3410025D01*
X3428549Y8507273D01*
X3442727Y8521451D01*
X3450400Y8539975D01*
Y8560025D01*
X3442727Y8578549D01*
X3428549Y8592727D01*
X3410025Y8600400D01*
D02*
G37*
G36*
X3190025Y8510400D02*
X3169975D01*
X3151451Y8502727D01*
X3137273Y8488549D01*
X3129600Y8470025D01*
Y8449975D01*
X3137273Y8431451D01*
X3151451Y8417273D01*
X3169975Y8409600D01*
X3190025D01*
X3208549Y8417273D01*
X3222727Y8431451D01*
X3230400Y8449975D01*
Y8470025D01*
X3222727Y8488549D01*
X3208549Y8502727D01*
X3190025Y8510400D01*
D02*
G37*
G36*
X3681020Y8315400D02*
X3658980D01*
X3638619Y8306966D01*
X3623034Y8291381D01*
X3614600Y8271020D01*
Y8248980D01*
X3623034Y8228619D01*
X3638619Y8213034D01*
X3658980Y8204600D01*
X3681020D01*
X3701381Y8213034D01*
X3716966Y8228619D01*
X3725400Y8248980D01*
Y8271020D01*
X3716966Y8291381D01*
X3701381Y8306966D01*
X3681020Y8315400D01*
D02*
G37*
G36*
X3190025Y8300400D02*
X3169975D01*
X3151451Y8292727D01*
X3137273Y8278549D01*
X3129600Y8260025D01*
Y8239975D01*
X3137273Y8221451D01*
X3151451Y8207273D01*
X3169975Y8199600D01*
X3190025D01*
X3208549Y8207273D01*
X3222727Y8221451D01*
X3230400Y8239975D01*
Y8260025D01*
X3222727Y8278549D01*
X3208549Y8292727D01*
X3190025Y8300400D01*
D02*
G37*
G36*
X3650025Y7930400D02*
X3629975D01*
X3611451Y7922727D01*
X3597273Y7908549D01*
X3589600Y7890025D01*
Y7869975D01*
X3597273Y7851451D01*
X3611451Y7837273D01*
X3629975Y7829600D01*
X3650025D01*
X3668549Y7837273D01*
X3682727Y7851451D01*
X3690400Y7869975D01*
Y7890025D01*
X3682727Y7908549D01*
X3668549Y7922727D01*
X3650025Y7930400D01*
D02*
G37*
G36*
X4259400Y7575400D02*
X4166700D01*
Y7412700D01*
X4259400D01*
Y7575400D01*
D02*
G37*
G36*
X4141300D02*
X4048600D01*
Y7412700D01*
X4141300D01*
Y7575400D01*
D02*
G37*
G36*
X3260025Y6610400D02*
X3239975D01*
X3221451Y6602727D01*
X3207273Y6588549D01*
X3199600Y6570025D01*
Y6549975D01*
X3207273Y6531451D01*
X3221451Y6517273D01*
X3239975Y6509600D01*
X3260025D01*
X3278549Y6517273D01*
X3292727Y6531451D01*
X3300400Y6549975D01*
Y6570025D01*
X3292727Y6588549D01*
X3278549Y6602727D01*
X3260025Y6610400D01*
D02*
G37*
G36*
X4201020Y4015400D02*
X4178980D01*
X4158619Y4006966D01*
X4143034Y3991381D01*
X4134600Y3971020D01*
Y3948980D01*
X4143034Y3928619D01*
X4158619Y3913034D01*
X4178980Y3904600D01*
X4201020D01*
X4221381Y3913034D01*
X4236966Y3928619D01*
X4245400Y3948980D01*
Y3971020D01*
X4236966Y3991381D01*
X4221381Y4006966D01*
X4201020Y4015400D01*
D02*
G37*
%LPD*%
D40*
X3070000Y5340400D02*
Y6679560D01*
X3069600Y5340000D02*
X3070000Y5340400D01*
X3441913Y6601913D02*
X3486913D01*
X3660000Y6775000D02*
Y6850000D01*
X3440000Y6600000D02*
X3441913Y6601913D01*
X3486913D02*
X3660000Y6775000D01*
Y6847716D02*
X3737716Y6770000D01*
X4160000Y7406000D02*
Y7600000D01*
X4191913Y8051913D02*
Y8102313D01*
X4410000Y8320400D01*
X4190000Y8050000D02*
X4191913Y8051913D01*
X4468000Y7292900D02*
X4511682D01*
X3390000Y7402000D02*
Y7700800D01*
X3650000Y7404000D02*
Y7640400D01*
X3900000Y7400000D02*
Y7580000D01*
X4154000Y7400000D02*
X4160000Y7406000D01*
X4408000Y7352900D02*
Y7400000D01*
Y7352900D02*
X4468000Y7292900D01*
X3070000Y6679560D02*
X3150840Y6760400D01*
X3322284D01*
X3400000Y6838116D01*
Y6850000D01*
X3990000Y2900000D02*
X3993827Y2896173D01*
X4046727D01*
X4130000Y2812900D01*
X3654600Y2847925D02*
X3702848Y2896173D01*
X3776173D02*
X3780000Y2900000D01*
X3702848Y2896173D02*
X3776173D01*
X4130000Y2735000D02*
Y2812900D01*
Y2735000D02*
X4140000Y2725000D01*
X4211913Y2733087D02*
Y2818087D01*
X4210000Y2820000D02*
X4211913Y2818087D01*
Y2733087D02*
X4220000Y2725000D01*
X3654600Y2730400D02*
Y2847925D01*
Y2730400D02*
X3660000Y2725000D01*
X3582287Y2818087D02*
X3584200Y2820000D01*
X3582287Y2727287D02*
Y2818087D01*
X3580000Y2725000D02*
X3582287Y2727287D01*
D41*
X3740000Y5820000D02*
X4056109Y5503891D01*
Y5473891D02*
X4060000Y5470000D01*
X4056109Y5473891D02*
Y5503891D01*
X3900000Y5750000D02*
X4130000Y5520000D01*
X4190000Y5470000D02*
X4190400Y5470400D01*
X4060000Y5720000D02*
X4190400Y5589600D01*
Y5470400D02*
Y5589600D01*
X4522209Y3656072D02*
X4570000Y3703863D01*
Y5380400D01*
X4445400Y5505000D02*
X4570000Y5380400D01*
X4540400Y6099600D02*
X4630000Y6010000D01*
Y3670000D02*
Y6010000D01*
X4169600Y3209600D02*
X4630000Y3670000D01*
X4584660Y6129922D02*
X4689201Y6025380D01*
X4206811Y3162024D02*
X4689201Y3644414D01*
X4749601Y5579157D02*
Y6140399D01*
X4689201Y3644414D02*
Y6025380D01*
X4637120Y6252880D02*
X4749601Y6140399D01*
X4275740Y5807544D02*
Y5824855D01*
X4270298Y5830297D02*
X4275740Y5824855D01*
X4637120Y6362261D02*
X4646405Y6371547D01*
X4637120Y6252880D02*
Y6362261D01*
X4610000Y8690000D02*
X4760000Y8540000D01*
X4755342Y6245740D02*
Y6262057D01*
X4760000Y6266716D02*
Y8540000D01*
X4755342Y6262057D02*
X4760000Y6266716D01*
X4699600Y6320400D02*
Y6326716D01*
X4720000Y6347116D01*
Y8510400D01*
X4590000Y6680000D02*
X4646405Y6623595D01*
Y6371547D02*
Y6623595D01*
X4749601Y6240000D02*
X4755342Y6245740D01*
X4524260Y6353392D02*
X4540400Y6337253D01*
X4469600Y6343738D02*
X4500400Y6312938D01*
Y6174982D02*
Y6312938D01*
X4469600Y6661082D02*
X4480400Y6671882D01*
X4469600Y6343738D02*
Y6661082D01*
X4480400Y6671882D02*
Y6680000D01*
X4524260Y6353392D02*
Y6584260D01*
X4584660Y6129922D02*
Y6538154D01*
X4524260Y6584260D02*
X4530000Y6590000D01*
X4584660Y6538154D02*
X4585837Y6539331D01*
X4443200Y6139600D02*
X4465018D01*
X4540400Y6099600D02*
Y6337253D01*
X4680000Y7090000D02*
Y7800000D01*
X4420000Y6330015D02*
Y6830000D01*
X4680000Y7090000D01*
X4440000Y6200000D02*
Y6310015D01*
X4420000Y6330015D02*
X4440000Y6310015D01*
X4379600Y6271700D02*
Y6602218D01*
X4311818Y6670000D02*
X4379600Y6602218D01*
X4041718Y6578154D02*
X4054387Y6590823D01*
X4305577D01*
X4033600Y6578154D02*
X4041718D01*
X4310000Y6670000D02*
X4311818D01*
X3426109Y6316109D02*
X3456109D01*
X3460000Y6320000D01*
X3310400Y6200400D02*
X3426109Y6316109D01*
X3310400Y5056716D02*
Y6200400D01*
X3305740Y5035740D02*
Y5052056D01*
X3300000Y5030000D02*
X3305740Y5035740D01*
Y5052056D02*
X3310400Y5056716D01*
X3130000Y6340000D02*
X3240000Y6450000D01*
X3637946D02*
X3695046Y6507100D01*
X3240000Y6450000D02*
X3637946D01*
X3130000Y3640000D02*
Y6340000D01*
Y3640000D02*
X3600000Y3170000D01*
X3517200Y7055000D02*
X3775000D01*
X3860000Y6530000D02*
Y6970000D01*
X3775000Y7055000D02*
X3860000Y6970000D01*
X3940000Y6980000D02*
X4164212Y7204212D01*
X3940000Y6520000D02*
Y6980000D01*
Y6520000D02*
X4060000Y6400000D01*
X3740000Y6410000D02*
X3860000Y6530000D01*
X4164212Y7204212D02*
X4258860D01*
X3900000Y5750000D02*
Y7000000D01*
X3690000Y7210000D02*
X3900000Y7000000D01*
X3510400Y7210000D02*
X3690000D01*
X3514304Y7052105D02*
X3517200Y7055000D01*
X4490000Y7990000D02*
X4680000Y7800000D01*
X4258860Y7204212D02*
X4264600Y7209952D01*
X4580400Y8650000D02*
X4720000Y8510400D01*
X3520000Y8690000D02*
X4610000D01*
X4490000Y8430000D02*
X4630000Y8290000D01*
X3370000Y8430000D02*
X4490000D01*
X4449200Y8380800D02*
X4630000Y8200000D01*
X3450800Y8380800D02*
X4449200D01*
X3390000Y8320000D02*
X3450800Y8380800D01*
X3330000Y8390000D02*
X3370000Y8430000D01*
X3439200Y8770800D02*
X3520000Y8690000D01*
X3360800Y8770800D02*
X3439200D01*
X3180000Y8725400D02*
X3315400D01*
X3360800Y8770800D01*
X3180000Y8650000D02*
X4580400D01*
X3170000Y9190000D02*
Y9190000D01*
X3320000Y9340000D01*
X4190000D01*
X4403600Y6100000D02*
X4443200Y6139600D01*
X4465018D02*
X4500400Y6174982D01*
X4320000Y4400000D02*
Y5794727D01*
X4347155Y5821882D01*
Y5830000D01*
X4390400Y5510000D02*
X4395400Y5505000D01*
X4445400D01*
X4060000Y5720000D02*
Y6400000D01*
X3772900Y6499536D02*
Y6610000D01*
X3179600Y6308588D02*
X3267692Y6396680D01*
X3670044D01*
X3772900Y6499536D01*
X3740000Y5820000D02*
Y6410000D01*
X3850000Y5440000D02*
X3984417D01*
X3650000Y5640000D02*
X3850000Y5440000D01*
X3390000Y7402000D02*
X3392000Y7400000D01*
X3646000D02*
X3650000Y7404000D01*
X3360000Y6150155D02*
X3441686Y6231841D01*
X3360000Y5670000D02*
Y6150155D01*
X3469600Y5620400D02*
Y5890000D01*
X3179600Y3660400D02*
X3610000Y3230000D01*
X3179600Y3660400D02*
Y6308588D01*
X3469600Y5620400D02*
X3870000Y5220000D01*
X3530000Y5620000D02*
X4165418Y4984582D01*
X3530000Y5620000D02*
Y5840000D01*
X3360000Y5670000D02*
X3820000Y5210000D01*
X4275740Y5807544D02*
X4280000Y5803284D01*
X4033891Y4113891D02*
X4320000Y4400000D01*
X4080400Y4220400D02*
X4280000Y4420000D01*
Y5803284D01*
X3740000Y4617511D02*
Y5010000D01*
X4165418Y4675400D02*
Y4984582D01*
X3870000Y4950000D02*
X3950000Y4870000D01*
X3870000Y4950000D02*
Y5220000D01*
X3820000Y4935400D02*
Y5210000D01*
X3950000Y4870000D02*
X4063235D01*
X4101765Y4908529D01*
X4165418Y4390018D02*
Y4675400D01*
X3330000Y4790000D02*
X3730000Y5190000D01*
X3820000Y4935400D02*
X4080000Y4675400D01*
X3330000Y4720000D02*
Y4790000D01*
X4020000Y4244600D02*
X4165418Y4390018D01*
X3940000Y4080000D02*
X4044200Y4184200D01*
X4045018D02*
X4080400Y4219582D01*
X4044200Y4184200D02*
X4045018D01*
X4080400Y4219582D02*
Y4220400D01*
X3770000Y4080000D02*
X3940000D01*
X4033891Y4083891D02*
Y4113891D01*
X4320000Y3450000D02*
Y4291900D01*
X4030000Y4080000D02*
X4033891Y4083891D01*
X3720000Y4382511D02*
X3790400Y4312111D01*
X3720000Y4382511D02*
Y4597511D01*
X3740000Y4617511D01*
X3380000Y4210000D02*
X3730000D01*
X3790400Y4184982D02*
Y4312111D01*
X3748350Y4142932D02*
X3790400Y4184982D01*
X3716140Y4142932D02*
X3748350D01*
X3710400Y4137192D02*
X3716140Y4142932D01*
X3280000Y4310000D02*
X3380000Y4210000D01*
X4029600Y3209600D02*
X4169600D01*
X3990000Y3170000D02*
X4029600Y3209600D01*
X4140000Y3270000D02*
X4320000Y3450000D01*
X3936482Y3544600D02*
X3981882Y3590000D01*
X3924600Y3532884D02*
X3936316Y3544600D01*
X3924600Y2724600D02*
Y3532884D01*
X3936316Y3544600D02*
X3936482D01*
X3875000Y2725000D02*
Y3533284D01*
X3863118Y3545000D02*
X3863284D01*
X3818118Y3590000D02*
X3863118Y3545000D01*
X3863284D02*
X3875000Y3533284D01*
X3810000Y3590000D02*
X3818118D01*
X3981882D02*
X3990000D01*
X3610000Y3230000D02*
X3743284D01*
X3803284Y3170000D01*
X3810000D01*
X3975000Y2644599D02*
X3996201Y2623398D01*
Y2619025D02*
Y2623398D01*
X3975000Y2644599D02*
Y2725000D01*
X3924600Y2724600D02*
X3930000Y2719200D01*
Y2656899D02*
X3930000Y2656898D01*
X3820000Y2720000D02*
X3825000Y2725000D01*
X3930000Y2655074D02*
X3935801Y2649273D01*
Y2601061D02*
Y2649273D01*
X3930000Y2656899D02*
Y2719200D01*
X3815001Y2601061D02*
X3850383Y2565679D01*
X3820000Y2655074D02*
Y2720000D01*
X3930000Y2655074D02*
Y2656898D01*
X3815001Y2601061D02*
Y2650075D01*
X3875000Y2725000D02*
X3875201Y2724799D01*
Y2626280D02*
Y2724799D01*
X3850383Y2565679D02*
X3900419D01*
X3875201Y2626280D02*
X3875401Y2626079D01*
X3900419Y2565679D02*
X3935801Y2601061D01*
X3815001Y2650075D02*
X3820000Y2655074D01*
X4021484Y2821856D02*
X4023242Y2820098D01*
Y2726758D02*
Y2820098D01*
Y2726758D02*
X4025000Y2725000D01*
X3725000Y2818765D02*
X3725000Y2818764D01*
Y2725000D02*
Y2818764D01*
D45*
X4332000Y2249500D02*
D03*
X3468000D02*
D03*
D46*
X4332000Y2667500D02*
D03*
X3468000D02*
D03*
D47*
X4189000Y2617500D02*
D03*
X3611000D02*
D03*
D48*
X4580000Y6850000D02*
D03*
X4072000Y6748500D02*
D03*
Y6951500D02*
D03*
D49*
X4650000Y6150000D02*
D03*
X3640000Y7880000D02*
D03*
X4520000Y9520000D02*
D03*
X4499999Y10499997D02*
D03*
X4649999Y10199997D02*
D03*
X4499999Y9899997D02*
D03*
X4649999Y9599997D02*
D03*
Y8999997D02*
D03*
Y8399997D02*
D03*
X4499999Y5099998D02*
D03*
Y3299999D02*
D03*
X4649999Y2999999D02*
D03*
X4499999Y2699999D02*
D03*
X4199999Y10499997D02*
D03*
Y2099999D02*
D03*
X3899999Y10499997D02*
D03*
X4049999Y10199997D02*
D03*
Y7799998D02*
D03*
Y2399999D02*
D03*
X3599999Y10499997D02*
D03*
Y9899997D02*
D03*
X3749999Y7799998D02*
D03*
Y2399999D02*
D03*
X3599999Y2099999D02*
D03*
X3299999Y10499997D02*
D03*
X3449999Y10199997D02*
D03*
X3299999Y9899997D02*
D03*
Y8099998D02*
D03*
X3449999Y3599999D02*
D03*
X3299999Y2699999D02*
D03*
X4060000Y5470000D02*
D03*
X4130000Y5520000D02*
D03*
X4190000Y5470000D02*
D03*
X4749601Y5579157D02*
D03*
X4270298Y5830297D02*
D03*
X4699600Y6320400D02*
D03*
X4585837Y6539331D02*
D03*
X4530000Y6590000D02*
D03*
X4379600Y6271700D02*
D03*
X4306400Y6590000D02*
D03*
X3460000Y6320000D02*
D03*
X3695046Y6507100D02*
D03*
X3250000Y6170000D02*
D03*
X3069600Y5340000D02*
D03*
X3440000Y6600000D02*
D03*
X3779680Y7219600D02*
D03*
X4450000Y7000000D02*
D03*
X4540000Y7040000D02*
D03*
X4480400Y6680000D02*
D03*
X4590000D02*
D03*
X4610000Y7470000D02*
D03*
Y7580000D02*
D03*
X4609600Y7370000D02*
D03*
X4590000Y7790000D02*
D03*
X3510400Y7210000D02*
D03*
X3514304Y7052105D02*
D03*
X4264600Y7209952D02*
D03*
X4200000Y7000000D02*
D03*
X4749601Y6240000D02*
D03*
X4315014Y7598698D02*
D03*
X4160000Y7600000D02*
D03*
X3261600Y7300000D02*
D03*
X4490000Y7990000D02*
D03*
X4630000Y8290000D02*
D03*
Y8200000D02*
D03*
X3390000Y8320000D02*
D03*
X3330000Y8390000D02*
D03*
X4410000Y8320400D02*
D03*
X3180000Y8460000D02*
D03*
X3557500Y8527500D02*
D03*
X3400000Y8550000D02*
D03*
X3550000Y8780000D02*
D03*
X3400000Y8710400D02*
D03*
X3180000Y8725400D02*
D03*
Y8650000D02*
D03*
X3240000Y8800000D02*
D03*
X3250000Y6560000D02*
D03*
X3180000Y8250000D02*
D03*
X3170000Y9190000D02*
D03*
X3283936Y9215213D02*
D03*
X4190000Y9340000D02*
D03*
X3900000Y2130000D02*
D03*
X3595587Y4271913D02*
D03*
X4630000Y8110000D02*
D03*
X4440000Y6200000D02*
D03*
X4403600Y6100000D02*
D03*
X4511682Y7292900D02*
D03*
X4310000Y6670000D02*
D03*
X4347155Y5830000D02*
D03*
X4390400Y5510000D02*
D03*
X4030000Y6850000D02*
D03*
X4033600Y6578154D02*
D03*
X4029827Y6653459D02*
D03*
X4130000Y5410000D02*
D03*
X3772900Y6610000D02*
D03*
X3984417Y5440000D02*
D03*
X3390000Y7700800D02*
D03*
X3650000Y7640400D02*
D03*
X3900000Y7580000D02*
D03*
X3650000Y5640000D02*
D03*
X3300000Y5030000D02*
D03*
X3441686Y6231841D02*
D03*
X3469600Y5890000D02*
D03*
X3320000Y7199600D02*
D03*
X3530000Y5840000D02*
D03*
X4410000Y8179600D02*
D03*
X4190000Y8050000D02*
D03*
X3540000Y8880000D02*
D03*
X3590000Y9050000D02*
D03*
X3280000Y9520000D02*
D03*
X4220000Y6670000D02*
D03*
X4560000Y5650000D02*
D03*
X4510000Y6000000D02*
D03*
X3740000Y5010000D02*
D03*
X4101765Y4908529D02*
D03*
X3730000Y5190000D02*
D03*
X4165418Y4675400D02*
D03*
X4080000D02*
D03*
X4020000Y4244600D02*
D03*
X4320000Y4291900D02*
D03*
X3330000Y4720000D02*
D03*
X4030000Y4080000D02*
D03*
X3570000Y4680000D02*
D03*
X3730000Y4210000D02*
D03*
X3770000Y4080000D02*
D03*
X3710400Y4137192D02*
D03*
X4400000Y4291900D02*
D03*
X3280000Y4310000D02*
D03*
X4206811Y3162024D02*
D03*
X4140000Y3270000D02*
D03*
X3810000Y3590000D02*
D03*
X3990000D02*
D03*
X4522209Y3656072D02*
D03*
X3990000Y3170000D02*
D03*
X3600000D02*
D03*
X3810000D02*
D03*
X4122100Y3100000D02*
D03*
X4430000D02*
D03*
X3370000D02*
D03*
X3677900D02*
D03*
X3996201Y2619025D02*
D03*
X3875401Y2626079D02*
D03*
X4021484Y2821856D02*
D03*
X4210000Y2820000D02*
D03*
X3725000Y2818765D02*
D03*
X3584200Y2820000D02*
D03*
D50*
X3980000Y5910000D02*
D03*
X3820000D02*
D03*
X4160000Y6100000D02*
D03*
X3980000D02*
D03*
X3820000D02*
D03*
X3640000D02*
D03*
X3980000Y6290000D02*
D03*
X3820000D02*
D03*
X3900000Y5560000D02*
D03*
X3670000Y8260000D02*
D03*
X3440000Y5252595D02*
D03*
X3560000Y5360000D02*
D03*
X4033865Y4960000D02*
D03*
X4190000Y5090000D02*
D03*
X3674600Y4659181D02*
D03*
X4402674Y4510000D02*
D03*
X4005000Y4400000D02*
D03*
X3280000Y4490000D02*
D03*
X3700001Y4284593D02*
D03*
X3795000Y4400000D02*
D03*
X4190000Y3960000D02*
D03*
X4470000D02*
D03*
X3470000Y3930000D02*
D03*
X3600000D02*
D03*
X3900000Y3850000D02*
D03*
Y3610000D02*
D03*
X3990000Y2900000D02*
D03*
X3780000D02*
D03*
D59*
X4075000Y2725000D02*
D03*
X4025000D02*
D03*
X3975000D02*
D03*
X3925000D02*
D03*
X3875000D02*
D03*
X3825000D02*
D03*
X3775000D02*
D03*
X3725000D02*
D03*
D60*
X4140000D02*
D03*
X3660000D02*
D03*
X4220000D02*
D03*
X3580000D02*
D03*
D61*
X3392000Y7400000D02*
D03*
X3646000D02*
D03*
X3900000D02*
D03*
X4154000D02*
D03*
X4408000D02*
D03*
X3814000Y10040000D02*
D03*
X4322000D02*
D03*
D62*
X3660000Y6850000D02*
D03*
X3400000D02*
D03*
%TF.MD5,72c1ca8a8b2096887d3b1ef36ad8331a*%
M02*
